SplineFontDB: 3.2
FontName: LiberationSerif-BoldItalic
FullName: Liberation Serif Bold Italic
FamilyName: Liberation Serif
Weight: Bold
Copyright: Digitized data copyright (c) 2010 Google Corporation.\nCopyright (c) 2012 Red Hat, Inc.
Version: 2.1.5
ItalicAngle: -16.333
UnderlinePosition: -126
UnderlineWidth: 195
Ascent: 1638
Descent: 410
InvalidEm: 0
LayerCount: 2
Layer: 0 1 "Back" 1
Layer: 1 1 "Fore" 0
XUID: [1021 445 290132255 4198436]
FSType: 0
OS2Version: 3
OS2_WeightWidthSlopeOnly: 0
OS2_UseTypoMetrics: 0
CreationTime: 1123398000
ModificationTime: 1633007937
PfmFamily: 17
TTFWeight: 700
TTFWidth: 5
LineGap: 87
VLineGap: 0
Panose: 2 2 7 3 6 5 5 9 3 4
OS2TypoAscent: 1387
OS2TypoAOffset: 0
OS2TypoDescent: -442
OS2TypoDOffset: 0
OS2TypoLinegap: 307
OS2WinAscent: 1825
OS2WinAOffset: 0
OS2WinDescent: 443
OS2WinDOffset: 0
HheadAscent: 1825
HheadAOffset: 0
HheadDescent: -443
HheadDOffset: 0
OS2SubXSize: 1434
OS2SubYSize: 1331
OS2SubXOff: 44
OS2SubYOff: 293
OS2SupXSize: 1434
OS2SupYSize: 1331
OS2SupXOff: 76
OS2SupYOff: 928
OS2StrikeYSize: 102
OS2StrikeYPos: 530
OS2FamilyClass: 261
OS2Vendor: '1ASC'
OS2CodePages: 600001bf.dff70000
OS2UnicodeRanges: e0000aff.500078ff.00000021.00000000
Lookup: 1 0 0 "'locl' Localized Forms lookup 5" { "'locl' Localized Forms lookup 5-1"  } ['locl' ('cyrl' <'SRB ' > 'cyrl' <'MKD ' > ) ]
Lookup: 4 1 0 "'dlig' Discretionary Ligatures in Hebrew lookup 0" { "'dlig' Discretionary Ligatures in Hebrew lookup 0 subtable"  } ['dlig' ('hebr' <'dflt' > ) ]
Lookup: 4 1 0 "'ccmp' Glyph Composition/Decomposition in Hebrew lookup 1" { "'ccmp' Glyph Composition/Decomposition in Hebrew lookup 1 subtable"  } ['ccmp' ('hebr' <'dflt' > ) ]
Lookup: 6 1 0 "'ccmp' Glyph Composition/Decomposition in Hebrew lookup 2" { "'ccmp' Glyph Composition/Decomposition in Hebrew lookup 2 subtable"  } ['ccmp' ('hebr' <'dflt' > ) ]

StartChar: exclam
Encoding: 33 33 4
Width: 797
GlyphClass: 2
Flags: W
LayerCount: 2
Fore
SplineSet
415 420 m 1,0,-1
 320 420 l 1,1,-1
 380 1341 l 1,2,-1
 679 1341 l 1,3,-1
 415 420 l 1,0,-1
322 -29 m 0,4,5
 253 -29 253 -29 204.5 19 c 128,-1,6
 156 67 156 67 156 137 c 0,7,8
 156 206 156 206 204 254.5 c 128,-1,9
 252 303 252 303 322 303 c 0,10,11
 391 303 391 303 439.5 255 c 128,-1,12
 488 207 488 207 488 137 c 0,13,14
 488 68 488 68 440 19.5 c 128,-1,15
 392 -29 392 -29 322 -29 c 0,4,5
EndSplineSet
Validated: 1
EndChar

StartChar: quotedbl
Encoding: 34 34 5
Width: 1137
GlyphClass: 2
Flags: W
LayerCount: 2
Fore
SplineSet
763 1341 m 1,0,-1
 1001 1341 l 1,1,-1
 838 860 l 1,2,-1
 754 860 l 1,3,-1
 763 1341 l 1,0,-1
377 1341 m 1,4,-1
 615 1341 l 1,5,-1
 452 860 l 1,6,-1
 368 860 l 1,7,-1
 377 1341 l 1,4,-1
EndSplineSet
Validated: 1
EndChar

StartChar: numbersign
Encoding: 35 35 6
Width: 1024
GlyphClass: 2
Flags: W
LayerCount: 2
Fore
SplineSet
713 411 m 1,0,-1
 565 0 l 1,1,-1
 414 0 l 1,2,-1
 562 411 l 1,3,-1
 300 411 l 1,4,-1
 154 0 l 1,5,-1
 0 0 l 1,6,-1
 148 411 l 1,7,-1
 -5 411 l 1,8,-1
 17 534 l 1,9,-1
 195 534 l 1,10,-1
 298 821 l 1,11,-1
 67 821 l 1,12,-1
 89 944 l 1,13,-1
 343 944 l 1,14,-1
 486 1341 l 1,15,-1
 638 1341 l 1,16,-1
 494 944 l 1,17,-1
 756 944 l 1,18,-1
 900 1341 l 1,19,-1
 1051 1341 l 1,20,-1
 907 944 l 1,21,-1
 1059 944 l 1,22,-1
 1037 821 l 1,23,-1
 863 821 l 1,24,-1
 762 534 l 1,25,-1
 987 534 l 1,26,-1
 965 411 l 1,27,-1
 713 411 l 1,0,-1
449 821 m 1,28,-1
 346 534 l 1,29,-1
 608 534 l 1,30,-1
 712 821 l 1,31,-1
 449 821 l 1,28,-1
EndSplineSet
Validated: 1
EndChar

StartChar: dollar
Encoding: 36 36 7
Width: 1024
GlyphClass: 2
Flags: W
LayerCount: 2
Fore
SplineSet
713 1354 m 1,0,1
 857 1346 857 1346 982 1313 c 1,2,-1
 926 994 l 1,3,-1
 837 994 l 1,4,-1
 830 1190 l 1,5,6
 768 1236 768 1236 693 1247 c 1,7,-1
 611 810 l 1,8,9
 756 728 756 728 810.5 678 c 128,-1,10
 865 628 865 628 897 566 c 128,-1,11
 929 504 929 504 929 423 c 0,12,13
 929 19 929 19 455 -16 c 1,14,-1
 429 -156 l 1,15,-1
 327 -156 l 1,16,-1
 352 -20 l 1,17,18
 140 -17 140 -17 -24 51 c 1,19,-1
 40 411 l 1,20,-1
 128 411 l 1,21,-1
 129 196 l 1,22,23
 161 149 161 149 220.5 115.5 c 128,-1,24
 280 82 280 82 371 81 c 1,25,-1
 468 596 l 1,26,27
 332 667 332 667 277 716 c 128,-1,28
 222 765 222 765 190.5 828.5 c 128,-1,29
 159 892 159 892 159 979 c 0,30,31
 159 1339 159 1339 611 1355 c 1,32,-1
 635 1483 l 1,33,-1
 738 1483 l 1,34,-1
 713 1354 l 1,0,1
685 346 m 0,35,36
 685 409 685 409 657.5 458 c 128,-1,37
 630 507 630 507 563 553 c 1,38,-1
 476 91 l 1,39,40
 573 113 573 113 629 181 c 128,-1,41
 685 249 685 249 685 346 c 0,35,36
399 1047 m 0,42,43
 399 982 399 982 432 937 c 128,-1,44
 465 892 465 892 517 856 c 1,45,-1
 592 1250 l 1,46,47
 499 1241 499 1241 449 1188 c 128,-1,48
 399 1135 399 1135 399 1047 c 0,42,43
EndSplineSet
Validated: 1
EndChar

StartChar: percent
Encoding: 37 37 8
Width: 1706
GlyphClass: 2
Flags: W
LayerCount: 2
Fore
SplineSet
352 -20 m 1,0,-1
 202 -20 l 1,1,-1
 1394 1362 l 1,2,-1
 1545 1362 l 1,3,-1
 352 -20 l 1,0,-1
801 1105 m 0,4,5
 801 1061 801 1061 790 995 c 0,6,7
 724 623 724 623 401 623 c 0,8,9
 132 623 132 623 132 882 c 0,10,11
 132 1100 132 1100 238.5 1231 c 128,-1,12
 345 1362 345 1362 528 1362 c 0,13,14
 662 1362 662 1362 731.5 1297.5 c 128,-1,15
 801 1233 801 1233 801 1105 c 0,4,5
323 853 m 0,16,17
 323 716 323 716 405 716 c 0,18,19
 462 716 462 716 508 773 c 128,-1,20
 554 830 554 830 580 930.5 c 128,-1,21
 606 1031 606 1031 606 1115 c 0,22,23
 606 1190 606 1190 586 1229 c 128,-1,24
 566 1268 566 1268 518 1268 c 0,25,26
 461 1268 461 1268 417 1209.5 c 128,-1,27
 373 1151 373 1151 348 1044.5 c 128,-1,28
 323 938 323 938 323 853 c 0,16,17
1601 455 m 0,29,30
 1601 411 1601 411 1590 345 c 0,31,32
 1524 -27 1524 -27 1201 -27 c 0,33,34
 932 -27 932 -27 932 232 c 0,35,36
 932 450 932 450 1038.5 581 c 128,-1,37
 1145 712 1145 712 1328 712 c 0,38,39
 1462 712 1462 712 1531.5 647.5 c 128,-1,40
 1601 583 1601 583 1601 455 c 0,29,30
1123 203 m 0,41,42
 1123 66 1123 66 1205 66 c 0,43,44
 1262 66 1262 66 1308 123 c 128,-1,45
 1354 180 1354 180 1380 280.5 c 128,-1,46
 1406 381 1406 381 1406 465 c 0,47,48
 1406 540 1406 540 1386 579 c 128,-1,49
 1366 618 1366 618 1318 618 c 0,50,51
 1261 618 1261 618 1217 559.5 c 128,-1,52
 1173 501 1173 501 1148 394.5 c 128,-1,53
 1123 288 1123 288 1123 203 c 0,41,42
EndSplineSet
Validated: 1
EndChar

StartChar: ampersand
Encoding: 38 38 9
Width: 1593
GlyphClass: 2
Flags: W
LayerCount: 2
Fore
SplineSet
1099 1102 m 0,0,1
 1099 1020 1099 1020 1064 961.5 c 128,-1,2
 1029 903 1029 903 966.5 859 c 128,-1,3
 904 815 904 815 745 752 c 1,4,-1
 1057 401 l 1,5,6
 1168 572 1168 572 1196 717 c 1,7,-1
 1080 743 l 1,8,-1
 1091 807 l 1,9,-1
 1568 807 l 1,10,-1
 1557 743 l 1,11,-1
 1432 717 l 1,12,13
 1386 608 1386 608 1313.5 489 c 128,-1,14
 1241 370 1241 370 1161 282 c 1,15,-1
 1334 88 l 1,16,-1
 1456 63 l 1,17,-1
 1445 0 l 1,18,-1
 1081 0 l 1,19,-1
 980 120 l 1,20,21
 862 41 862 41 753.5 10.5 c 128,-1,22
 645 -20 645 -20 515 -20 c 0,23,24
 288 -20 288 -20 169 73.5 c 128,-1,25
 50 167 50 167 50 347 c 0,26,27
 50 447 50 447 94.5 519.5 c 128,-1,28
 139 592 139 592 215 645 c 128,-1,29
 291 698 291 698 447 753 c 1,30,31
 361 889 361 889 361 1037 c 256,32,33
 361 1185 361 1185 464 1273 c 128,-1,34
 567 1361 567 1361 747 1361 c 0,35,36
 857 1361 857 1361 936 1328.5 c 128,-1,37
 1015 1296 1015 1296 1057 1237 c 128,-1,38
 1099 1178 1099 1178 1099 1102 c 0,0,1
517 658 m 1,39,40
 431 614 431 614 394 575 c 128,-1,41
 357 536 357 536 336.5 482.5 c 128,-1,42
 316 429 316 429 316 356 c 0,43,44
 316 242 316 242 379 175 c 128,-1,45
 442 108 442 108 547 108 c 0,46,47
 744 108 744 108 886 228 c 1,48,-1
 517 658 l 1,39,40
595 1071 m 0,49,50
 595 958 595 958 675 843 c 1,51,52
 792 897 792 897 835.5 954 c 128,-1,53
 879 1011 879 1011 879 1088 c 0,54,55
 879 1172 879 1172 841.5 1218 c 128,-1,56
 804 1264 804 1264 747 1264 c 0,57,58
 673 1264 673 1264 634 1212 c 128,-1,59
 595 1160 595 1160 595 1071 c 0,49,50
EndSplineSet
Validated: 1
EndChar

StartChar: quotesingle
Encoding: 39 39 10
Width: 569
GlyphClass: 2
Flags: W
LayerCount: 2
Fore
SplineSet
291 1341 m 1,0,-1
 529 1341 l 1,1,-1
 366 860 l 1,2,-1
 282 860 l 1,3,-1
 291 1341 l 1,0,-1
EndSplineSet
Validated: 1
EndChar

StartChar: parenleft
Encoding: 40 40 11
Width: 682
GlyphClass: 2
Flags: W
LayerCount: 2
Fore
SplineSet
339 120 m 0,0,1
 339 -189 339 -189 500 -332 c 1,2,-1
 478 -436 l 1,3,4
 282 -323 282 -323 191.5 -166 c 128,-1,5
 101 -9 101 -9 101 218 c 0,6,7
 101 387 101 387 145.5 596 c 128,-1,8
 190 805 190 805 269.5 953.5 c 128,-1,9
 349 1102 349 1102 473.5 1211.5 c 128,-1,10
 598 1321 598 1321 805 1421 c 1,11,-1
 783 1297 l 1,12,13
 648 1207 648 1207 552.5 1035 c 128,-1,14
 457 863 457 863 398 588 c 128,-1,15
 339 313 339 313 339 120 c 0,0,1
EndSplineSet
Validated: 1
EndChar

StartChar: parenright
Encoding: 41 41 12
Width: 682
GlyphClass: 2
Flags: W
LayerCount: 2
Fore
SplineSet
-153 -436 m 1,0,-1
 -132 -312 l 1,1,2
 1 -222 1 -222 96.5 -53.5 c 128,-1,3
 192 115 192 115 253 393 c 128,-1,4
 314 671 314 671 314 870 c 0,5,6
 314 1176 314 1176 155 1317 c 1,7,-1
 173 1421 l 1,8,9
 374 1303 374 1303 462.5 1148.5 c 128,-1,10
 551 994 551 994 551 769 c 0,11,12
 551 604 551 604 506.5 395.5 c 128,-1,13
 462 187 462 187 383 37 c 128,-1,14
 304 -113 304 -113 180 -223 c 128,-1,15
 56 -333 56 -333 -153 -436 c 1,0,-1
EndSplineSet
Validated: 1
EndChar

StartChar: asterisk
Encoding: 42 42 13
Width: 1024
GlyphClass: 2
Flags: W
LayerCount: 2
Fore
SplineSet
632 889 m 1,0,-1
 654 565 l 1,1,-1
 424 602 l 1,2,-1
 543 907 l 1,3,-1
 223 719 l 1,4,-1
 163 944 l 1,5,-1
 480 983 l 1,6,-1
 191 1120 l 1,7,-1
 317 1315 l 1,8,-1
 564 1040 l 1,9,-1
 545 1364 l 1,10,-1
 775 1328 l 1,11,-1
 653 1026 l 1,12,-1
 973 1205 l 1,13,-1
 1034 984 l 1,14,-1
 712 946 l 1,15,-1
 1007 812 l 1,16,-1
 880 619 l 1,17,-1
 632 889 l 1,0,-1
EndSplineSet
Validated: 1
EndChar

StartChar: plus
Encoding: 43 43 14
Width: 1167
GlyphClass: 2
Flags: W
LayerCount: 2
Fore
SplineSet
672 608 m 1,0,-1
 672 203 l 1,1,-1
 529 203 l 1,2,-1
 529 608 l 1,3,-1
 125 608 l 1,4,-1
 125 751 l 1,5,-1
 529 751 l 1,6,-1
 529 1157 l 1,7,-1
 672 1157 l 1,8,-1
 672 751 l 1,9,-1
 1077 751 l 1,10,-1
 1077 608 l 1,11,-1
 672 608 l 1,0,-1
EndSplineSet
Validated: 1
EndChar

StartChar: comma
Encoding: 44 44 15
Width: 512
GlyphClass: 2
Flags: W
LayerCount: 2
Fore
SplineSet
343 106 m 0,0,1
 343 -51 343 -51 244 -159.5 c 128,-1,2
 145 -268 145 -268 -44 -317 c 1,3,-1
 -44 -225 l 1,4,5
 12 -210 12 -210 53 -179.5 c 128,-1,6
 94 -149 94 -149 116 -111 c 128,-1,7
 138 -73 138 -73 138 -39 c 0,8,9
 138 -17 138 -17 123.5 -0.5 c 128,-1,10
 109 16 109 16 68 42 c 0,11,12
 -3 85 -3 85 -3 168 c 0,13,14
 -3 233 -3 233 42 267 c 128,-1,15
 87 301 87 301 156 301 c 0,16,17
 240 301 240 301 291.5 247 c 128,-1,18
 343 193 343 193 343 106 c 0,0,1
EndSplineSet
Validated: 1
EndChar

StartChar: hyphen
Encoding: 45 45 16
Width: 682
GlyphClass: 2
Flags: W
LayerCount: 2
Fore
SplineSet
43 395 m 1,0,-1
 76 569 l 1,1,-1
 608 569 l 1,2,-1
 575 395 l 1,3,-1
 43 395 l 1,0,-1
EndSplineSet
Validated: 1
EndChar

StartChar: period
Encoding: 46 46 17
Width: 512
GlyphClass: 2
Flags: W
LayerCount: 2
Fore
SplineSet
181 -29 m 0,0,1
 112 -29 112 -29 63.5 19 c 128,-1,2
 15 67 15 67 15 137 c 0,3,4
 15 206 15 206 63 254.5 c 128,-1,5
 111 303 111 303 181 303 c 0,6,7
 250 303 250 303 298.5 255 c 128,-1,8
 347 207 347 207 347 137 c 0,9,10
 347 68 347 68 299 19.5 c 128,-1,11
 251 -29 251 -29 181 -29 c 0,0,1
EndSplineSet
Validated: 1
EndChar

StartChar: slash
Encoding: 47 47 18
Width: 569
GlyphClass: 2
Flags: W
LayerCount: 2
Fore
SplineSet
16 -20 m 1,0,-1
 -124 -20 l 1,1,-1
 586 1349 l 1,2,-1
 726 1349 l 1,3,-1
 16 -20 l 1,0,-1
EndSplineSet
Validated: 1
EndChar

StartChar: zero
Encoding: 48 48 19
Width: 1024
GlyphClass: 2
Flags: W
LayerCount: 2
Fore
SplineSet
988 951 m 0,0,1
 988 724 988 724 915.5 473.5 c 128,-1,2
 843 223 843 223 717 101.5 c 128,-1,3
 591 -20 591 -20 410 -20 c 0,4,5
 71 -20 71 -20 71 399 c 0,6,7
 71 635 71 635 143.5 879 c 128,-1,8
 216 1123 216 1123 341 1242.5 c 128,-1,9
 466 1362 466 1362 643 1362 c 0,10,11
 988 1362 988 1362 988 951 c 0,0,1
741 970 m 1,12,13
 741 1108 741 1108 713.5 1179.5 c 128,-1,14
 686 1251 686 1251 617 1251 c 0,15,16
 531 1251 531 1251 470.5 1137.5 c 128,-1,17
 410 1024 410 1024 363 769.5 c 128,-1,18
 316 515 316 515 316 367 c 0,19,20
 316 90 316 90 435 90 c 0,21,22
 504 90 504 90 556 158 c 128,-1,23
 608 226 608 226 646 362.5 c 128,-1,24
 684 499 684 499 710.5 679 c 128,-1,25
 737 859 737 859 741 970 c 1,12,13
EndSplineSet
Validated: 1
Substitution2: "'subs' Subscript lookup 7 subtable" zero.subs
EndChar

StartChar: one
Encoding: 49 49 20
Width: 1024
GlyphClass: 2
Flags: W
LayerCount: 2
Fore
SplineSet
578 110 m 1,0,-1
 817 86 l 1,1,-1
 802 0 l 1,2,-1
 48 0 l 1,3,-1
 63 86 l 1,4,-1
 309 110 l 1,5,-1
 486 1116 l 1,6,-1
 233 1045 l 1,7,-1
 248 1130 l 1,8,-1
 665 1352 l 1,9,-1
 797 1352 l 1,10,-1
 578 110 l 1,0,-1
EndSplineSet
Validated: 1
Substitution2: "'subs' Subscript lookup 7 subtable" one.subs
EndChar

StartChar: two
Encoding: 50 50 21
Width: 1024
GlyphClass: 2
Flags: W
LayerCount: 2
Fore
SplineSet
825 0 m 1,0,-1
 -25 0 l 1,1,-1
 8 189 l 1,2,3
 395 488 395 488 548 684 c 128,-1,4
 701 880 701 880 701 1049 c 0,5,6
 701 1157 701 1157 651 1205.5 c 128,-1,7
 601 1254 601 1254 520 1254 c 0,8,9
 431 1254 431 1254 361 1202 c 1,10,-1
 284 1008 l 1,11,-1
 197 1008 l 1,12,-1
 251 1313 l 1,13,14
 335 1331 335 1331 413.5 1343.5 c 128,-1,15
 492 1356 492 1356 582 1356 c 0,16,17
 769 1356 769 1356 873 1279 c 128,-1,18
 977 1202 977 1202 977 1067 c 0,19,20
 977 969 977 969 938 876 c 128,-1,21
 899 783 899 783 823.5 694 c 128,-1,22
 748 605 748 605 619.5 502.5 c 128,-1,23
 491 400 491 400 192 206 c 1,24,-1
 864 206 l 1,25,-1
 825 0 l 1,0,-1
EndSplineSet
Validated: 1
Substitution2: "'subs' Subscript lookup 7 subtable" two.subs
EndChar

StartChar: three
Encoding: 51 51 22
Width: 1024
GlyphClass: 2
Flags: W
LayerCount: 2
Fore
SplineSet
347 -20 m 0,0,1
 116 -20 116 -20 -16 20 c 1,2,-1
 29 345 l 1,3,-1
 121 345 l 1,4,-1
 135 130 l 1,5,6
 154 114 154 114 217 97.5 c 128,-1,7
 280 81 280 81 336 81 c 0,8,9
 474 81 474 81 551 160 c 128,-1,10
 628 239 628 239 628 394 c 0,11,12
 628 509 628 509 578.5 565.5 c 128,-1,13
 529 622 529 622 432 633 c 1,14,-1
 317 640 l 1,15,-1
 339 761 l 1,16,-1
 452 769 l 1,17,18
 691 784 691 784 691 1051 c 0,19,20
 691 1152 691 1152 643 1203 c 128,-1,21
 595 1254 595 1254 510 1254 c 0,22,23
 420 1254 420 1254 354 1202 c 1,24,-1
 277 1008 l 1,25,-1
 190 1008 l 1,26,-1
 244 1313 l 1,27,28
 346 1339 346 1339 416 1347.5 c 128,-1,29
 486 1356 486 1356 574 1356 c 0,30,31
 760 1356 760 1356 864.5 1278.5 c 128,-1,32
 969 1201 969 1201 969 1065 c 0,33,34
 969 911 969 911 883 819 c 128,-1,35
 797 727 797 727 631 702 c 1,36,37
 762 681 762 681 834 598.5 c 128,-1,38
 906 516 906 516 906 397 c 0,39,40
 906 200 906 200 755 90 c 128,-1,41
 604 -20 604 -20 347 -20 c 0,0,1
EndSplineSet
Validated: 1
Substitution2: "'subs' Subscript lookup 7 subtable" three.subs
EndChar

StartChar: four
Encoding: 52 52 23
Width: 1024
GlyphClass: 2
Flags: W
LayerCount: 2
Fore
SplineSet
772 275 m 1,0,-1
 725 0 l 1,1,-1
 476 0 l 1,2,-1
 523 275 l 1,3,-1
 -32 275 l 1,4,-1
 -4 428 l 1,5,-1
 759 1348 l 1,6,-1
 962 1348 l 1,7,-1
 805 460 l 1,8,-1
 962 460 l 1,9,-1
 929 275 l 1,10,-1
 772 275 l 1,0,-1
681 1077 m 1,11,-1
 171 460 l 1,12,-1
 556 460 l 1,13,-1
 625 846 l 2,14,15
 638 915 638 915 681 1077 c 1,11,-1
EndSplineSet
Validated: 1
Substitution2: "'subs' Subscript lookup 7 subtable" four.subs
Substitution2: "'sups' Superscript lookup 6 subtable" four.sups
EndChar

StartChar: five
Encoding: 53 53 24
Width: 1024
GlyphClass: 2
Flags: W
LayerCount: 2
Fore
SplineSet
516 798 m 0,0,1
 709 798 709 798 811 708 c 128,-1,2
 913 618 913 618 913 450 c 0,3,4
 913 226 913 226 764 103 c 128,-1,5
 615 -20 615 -20 340 -20 c 0,6,7
 265 -20 265 -20 204 -14 c 128,-1,8
 143 -8 143 -8 23 20 c 1,9,-1
 68 345 l 1,10,-1
 160 345 l 1,11,-1
 174 130 l 1,12,13
 202 107 202 107 252 94 c 128,-1,14
 302 81 302 81 354 81 c 0,15,16
 490 81 490 81 564.5 175.5 c 128,-1,17
 639 270 639 270 639 445 c 0,18,19
 639 687 639 687 442 687 c 0,20,21
 402 687 402 687 348 676.5 c 128,-1,22
 294 666 294 666 250 648 c 1,23,-1
 157 648 l 1,24,-1
 279 1341 l 1,25,-1
 971 1341 l 1,26,-1
 935 1138 l 1,27,-1
 369 1138 l 1,28,-1
 306 773 l 1,29,30
 396 798 396 798 516 798 c 0,0,1
EndSplineSet
Validated: 1
Substitution2: "'subs' Subscript lookup 7 subtable" five.subs
Substitution2: "'sups' Superscript lookup 6 subtable" five.sups
EndChar

StartChar: six
Encoding: 54 54 25
Width: 1024
GlyphClass: 2
Flags: W
LayerCount: 2
Fore
SplineSet
459 -20 m 0,0,1
 271 -20 271 -20 170.5 102 c 128,-1,2
 70 224 70 224 70 446 c 0,3,4
 70 687 70 687 160 897.5 c 128,-1,5
 250 1108 250 1108 405.5 1232 c 128,-1,6
 561 1356 561 1356 742 1356 c 0,7,8
 887 1356 887 1356 1024 1313 c 1,9,-1
 970 1008 l 1,10,-1
 883 1008 l 1,11,-1
 874 1202 l 1,12,13
 810 1254 810 1254 733 1254 c 0,14,15
 605 1254 605 1254 506 1116.5 c 128,-1,16
 407 979 407 979 360 742 c 1,17,18
 498 815 498 815 624 815 c 0,19,20
 777 815 777 815 860.5 728 c 128,-1,21
 944 641 944 641 944 483 c 0,22,23
 944 339 944 339 884.5 223.5 c 128,-1,24
 825 108 825 108 714.5 44 c 128,-1,25
 604 -20 604 -20 459 -20 c 0,0,1
329 415 m 0,26,27
 329 249 329 249 368 165 c 128,-1,28
 407 81 407 81 482 81 c 0,29,30
 570 81 570 81 623.5 185 c 128,-1,31
 677 289 677 289 677 459 c 0,32,33
 677 579 677 579 631 634.5 c 128,-1,34
 585 690 585 690 513 690 c 0,35,36
 442 690 442 690 344 649 c 1,37,38
 329 535 329 535 329 415 c 0,26,27
EndSplineSet
Validated: 1
Substitution2: "'subs' Subscript lookup 7 subtable" six.subs
Substitution2: "'sups' Superscript lookup 6 subtable" six.sups
EndChar

StartChar: seven
Encoding: 55 55 26
Width: 1024
GlyphClass: 2
Flags: W
LayerCount: 2
Fore
SplineSet
254 958 m 1,0,-1
 167 958 l 1,1,-1
 235 1341 l 1,2,-1
 1092 1341 l 1,3,-1
 1078 1262 l 1,4,-1
 345 0 l 1,5,-1
 86 0 l 1,6,-1
 860 1138 l 1,7,-1
 331 1138 l 1,8,-1
 254 958 l 1,0,-1
EndSplineSet
Validated: 1
Substitution2: "'subs' Subscript lookup 7 subtable" seven.subs
Substitution2: "'sups' Superscript lookup 6 subtable" seven.sups
EndChar

StartChar: eight
Encoding: 56 56 27
Width: 1024
GlyphClass: 2
Flags: W
LayerCount: 2
Fore
SplineSet
993 1085 m 0,0,1
 993 944 993 944 925.5 845 c 128,-1,2
 858 746 858 746 741 711 c 1,3,4
 824 681 824 681 871.5 611.5 c 128,-1,5
 919 542 919 542 919 440 c 0,6,7
 919 -20 919 -20 419 -20 c 0,8,9
 234 -20 234 -20 135.5 70.5 c 128,-1,10
 37 161 37 161 37 321 c 0,11,12
 37 477 37 477 117.5 578 c 128,-1,13
 198 679 198 679 337 711 c 1,14,15
 273 745 273 745 234 818 c 128,-1,16
 195 891 195 891 195 980 c 0,17,18
 195 1167 195 1167 311 1264.5 c 128,-1,19
 427 1362 427 1362 649 1362 c 0,20,21
 818 1362 818 1362 905.5 1290.5 c 128,-1,22
 993 1219 993 1219 993 1085 c 0,0,1
447 914 m 0,23,24
 447 766 447 766 553 766 c 0,25,26
 638 766 638 766 689 860.5 c 128,-1,27
 740 955 740 955 740 1109 c 0,28,29
 740 1261 740 1261 625 1261 c 0,30,31
 540 1261 540 1261 493.5 1171 c 128,-1,32
 447 1081 447 1081 447 914 c 0,23,24
289 272 m 0,33,34
 289 83 289 83 443 83 c 0,35,36
 553 83 553 83 609.5 183 c 128,-1,37
 666 283 666 283 666 471 c 0,38,39
 666 654 666 654 513 654 c 0,40,41
 404 654 404 654 346.5 551.5 c 128,-1,42
 289 449 289 449 289 272 c 0,33,34
EndSplineSet
Validated: 1
Substitution2: "'subs' Subscript lookup 7 subtable" eight.subs
Substitution2: "'sups' Superscript lookup 6 subtable" eight.sups
EndChar

StartChar: nine
Encoding: 57 57 28
Width: 1024
GlyphClass: 2
Flags: W
LayerCount: 2
Fore
SplineSet
588 1355 m 0,0,1
 769 1355 769 1355 878.5 1226.5 c 128,-1,2
 988 1098 988 1098 988 880 c 0,3,4
 988 634 988 634 901 427 c 128,-1,5
 814 220 814 220 660 100 c 128,-1,6
 506 -20 506 -20 326 -20 c 0,7,8
 165 -20 165 -20 30 23 c 1,9,-1
 84 328 l 1,10,-1
 171 328 l 1,11,-1
 180 134 l 1,12,13
 245 82 245 82 339 82 c 0,14,15
 464 82 464 82 560.5 213 c 128,-1,16
 657 344 657 344 703 584 c 1,17,18
 572 521 572 521 443 521 c 0,19,20
 287 521 287 521 200.5 614 c 128,-1,21
 114 707 114 707 114 872 c 0,22,23
 114 1008 114 1008 173.5 1119 c 128,-1,24
 233 1230 233 1230 341.5 1292.5 c 128,-1,25
 450 1355 450 1355 588 1355 c 0,0,1
730 883 m 0,26,27
 730 1056 730 1056 688.5 1155.5 c 128,-1,28
 647 1255 647 1255 576 1255 c 0,29,30
 488 1255 488 1255 433.5 1149.5 c 128,-1,31
 379 1044 379 1044 379 872 c 0,32,33
 379 758 379 758 420 702 c 128,-1,34
 461 646 461 646 535 646 c 0,35,36
 612 646 612 646 718 685 c 1,37,38
 730 782 730 782 730 883 c 0,26,27
EndSplineSet
Validated: 1
Substitution2: "'subs' Subscript lookup 7 subtable" nine.subs
Substitution2: "'sups' Superscript lookup 6 subtable" nine.sups
EndChar

StartChar: colon
Encoding: 58 58 29
Width: 682
GlyphClass: 2
Flags: W
LayerCount: 2
Fore
SplineSet
374 628 m 256,0,1
 304 628 304 628 256.5 676 c 128,-1,2
 209 724 209 724 209 794 c 256,3,4
 209 864 209 864 255.5 912 c 128,-1,5
 302 960 302 960 374 960 c 0,6,7
 445 960 445 960 492.5 911.5 c 128,-1,8
 540 863 540 863 540 794 c 256,9,10
 540 725 540 725 492 676.5 c 128,-1,11
 444 628 444 628 374 628 c 256,0,1
235 -29 m 0,12,13
 166 -29 166 -29 117.5 19 c 128,-1,14
 69 67 69 67 69 137 c 0,15,16
 69 206 69 206 117 254.5 c 128,-1,17
 165 303 165 303 235 303 c 0,18,19
 304 303 304 303 352.5 255 c 128,-1,20
 401 207 401 207 401 137 c 0,21,22
 401 68 401 68 353 19.5 c 128,-1,23
 305 -29 305 -29 235 -29 c 0,12,13
EndSplineSet
Validated: 1
EndChar

StartChar: semicolon
Encoding: 59 59 30
Width: 682
GlyphClass: 2
Flags: W
LayerCount: 2
Fore
SplineSet
413 106 m 0,0,1
 413 -51 413 -51 314 -159.5 c 128,-1,2
 215 -268 215 -268 26 -317 c 1,3,-1
 26 -225 l 1,4,5
 82 -210 82 -210 123 -179.5 c 128,-1,6
 164 -149 164 -149 186 -111 c 128,-1,7
 208 -73 208 -73 208 -39 c 0,8,9
 208 -17 208 -17 193.5 -0.5 c 128,-1,10
 179 16 179 16 138 42 c 0,11,12
 67 85 67 85 67 168 c 0,13,14
 67 233 67 233 112 267 c 128,-1,15
 157 301 157 301 226 301 c 0,16,17
 310 301 310 301 361.5 247 c 128,-1,18
 413 193 413 193 413 106 c 0,0,1
382 628 m 256,19,20
 312 628 312 628 264.5 676 c 128,-1,21
 217 724 217 724 217 794 c 256,22,23
 217 864 217 864 263.5 912 c 128,-1,24
 310 960 310 960 382 960 c 0,25,26
 453 960 453 960 500.5 911.5 c 128,-1,27
 548 863 548 863 548 794 c 256,28,29
 548 725 548 725 500 676.5 c 128,-1,30
 452 628 452 628 382 628 c 256,19,20
EndSplineSet
Validated: 1
EndChar

StartChar: less
Encoding: 60 60 31
Width: 1167
GlyphClass: 2
Flags: W
LayerCount: 2
Fore
SplineSet
101 635 m 1,0,-1
 101 725 l 1,1,-1
 1053 1193 l 1,2,-1
 1053 1050 l 1,3,-1
 286 680 l 1,4,-1
 1053 309 l 1,5,-1
 1053 166 l 1,6,-1
 101 635 l 1,0,-1
EndSplineSet
Validated: 1
EndChar

StartChar: equal
Encoding: 61 61 32
Width: 1167
GlyphClass: 2
Flags: W
LayerCount: 2
Fore
SplineSet
1070 547 m 1,0,-1
 1070 403 l 1,1,-1
 118 403 l 1,2,-1
 118 547 l 1,3,-1
 1070 547 l 1,0,-1
1070 956 m 1,4,-1
 1070 813 l 1,5,-1
 118 813 l 1,6,-1
 118 956 l 1,7,-1
 1070 956 l 1,4,-1
EndSplineSet
Validated: 1
EndChar

StartChar: greater
Encoding: 62 62 33
Width: 1167
GlyphClass: 2
Flags: W
LayerCount: 2
Fore
SplineSet
153 166 m 1,0,-1
 153 309 l 1,1,-1
 921 680 l 1,2,-1
 153 1050 l 1,3,-1
 153 1193 l 1,4,-1
 1105 725 l 1,5,-1
 1105 635 l 1,6,-1
 153 166 l 1,0,-1
EndSplineSet
Validated: 1
EndChar

StartChar: question
Encoding: 63 63 34
Width: 1024
GlyphClass: 2
Flags: W
LayerCount: 2
Fore
SplineSet
950 1043 m 0,0,1
 950 872 950 872 859.5 769 c 128,-1,2
 769 666 769 666 578 614 c 2,3,-1
 497 592 l 1,4,-1
 434 390 l 1,5,-1
 331 390 l 1,6,-1
 329 703 l 1,7,-1
 436 726 l 1,8,9
 680 777 680 777 680 1051 c 0,10,11
 680 1254 680 1254 491 1254 c 0,12,13
 453 1254 453 1254 411.5 1240.5 c 128,-1,14
 370 1227 370 1227 344 1207 c 1,15,-1
 279 1013 l 1,16,-1
 190 1013 l 1,17,-1
 230 1308 l 1,18,19
 388 1356 388 1356 542 1356 c 0,20,21
 737 1356 737 1356 843.5 1275.5 c 128,-1,22
 950 1195 950 1195 950 1043 c 0,0,1
350 -29 m 256,23,24
 280 -29 280 -29 232.5 19 c 128,-1,25
 185 67 185 67 185 137 c 256,26,27
 185 207 185 207 232.5 255 c 128,-1,28
 280 303 280 303 350 303 c 0,29,30
 419 303 419 303 467.5 255 c 128,-1,31
 516 207 516 207 516 137 c 0,32,33
 516 68 516 68 468 19.5 c 128,-1,34
 420 -29 420 -29 350 -29 c 256,23,24
EndSplineSet
Validated: 1
EndChar

StartChar: at
Encoding: 64 64 35
Width: 1704
GlyphClass: 2
Flags: W
LayerCount: 2
Fore
SplineSet
972 1364 m 0,0,1
 1295 1364 1295 1364 1472 1203.5 c 128,-1,2
 1649 1043 1649 1043 1649 752 c 0,3,4
 1649 552 1649 552 1561 383.5 c 128,-1,5
 1473 215 1473 215 1328.5 120 c 128,-1,6
 1184 25 1184 25 1020 25 c 0,7,8
 953 25 953 25 907 62.5 c 128,-1,9
 861 100 861 100 853 156 c 1,10,11
 784 99 784 99 708.5 62 c 128,-1,12
 633 25 633 25 580 25 c 0,13,14
 495 25 495 25 444.5 89.5 c 128,-1,15
 394 154 394 154 394 267 c 0,16,17
 394 413 394 413 444.5 534 c 128,-1,18
 495 655 495 655 593 746.5 c 128,-1,19
 691 838 691 838 798.5 881 c 128,-1,20
 906 924 906 924 1085 924 c 0,21,22
 1172 924 1172 924 1268 913 c 1,23,-1
 1147 379 l 1,24,25
 1117 253 1117 253 1117 223 c 0,26,27
 1117 169 1117 169 1169 169 c 0,28,29
 1245 169 1245 169 1310 243.5 c 128,-1,30
 1375 318 1375 318 1415 458 c 128,-1,31
 1455 598 1455 598 1455 750 c 0,32,33
 1455 989 1455 989 1324.5 1121 c 128,-1,34
 1194 1253 1194 1253 964 1253 c 0,35,36
 754 1253 754 1253 590.5 1140 c 128,-1,37
 427 1027 427 1027 334.5 822.5 c 128,-1,38
 242 618 242 618 242 365 c 0,39,40
 242 179 242 179 314.5 33.5 c 128,-1,41
 387 -112 387 -112 524 -193 c 128,-1,42
 661 -274 661 -274 846 -274 c 0,43,44
 951 -274 951 -274 1040.5 -255 c 128,-1,45
 1130 -236 1130 -236 1206.5 -201.5 c 128,-1,46
 1283 -167 1283 -167 1379 -97 c 1,47,-1
 1431 -173 l 1,48,49
 1289 -287 1289 -287 1140 -338 c 128,-1,50
 991 -389 991 -389 815 -389 c 0,51,52
 587 -389 587 -389 412.5 -295 c 128,-1,53
 238 -201 238 -201 143 -27.5 c 128,-1,54
 48 146 48 146 48 362 c 0,55,56
 48 647 48 647 168.5 877 c 128,-1,57
 289 1107 289 1107 501 1235.5 c 128,-1,58
 713 1364 713 1364 972 1364 c 0,0,1
644 320 m 0,59,60
 644 254 644 254 664 221.5 c 128,-1,61
 684 189 684 189 712 189 c 0,62,63
 779 189 779 189 856 253 c 1,64,-1
 983 805 l 1,65,-1
 928 810 l 1,66,67
 823 810 823 810 760 744 c 1,68,69
 716 688 716 688 680 561 c 128,-1,70
 644 434 644 434 644 320 c 0,59,60
EndSplineSet
Validated: 1
EndChar

StartChar: A
Encoding: 65 65 36
Width: 1366
GlyphClass: 2
Flags: W
AnchorPoint: "bottom" 542 1 basechar 0
AnchorPoint: "top" 800 1353 basechar 0
LayerCount: 2
Fore
SplineSet
302 73 m 1,0,-1
 288 0 l 1,1,-1
 -106 0 l 1,2,-1
 -92 73 l 1,3,-1
 11 100 l 1,4,-1
 679 1352 l 1,5,-1
 919 1352 l 1,6,-1
 1173 100 l 1,7,-1
 1282 73 l 1,8,-1
 1268 0 l 1,9,-1
 719 0 l 1,10,-1
 733 73 l 1,11,-1
 871 100 l 1,12,-1
 810 447 l 1,13,-1
 338 447 l 1,14,-1
 154 100 l 1,15,-1
 302 73 l 1,0,-1
689 1118 m 1,16,-1
 394 557 l 1,17,-1
 790 557 l 1,18,-1
 689 1118 l 1,16,-1
EndSplineSet
EndChar

StartChar: B
Encoding: 66 66 37
Width: 1366
GlyphClass: 2
Flags: W
AnchorPoint: "bottom" 576 -3 basechar 0
AnchorPoint: "top" 752 1342 basechar 0
LayerCount: 2
Fore
SplineSet
677 764 m 2,0,1
 993 764 993 764 993 1035 c 0,2,3
 993 1130 993 1130 932.5 1180.5 c 128,-1,4
 872 1231 872 1231 755 1231 c 2,5,-1
 666 1231 l 1,6,-1
 583 764 l 1,7,-1
 677 764 l 2,0,1
654 104 m 0,8,9
 823 104 823 104 902 177.5 c 128,-1,10
 981 251 981 251 981 405 c 0,11,12
 981 527 981 527 905 590.5 c 128,-1,13
 829 654 829 654 678 654 c 2,14,-1
 564 654 l 1,15,-1
 468 110 l 1,16,17
 573 104 573 104 654 104 c 0,8,9
648 -6 m 1,18,-1
 303 0 l 1,19,-1
 -19 0 l 1,20,-1
 -7 73 l 1,21,-1
 171 100 l 1,22,-1
 372 1242 l 1,23,-1
 204 1268 l 1,24,-1
 218 1341 l 1,25,-1
 804 1341 l 2,26,27
 1290 1341 1290 1341 1290 1048 c 0,28,29
 1290 907 1290 907 1201.5 822.5 c 128,-1,30
 1113 738 1113 738 953 716 c 1,31,32
 1105 703 1105 703 1191.5 619.5 c 128,-1,33
 1278 536 1278 536 1278 404 c 0,34,35
 1278 195 1278 195 1120.5 94.5 c 128,-1,36
 963 -6 963 -6 648 -6 c 1,18,-1
EndSplineSet
EndChar

StartChar: C
Encoding: 67 67 38
Width: 1366
GlyphClass: 2
Flags: W
AnchorPoint: "bottom" 691 -19 basechar 0
AnchorPoint: "top" 909 1361 basechar 0
LayerCount: 2
Fore
SplineSet
670 -20 m 0,0,1
 385 -20 385 -20 227.5 127.5 c 128,-1,2
 70 275 70 275 70 531 c 0,3,4
 70 777 70 777 174 964.5 c 128,-1,5
 278 1152 278 1152 471 1254 c 128,-1,6
 664 1356 664 1356 912 1356 c 0,7,8
 1138 1356 1138 1356 1385 1304 c 1,9,-1
 1332 967 l 1,10,-1
 1248 967 l 1,11,-1
 1248 1161 l 1,12,13
 1194 1204 1194 1204 1117.5 1227.5 c 128,-1,14
 1041 1251 1041 1251 957 1251 c 0,15,16
 792 1251 792 1251 660.5 1159 c 128,-1,17
 529 1067 529 1067 456 899.5 c 128,-1,18
 383 732 383 732 383 522 c 0,19,20
 383 315 383 315 475 199 c 128,-1,21
 567 83 567 83 734 83 c 0,22,23
 832 83 832 83 931 111.5 c 128,-1,24
 1030 140 1030 140 1091 184 c 1,25,-1
 1168 404 l 1,26,-1
 1253 404 l 1,27,-1
 1187 64 l 1,28,29
 1074 27 1074 27 937 3.5 c 128,-1,30
 800 -20 800 -20 670 -20 c 0,0,1
EndSplineSet
EndChar

StartChar: D
Encoding: 68 68 39
Width: 1479
GlyphClass: 2
Flags: W
AnchorPoint: "bottom" 517 -5 basechar 0
AnchorPoint: "top" 787 1343 basechar 0
LayerCount: 2
Fore
SplineSet
1120 774 m 0,0,1
 1120 1231 1120 1231 705 1231 c 2,2,-1
 668 1231 l 1,3,-1
 471 114 l 1,4,5
 556 106 556 106 595 106 c 0,6,7
 839 106 839 106 979.5 285 c 128,-1,8
 1120 464 1120 464 1120 774 c 0,0,1
742 1341 m 2,9,10
 1079 1341 1079 1341 1255 1197.5 c 128,-1,11
 1431 1054 1431 1054 1431 788 c 0,12,13
 1431 549 1431 549 1329.5 368.5 c 128,-1,14
 1228 188 1228 188 1038.5 92 c 128,-1,15
 849 -4 849 -4 599 -4 c 1,16,-1
 180 0 l 1,17,-1
 -15 0 l 1,18,-1
 -3 73 l 1,19,-1
 174 100 l 1,20,-1
 375 1242 l 1,21,-1
 208 1268 l 1,22,-1
 221 1341 l 1,23,-1
 742 1341 l 2,9,10
EndSplineSet
EndChar

StartChar: E
Encoding: 69 69 40
Width: 1366
GlyphClass: 2
Flags: W
AnchorPoint: "bottom" 577 -2 basechar 0
AnchorPoint: "top" 763 1338 basechar 0
LayerCount: 2
Fore
SplineSet
375 1242 m 1,0,-1
 208 1268 l 1,1,-1
 221 1341 l 1,2,-1
 1273 1341 l 1,3,-1
 1213 1000 l 1,4,-1
 1122 1000 l 1,5,-1
 1128 1217 l 1,6,7
 1019 1231 1019 1231 807 1231 c 2,8,-1
 669 1231 l 1,9,-1
 582 739 l 1,10,-1
 863 739 l 1,11,-1
 920 887 l 1,12,-1
 1009 887 l 1,13,-1
 936 475 l 1,14,-1
 847 475 l 1,15,-1
 843 627 l 1,16,-1
 562 627 l 1,17,-1
 471 110 l 1,18,-1
 654 110 l 2,19,20
 907 110 907 110 992 126 c 1,21,-1
 1095 374 l 1,22,-1
 1186 374 l 1,23,-1
 1102 0 l 1,24,-1
 -15 0 l 1,25,-1
 -3 73 l 1,26,-1
 174 100 l 1,27,-1
 375 1242 l 1,0,-1
EndSplineSet
EndChar

StartChar: F
Encoding: 70 70 41
Width: 1366
GlyphClass: 2
Flags: W
AnchorPoint: "bottom" 647 -13 basechar 0
AnchorPoint: "top" 807 1342 basechar 0
LayerCount: 2
Fore
SplineSet
556 592 m 1,0,-1
 469 100 l 1,1,-1
 687 73 l 1,2,-1
 675 0 l 1,3,-1
 -2 0 l 1,4,-1
 10 73 l 1,5,-1
 174 100 l 1,6,-1
 375 1242 l 1,7,-1
 208 1268 l 1,8,-1
 221 1341 l 1,9,-1
 1332 1341 l 1,10,-1
 1268 980 l 1,11,-1
 1174 980 l 1,12,-1
 1184 1217 l 1,13,14
 1135 1224 1135 1224 1007.5 1227.5 c 128,-1,15
 880 1231 880 1231 807 1231 c 2,16,-1
 669 1231 l 1,17,-1
 576 702 l 1,18,-1
 939 702 l 1,19,-1
 1000 872 l 1,20,-1
 1089 872 l 1,21,-1
 1009 420 l 1,22,-1
 920 420 l 1,23,-1
 919 592 l 1,24,-1
 556 592 l 1,0,-1
EndSplineSet
EndChar

StartChar: G
Encoding: 71 71 42
Width: 1479
GlyphClass: 2
Flags: W
AnchorPoint: "bottom" 684 -19 basechar 0
AnchorPoint: "top" 893 1361 basechar 0
LayerCount: 2
Fore
SplineSet
70 523 m 0,0,1
 70 774 70 774 176.5 963 c 128,-1,2
 283 1152 283 1152 478 1254 c 128,-1,3
 673 1356 673 1356 924 1356 c 0,4,5
 1170 1356 1170 1356 1399 1294 c 1,6,-1
 1344 986 l 1,7,-1
 1260 986 l 1,8,-1
 1261 1160 l 1,9,10
 1141 1251 1141 1251 941 1251 c 0,11,12
 782 1251 782 1251 653 1157.5 c 128,-1,13
 524 1064 524 1064 452.5 893.5 c 128,-1,14
 381 723 381 723 381 503 c 0,15,16
 381 305 381 305 466.5 194 c 128,-1,17
 552 83 552 83 708 83 c 0,18,19
 838 83 838 83 945 126 c 1,20,-1
 1013 506 l 1,21,-1
 846 538 l 1,22,-1
 858 606 l 1,23,-1
 1456 606 l 1,24,-1
 1444 538 l 1,25,-1
 1308 506 l 1,26,-1
 1231 70 l 1,27,28
 1083 24 1083 24 949 2 c 128,-1,29
 815 -20 815 -20 662 -20 c 0,30,31
 381 -20 381 -20 225.5 124 c 128,-1,32
 70 268 70 268 70 523 c 0,0,1
EndSplineSet
EndChar

StartChar: H
Encoding: 72 72 43
Width: 1593
GlyphClass: 2
Flags: W
AnchorPoint: "bottom" 692 0 basechar 0
AnchorPoint: "top" 926 1340 basechar 0
LayerCount: 2
Fore
SplineSet
-15 0 m 1,0,-1
 -2 74 l 1,1,-1
 174 100 l 1,2,-1
 375 1241 l 1,3,-1
 208 1268 l 1,4,-1
 221 1341 l 1,5,-1
 860 1341 l 1,6,-1
 847 1268 l 1,7,-1
 670 1241 l 1,8,-1
 583 745 l 1,9,-1
 1071 745 l 1,10,-1
 1158 1241 l 1,11,-1
 991 1268 l 1,12,-1
 1004 1341 l 1,13,-1
 1645 1341 l 1,14,-1
 1632 1268 l 1,15,-1
 1454 1241 l 1,16,-1
 1253 100 l 1,17,-1
 1421 74 l 1,18,-1
 1408 0 l 1,19,-1
 767 0 l 1,20,-1
 780 74 l 1,21,-1
 957 100 l 1,22,-1
 1051 635 l 1,23,-1
 563 635 l 1,24,-1
 469 100 l 1,25,-1
 636 74 l 1,26,-1
 623 0 l 1,27,-1
 -15 0 l 1,0,-1
EndSplineSet
EndChar

StartChar: I
Encoding: 73 73 44
Width: 797
GlyphClass: 2
Flags: W
AnchorPoint: "bottom" 300 -4 basechar 0
AnchorPoint: "top" 536 1340 basechar 0
LayerCount: 2
Fore
SplineSet
464 100 m 1,0,-1
 631 74 l 1,1,-1
 618 0 l 1,2,-1
 -20 0 l 1,3,-1
 -7 74 l 1,4,-1
 169 100 l 1,5,-1
 370 1241 l 1,6,-1
 203 1268 l 1,7,-1
 216 1341 l 1,8,-1
 855 1341 l 1,9,-1
 842 1268 l 1,10,-1
 665 1241 l 1,11,-1
 464 100 l 1,0,-1
EndSplineSet
EndChar

StartChar: J
Encoding: 74 74 45
Width: 1024
GlyphClass: 2
Flags: W
AnchorPoint: "bottom" 338 -19 basechar 0
AnchorPoint: "top" 769 1341 basechar 0
LayerCount: 2
Fore
SplineSet
613 1242 m 1,0,-1
 446 1268 l 1,1,-1
 459 1341 l 1,2,-1
 1078 1341 l 1,3,-1
 1065 1268 l 1,4,-1
 908 1242 l 1,5,-1
 766 432 l 2,6,7
 728 216 728 216 594.5 98 c 128,-1,8
 461 -20 461 -20 244 -20 c 0,9,10
 92 -20 92 -20 -4 10 c 1,11,-1
 50 314 l 1,12,-1
 133 314 l 1,13,-1
 137 135 l 1,14,15
 169 86 169 86 250 86 c 0,16,17
 324 86 324 86 376 137 c 128,-1,18
 428 188 428 188 443 276 c 2,19,-1
 613 1242 l 1,0,-1
EndSplineSet
EndChar

StartChar: K
Encoding: 75 75 46
Width: 1366
GlyphClass: 2
Flags: W
AnchorPoint: "bottom" 647 3 basechar 0
AnchorPoint: "top" 855 1341 basechar 0
LayerCount: 2
Fore
SplineSet
469 100 m 1,0,-1
 647 73 l 1,1,-1
 635 0 l 1,2,-1
 -15 0 l 1,3,-1
 -3 73 l 1,4,-1
 174 100 l 1,5,-1
 375 1242 l 1,6,-1
 208 1268 l 1,7,-1
 221 1341 l 1,8,-1
 850 1341 l 1,9,-1
 837 1268 l 1,10,-1
 670 1242 l 1,11,-1
 579 718 l 1,12,-1
 1155 1242 l 1,13,-1
 1042 1268 l 1,14,-1
 1055 1341 l 1,15,-1
 1480 1341 l 1,16,-1
 1467 1268 l 1,17,-1
 1328 1242 l 1,18,-1
 855 813 l 1,19,-1
 1208 100 l 1,20,-1
 1342 73 l 1,21,-1
 1330 0 l 1,22,-1
 944 0 l 1,23,-1
 648 636 l 1,24,-1
 555 591 l 1,25,-1
 469 100 l 1,0,-1
EndSplineSet
EndChar

StartChar: L
Encoding: 76 76 47
Width: 1251
GlyphClass: 2
Flags: W
AnchorPoint: "bottom" 571 1 basechar 0
AnchorPoint: "top" 801 1339 basechar 0
LayerCount: 2
Fore
SplineSet
470 106 m 1,0,-1
 583 106 l 2,1,2
 679 106 679 106 799.5 112.5 c 128,-1,3
 920 119 920 119 958 126 c 1,4,-1
 1075 405 l 1,5,-1
 1159 405 l 1,6,-1
 1070 0 l 1,7,-1
 -15 0 l 1,8,-1
 -3 73 l 1,9,-1
 174 100 l 1,10,-1
 375 1242 l 1,11,-1
 209 1268 l 1,12,-1
 222 1341 l 1,13,-1
 885 1341 l 1,14,-1
 872 1268 l 1,15,-1
 670 1242 l 1,16,-1
 470 106 l 1,0,-1
EndSplineSet
EndChar

StartChar: M
Encoding: 77 77 48
Width: 1821
GlyphClass: 2
Flags: W
AnchorPoint: "bottom" 720 -1 basechar 0
AnchorPoint: "top" 975 1335 basechar 0
LayerCount: 2
Fore
SplineSet
740 0 m 1,0,-1
 695 0 l 1,1,-1
 474 1158 l 1,2,-1
 287 100 l 1,3,-1
 462 73 l 1,4,-1
 450 0 l 1,5,-1
 -27 0 l 1,6,-1
 -15 73 l 1,7,-1
 162 100 l 1,8,-1
 363 1242 l 1,9,-1
 196 1268 l 1,10,-1
 209 1341 l 1,11,-1
 702 1341 l 1,12,-1
 867 467 l 1,13,-1
 1343 1341 l 1,14,-1
 1878 1341 l 1,15,-1
 1865 1268 l 1,16,-1
 1688 1242 l 1,17,-1
 1487 100 l 1,18,-1
 1654 73 l 1,19,-1
 1642 0 l 1,20,-1
 985 0 l 1,21,-1
 997 73 l 1,22,-1
 1192 100 l 1,23,-1
 1379 1158 l 1,24,-1
 740 0 l 1,0,-1
EndSplineSet
EndChar

StartChar: N
Encoding: 78 78 49
Width: 1479
GlyphClass: 2
Flags: W
AnchorPoint: "bottom" 589 -1 basechar 0
AnchorPoint: "top" 843 1342 basechar 0
LayerCount: 2
Fore
SplineSet
1225 1242 m 1,0,-1
 1050 1268 l 1,1,-1
 1063 1341 l 1,2,-1
 1540 1341 l 1,3,-1
 1527 1268 l 1,4,-1
 1350 1242 l 1,5,-1
 1132 0 l 1,6,-1
 1017 0 l 1,7,-1
 476 1112 l 1,8,-1
 295 100 l 1,9,-1
 470 73 l 1,10,-1
 458 0 l 1,11,-1
 -19 0 l 1,12,-1
 -7 73 l 1,13,-1
 170 100 l 1,14,-1
 371 1242 l 1,15,-1
 204 1268 l 1,16,-1
 217 1341 l 1,17,-1
 650 1341 l 1,18,-1
 1085 447 l 1,19,-1
 1225 1242 l 1,0,-1
EndSplineSet
EndChar

StartChar: O
Encoding: 79 79 50
Width: 1479
GlyphClass: 2
Flags: W
AnchorPoint: "bottom" 632 -22 basechar 0
AnchorPoint: "top" 866 1352 basechar 0
LayerCount: 2
Fore
SplineSet
1120 843 m 256,0,1
 1120 1033 1120 1033 1044 1142 c 128,-1,2
 968 1251 968 1251 832 1251 c 0,3,4
 710 1251 710 1251 607.5 1151 c 128,-1,5
 505 1051 505 1051 440 861.5 c 128,-1,6
 375 672 375 672 375 485 c 0,7,8
 375 297 375 297 449 190 c 128,-1,9
 523 83 523 83 657 83 c 0,10,11
 782 83 782 83 885 182 c 128,-1,12
 988 281 988 281 1054 467 c 128,-1,13
 1120 653 1120 653 1120 843 c 256,0,1
639 -20 m 0,14,15
 473 -20 473 -20 344.5 48.5 c 128,-1,16
 216 117 216 117 145 241.5 c 128,-1,17
 74 366 74 366 74 524 c 0,18,19
 74 766 74 766 172 957.5 c 128,-1,20
 270 1149 270 1149 447.5 1252.5 c 128,-1,21
 625 1356 625 1356 856 1356 c 0,22,23
 1022 1356 1022 1356 1150.5 1287.5 c 128,-1,24
 1279 1219 1279 1219 1350 1094.5 c 128,-1,25
 1421 970 1421 970 1421 812 c 0,26,27
 1421 572 1421 572 1320.5 375.5 c 128,-1,28
 1220 179 1220 179 1045.5 79.5 c 128,-1,29
 871 -20 871 -20 639 -20 c 0,14,15
EndSplineSet
EndChar

StartChar: P
Encoding: 80 80 51
Width: 1251
GlyphClass: 2
Flags: W
AnchorPoint: "bottom" 595 -5 basechar 0
AnchorPoint: "top" 761 1344 basechar 0
LayerCount: 2
Fore
SplineSet
643 636 m 2,0,1
 796 636 796 636 883.5 728.5 c 128,-1,2
 971 821 971 821 971 980 c 0,3,4
 971 1100 971 1100 912.5 1165 c 128,-1,5
 854 1230 854 1230 738 1230 c 2,6,-1
 669 1230 l 1,7,-1
 564 636 l 1,8,-1
 643 636 l 2,0,1
544 526 m 1,9,-1
 468 100 l 1,10,-1
 687 73 l 1,11,-1
 676 0 l 1,12,-1
 -1 0 l 1,13,-1
 10 73 l 1,14,-1
 172 100 l 1,15,-1
 374 1242 l 1,16,-1
 206 1268 l 1,17,-1
 218 1341 l 1,18,-1
 749 1341 l 2,19,20
 1003 1341 1003 1341 1133.5 1251 c 128,-1,21
 1264 1161 1264 1161 1264 983 c 0,22,23
 1264 766 1264 766 1115 646 c 128,-1,24
 966 526 966 526 687 526 c 2,25,-1
 544 526 l 1,9,-1
EndSplineSet
EndChar

StartChar: Q
Encoding: 81 81 52
Width: 1479
GlyphClass: 2
Flags: W
AnchorPoint: "bottom" 804 -319 basechar 0
AnchorPoint: "top" 833 1355 basechar 0
LayerCount: 2
Fore
SplineSet
1421 812 m 0,0,1
 1421 627 1421 627 1360 464.5 c 128,-1,2
 1299 302 1299 302 1183.5 186.5 c 128,-1,3
 1068 71 1068 71 910 20 c 1,4,-1
 942 -29 l 1,5,6
 1058 -213 1058 -213 1166 -213 c 0,7,8
 1187 -213 1187 -213 1255 -205 c 1,9,-1
 1268 -283 l 1,10,11
 1224 -301 1224 -301 1141.5 -316.5 c 128,-1,12
 1059 -332 1059 -332 1007 -332 c 0,13,14
 919 -332 919 -332 856 -307.5 c 128,-1,15
 793 -283 793 -283 740 -229.5 c 128,-1,16
 687 -176 687 -176 593 -18 c 1,17,18
 439 -9 439 -9 320.5 62 c 128,-1,19
 202 133 202 133 138 254.5 c 128,-1,20
 74 376 74 376 74 524 c 0,21,22
 74 766 74 766 172 957.5 c 128,-1,23
 270 1149 270 1149 447.5 1252.5 c 128,-1,24
 625 1356 625 1356 856 1356 c 0,25,26
 1022 1356 1022 1356 1150.5 1287.5 c 128,-1,27
 1279 1219 1279 1219 1350 1094.5 c 128,-1,28
 1421 970 1421 970 1421 812 c 0,0,1
1120 843 m 256,29,30
 1120 1033 1120 1033 1044 1142 c 128,-1,31
 968 1251 968 1251 832 1251 c 0,32,33
 710 1251 710 1251 607.5 1151 c 128,-1,34
 505 1051 505 1051 440 861.5 c 128,-1,35
 375 672 375 672 375 485 c 0,36,37
 375 297 375 297 449 190 c 128,-1,38
 523 83 523 83 657 83 c 0,39,40
 782 83 782 83 885 182 c 128,-1,41
 988 281 988 281 1054 467 c 128,-1,42
 1120 653 1120 653 1120 843 c 256,29,30
EndSplineSet
EndChar

StartChar: R
Encoding: 82 82 53
Width: 1366
GlyphClass: 2
Flags: W
AnchorPoint: "bottom" 626 2 basechar 0
AnchorPoint: "top" 723 1338 basechar 0
LayerCount: 2
Fore
SplineSet
552 568 m 1,0,-1
 469 100 l 1,1,-1
 636 73 l 1,2,-1
 624 0 l 1,3,-1
 -3 0 l 1,4,-1
 9 73 l 1,5,-1
 173 100 l 1,6,-1
 374 1242 l 1,7,-1
 207 1268 l 1,8,-1
 220 1341 l 1,9,-1
 755 1341 l 2,10,11
 1017 1341 1017 1341 1143 1258 c 128,-1,12
 1269 1175 1269 1175 1269 1003 c 0,13,14
 1269 847 1269 847 1184.5 743 c 128,-1,15
 1100 639 1100 639 940 596 c 1,16,-1
 1141 100 l 1,17,-1
 1288 73 l 1,18,-1
 1276 0 l 1,19,-1
 876 0 l 1,20,-1
 668 568 l 1,21,-1
 552 568 l 1,0,-1
626 678 m 2,22,23
 790 678 790 678 883 759.5 c 128,-1,24
 976 841 976 841 976 987 c 0,25,26
 976 1117 976 1117 915.5 1174 c 128,-1,27
 855 1231 855 1231 738 1231 c 2,28,-1
 669 1231 l 1,29,-1
 571 678 l 1,30,-1
 626 678 l 2,22,23
EndSplineSet
EndChar

StartChar: S
Encoding: 83 83 54
Width: 1139
GlyphClass: 2
Flags: W
AnchorPoint: "bottom" 414 -18 basechar 0
AnchorPoint: "top" 693 1354 basechar 0
LayerCount: 2
Fore
SplineSet
432 -20 m 0,0,1
 215 -20 215 -20 37 51 c 1,2,-1
 101 411 l 1,3,-1
 189 411 l 1,4,-1
 190 196 l 1,5,6
 224 147 224 147 296 114 c 128,-1,7
 368 81 368 81 449 81 c 0,8,9
 595 81 595 81 674 142 c 128,-1,10
 753 203 753 203 753 311 c 0,11,12
 753 365 753 365 729 405 c 128,-1,13
 705 445 705 445 665.5 477.5 c 128,-1,14
 626 510 626 510 576 538.5 c 128,-1,15
 526 567 526 567 473.5 596.5 c 128,-1,16
 421 626 421 626 371 660.5 c 128,-1,17
 321 695 321 695 281.5 740 c 128,-1,18
 242 785 242 785 218 843 c 128,-1,19
 194 901 194 901 194 979 c 0,20,21
 194 1163 194 1163 327.5 1259.5 c 128,-1,22
 461 1356 461 1356 717 1356 c 0,23,24
 888 1356 888 1356 1053 1313 c 1,25,-1
 997 994 l 1,26,-1
 908 994 l 1,27,-1
 901 1190 l 1,28,29
 820 1252 820 1252 690 1252 c 0,30,31
 577 1252 577 1252 512.5 1203 c 128,-1,32
 448 1154 448 1154 448 1069 c 0,33,34
 448 1009 448 1009 491.5 958.5 c 128,-1,35
 535 908 535 908 627 857 c 0,36,37
 761 782 761 782 820.5 742.5 c 128,-1,38
 880 703 880 703 921 658 c 128,-1,39
 962 613 962 613 986.5 556 c 128,-1,40
 1011 499 1011 499 1011 423 c 0,41,42
 1011 207 1011 207 862.5 93.5 c 128,-1,43
 714 -20 714 -20 432 -20 c 0,0,1
EndSplineSet
EndChar

StartChar: T
Encoding: 84 84 55
Width: 1251
GlyphClass: 2
Flags: W
AnchorPoint: "bottom" 532 2 basechar 0
AnchorPoint: "top" 760 1342 basechar 0
LayerCount: 2
Fore
SplineSet
167 0 m 1,0,-1
 179 73 l 1,1,-1
 397 100 l 1,2,-1
 597 1235 l 1,3,-1
 536 1235 l 2,4,5
 480 1235 480 1235 410.5 1228 c 128,-1,6
 341 1221 341 1221 311 1215 c 1,7,-1
 236 966 l 1,8,-1
 149 966 l 1,9,-1
 215 1341 l 1,10,-1
 1318 1341 l 1,11,-1
 1252 966 l 1,12,-1
 1164 966 l 1,13,-1
 1177 1215 l 1,14,15
 1149 1221 1149 1221 1074.5 1227 c 128,-1,16
 1000 1233 1000 1233 952 1233 c 2,17,-1
 893 1233 l 1,18,-1
 693 100 l 1,19,-1
 901 73 l 1,20,-1
 889 0 l 1,21,-1
 167 0 l 1,0,-1
EndSplineSet
EndChar

StartChar: U
Encoding: 85 85 56
Width: 1479
GlyphClass: 2
Flags: W
AnchorPoint: "bottom" 664 -19 basechar 0
AnchorPoint: "top" 859 1339 basechar 0
LayerCount: 2
Fore
SplineSet
167 1268 m 1,0,-1
 180 1341 l 1,1,-1
 799 1341 l 1,2,-1
 786 1268 l 1,3,-1
 609 1242 l 1,4,-1
 496 586 l 2,5,6
 473 456 473 456 473 389 c 0,7,8
 473 122 473 122 740 122 c 0,9,10
 901 122 901 122 1003.5 209 c 128,-1,11
 1106 296 1106 296 1136 463 c 2,12,-1
 1273 1242 l 1,13,-1
 1098 1268 l 1,14,-1
 1111 1341 l 1,15,-1
 1567 1341 l 1,16,-1
 1554 1268 l 1,17,-1
 1397 1242 l 1,18,-1
 1262 471 l 2,19,20
 1217 218 1217 218 1074.5 99.5 c 128,-1,21
 932 -19 932 -19 689 -19 c 0,22,23
 445 -19 445 -19 312.5 89.5 c 128,-1,24
 180 198 180 198 180 399 c 0,25,26
 180 463 180 463 200 583 c 2,27,-1
 314 1242 l 1,28,-1
 167 1268 l 1,0,-1
EndSplineSet
EndChar

StartChar: V
Encoding: 86 86 57
Width: 1366
GlyphClass: 2
Flags: W
AnchorPoint: "bottom" 584 -33 basechar 0
AnchorPoint: "top" 787 1335 basechar 0
LayerCount: 2
Fore
SplineSet
1505 1341 m 1,0,-1
 1493 1268 l 1,1,-1
 1361 1241 l 1,2,-1
 639 -31 l 1,3,-1
 526 -31 l 1,4,-1
 225 1241 l 1,5,-1
 120 1268 l 1,6,-1
 132 1341 l 1,7,-1
 679 1341 l 1,8,-1
 667 1268 l 1,9,-1
 523 1241 l 1,10,-1
 725 362 l 1,11,-1
 1212 1241 l 1,12,-1
 1082 1268 l 1,13,-1
 1094 1341 l 1,14,-1
 1505 1341 l 1,0,-1
EndSplineSet
EndChar

StartChar: W
Encoding: 87 87 58
Width: 1821
GlyphClass: 2
Flags: W
AnchorPoint: "bottom" 822 -27 basechar 0
AnchorPoint: "top" 1083 1344 basechar 0
LayerCount: 2
Fore
SplineSet
1214 -31 m 1,0,-1
 1120 -31 l 1,1,-1
 962 817 l 1,2,-1
 560 -31 l 1,3,-1
 459 -31 l 1,4,-1
 271 1242 l 1,5,-1
 141 1268 l 1,6,-1
 154 1341 l 1,7,-1
 718 1341 l 1,8,-1
 705 1268 l 1,9,-1
 543 1242 l 1,10,-1
 649 428 l 1,11,-1
 1046 1257 l 1,12,-1
 1146 1257 l 1,13,-1
 1298 423 l 1,14,-1
 1660 1242 l 1,15,-1
 1496 1268 l 1,16,-1
 1509 1341 l 1,17,-1
 1941 1341 l 1,18,-1
 1928 1268 l 1,19,-1
 1806 1242 l 1,20,-1
 1214 -31 l 1,0,-1
EndSplineSet
EndChar

StartChar: X
Encoding: 88 88 59
Width: 1366
GlyphClass: 2
Flags: W
AnchorPoint: "bottom" 572 1 basechar 0
AnchorPoint: "top" 813 1341 basechar 0
LayerCount: 2
Fore
SplineSet
257 100 m 1,0,-1
 408 73 l 1,1,-1
 396 0 l 1,2,-1
 -52 0 l 1,3,-1
 -40 73 l 1,4,-1
 113 100 l 1,5,-1
 574 635 l 1,6,-1
 336 1242 l 1,7,-1
 190 1268 l 1,8,-1
 203 1341 l 1,9,-1
 816 1341 l 1,10,-1
 803 1268 l 1,11,-1
 638 1242 l 1,12,-1
 781 875 l 1,13,-1
 1097 1242 l 1,14,-1
 946 1268 l 1,15,-1
 959 1341 l 1,16,-1
 1408 1341 l 1,17,-1
 1395 1268 l 1,18,-1
 1242 1242 l 1,19,-1
 826 760 l 1,20,-1
 1085 100 l 1,21,-1
 1232 73 l 1,22,-1
 1220 0 l 1,23,-1
 607 0 l 1,24,-1
 619 73 l 1,25,-1
 784 100 l 1,26,-1
 619 520 l 1,27,-1
 257 100 l 1,0,-1
EndSplineSet
EndChar

StartChar: Y
Encoding: 89 89 60
Width: 1251
GlyphClass: 2
Flags: W
AnchorPoint: "bottom" 549 -1 basechar 0
AnchorPoint: "top" 749 1339 basechar 0
LayerCount: 2
Fore
SplineSet
702 100 m 1,0,-1
 910 73 l 1,1,-1
 898 0 l 1,2,-1
 176 0 l 1,3,-1
 188 73 l 1,4,-1
 406 100 l 1,5,-1
 485 542 l 1,6,-1
 251 1242 l 1,7,-1
 105 1268 l 1,8,-1
 118 1341 l 1,9,-1
 754 1341 l 1,10,-1
 741 1268 l 1,11,-1
 556 1242 l 1,12,-1
 734 686 l 1,13,-1
 1098 1242 l 1,14,-1
 939 1268 l 1,15,-1
 952 1341 l 1,16,-1
 1408 1341 l 1,17,-1
 1395 1268 l 1,18,-1
 1248 1242 l 1,19,-1
 782 548 l 1,20,-1
 702 100 l 1,0,-1
EndSplineSet
EndChar

StartChar: Z
Encoding: 90 90 61
Width: 1251
GlyphClass: 2
Flags: W
AnchorPoint: "bottom" 524 3 basechar 0
AnchorPoint: "top" 720 1343 basechar 0
LayerCount: 2
Fore
SplineSet
841 1235 m 1,0,-1
 649 1235 l 2,1,2
 550 1235 550 1235 469 1228.5 c 128,-1,3
 388 1222 388 1222 356 1215 c 1,4,-1
 288 1004 l 1,5,-1
 199 1004 l 1,6,-1
 258 1341 l 1,7,-1
 1199 1341 l 1,8,-1
 1180 1235 l 1,9,-1
 357 104 l 1,10,-1
 544 104 l 2,11,12
 653 104 653 104 771.5 115.5 c 128,-1,13
 890 127 890 127 934 137 c 1,14,-1
 1038 393 l 1,15,-1
 1128 393 l 1,16,-1
 1032 0 l 1,17,-1
 -5 0 l 1,18,-1
 15 114 l 1,19,-1
 841 1235 l 1,0,-1
EndSplineSet
EndChar

StartChar: bracketleft
Encoding: 91 91 62
Width: 682
GlyphClass: 2
Flags: W
LayerCount: 2
Fore
SplineSet
51 -274 m 1,0,-1
 350 1421 l 1,1,-1
 786 1421 l 1,2,-1
 774 1354 l 1,3,-1
 564 1313 l 1,4,-1
 303 -166 l 1,5,-1
 499 -207 l 1,6,-1
 487 -274 l 1,7,-1
 51 -274 l 1,0,-1
EndSplineSet
Validated: 1
EndChar

StartChar: backslash
Encoding: 92 92 63
Width: 569
GlyphClass: 2
Flags: W
LayerCount: 2
Fore
SplineSet
339 -20 m 1,0,-1
 130 1349 l 1,1,-1
 257 1349 l 1,2,-1
 469 -20 l 1,3,-1
 339 -20 l 1,0,-1
EndSplineSet
Validated: 1
EndChar

StartChar: bracketright
Encoding: 93 93 64
Width: 682
GlyphClass: 2
Flags: W
LayerCount: 2
Fore
SplineSet
-106 -274 m 1,0,-1
 -94 -207 l 1,1,-1
 116 -166 l 1,2,-1
 377 1313 l 1,3,-1
 181 1354 l 1,4,-1
 193 1421 l 1,5,-1
 629 1421 l 1,6,-1
 330 -274 l 1,7,-1
 -106 -274 l 1,0,-1
EndSplineSet
Validated: 1
EndChar

StartChar: asciicircum
Encoding: 94 94 65
Width: 1167
GlyphClass: 2
Flags: W
LayerCount: 2
Fore
SplineSet
934 389 m 1,0,-1
 604 1150 l 1,1,-1
 274 389 l 1,2,-1
 131 389 l 1,3,-1
 559 1341 l 1,4,-1
 649 1341 l 1,5,-1
 1077 389 l 1,6,-1
 934 389 l 1,0,-1
EndSplineSet
Validated: 1
EndChar

StartChar: underscore
Encoding: 95 95 66
Width: 1024
GlyphClass: 2
Flags: W
LayerCount: 2
Fore
SplineSet
-153 -285 m 1,0,-1
 -153 -141 l 1,1,-1
 903 -141 l 1,2,-1
 903 -285 l 1,3,-1
 -153 -285 l 1,0,-1
EndSplineSet
Validated: 1
EndChar

StartChar: grave
Encoding: 96 96 67
Width: 682
GlyphClass: 2
Flags: W
LayerCount: 2
Fore
SplineSet
547 1118 m 1,0,-1
 230 1386 l 1,1,-1
 237 1423 l 1,2,-1
 502 1423 l 1,3,-1
 639 1150 l 1,4,-1
 633 1118 l 1,5,-1
 547 1118 l 1,0,-1
EndSplineSet
Validated: 1
EndChar

StartChar: a
Encoding: 97 97 68
Width: 1024
GlyphClass: 2
Flags: W
AnchorPoint: "top" 606 967 basechar 0
AnchorPoint: "bottom" 400 -34 basechar 0
LayerCount: 2
Fore
SplineSet
823 90 m 1,0,-1
 932 58 l 1,1,-1
 924 0 l 1,2,-1
 577 0 l 1,3,-1
 573 138 l 1,4,5
 514 64 514 64 439.5 21.5 c 128,-1,6
 365 -21 365 -21 288 -21 c 0,7,8
 163 -21 163 -21 93.5 69 c 128,-1,9
 24 159 24 159 24 319 c 0,10,11
 24 494 24 494 97 643.5 c 128,-1,12
 170 793 170 793 300.5 878.5 c 128,-1,13
 431 964 431 964 588 964 c 0,14,15
 726 964 726 964 839 919 c 1,16,-1
 921 956 l 1,17,-1
 975 956 l 1,18,-1
 823 90 l 1,0,-1
287 351 m 0,19,20
 287 248 287 248 321.5 187.5 c 128,-1,21
 356 127 356 127 408 127 c 0,22,23
 448 127 448 127 497 167 c 128,-1,24
 546 207 546 207 585 266 c 1,25,-1
 684 829 l 1,26,27
 639 863 639 863 560 863 c 0,28,29
 486 863 486 863 423 792.5 c 128,-1,30
 360 722 360 722 323.5 601.5 c 128,-1,31
 287 481 287 481 287 351 c 0,19,20
EndSplineSet
EndChar

StartChar: b
Encoding: 98 98 69
Width: 1024
GlyphClass: 2
Flags: W
AnchorPoint: "bottom" 412 -22 basechar 0
AnchorPoint: "top" 616 1409 basechar 0
LayerCount: 2
Fore
SplineSet
700 587 m 0,0,1
 700 692 700 692 666.5 752.5 c 128,-1,2
 633 813 633 813 579 813 c 0,3,4
 543 813 543 813 495.5 774.5 c 128,-1,5
 448 736 448 736 405 674 c 1,6,-1
 308 124 l 1,7,8
 328 105 328 105 367 90.5 c 128,-1,9
 406 76 406 76 437 76 c 0,10,11
 506 76 506 76 567 148 c 128,-1,12
 628 220 628 220 664 340.5 c 128,-1,13
 700 461 700 461 700 587 c 0,0,1
449 -23 m 0,14,15
 340 -23 340 -23 226.5 -5 c 128,-1,16
 113 13 113 13 27 48 c 1,17,-1
 254 1333 l 1,18,-1
 162 1356 l 1,19,-1
 173 1421 l 1,20,-1
 538 1421 l 1,21,-1
 462 991 l 1,22,23
 443 874 443 874 420 797 c 1,24,25
 481 878 481 878 553.5 921.5 c 128,-1,26
 626 965 626 965 701 965 c 0,27,28
 821 965 821 965 892 875.5 c 128,-1,29
 963 786 963 786 963 631 c 0,30,31
 963 455 963 455 894.5 301.5 c 128,-1,32
 826 148 826 148 709.5 62.5 c 128,-1,33
 593 -23 593 -23 449 -23 c 0,14,15
EndSplineSet
EndChar

StartChar: c
Encoding: 99 99 70
Width: 909
GlyphClass: 2
Flags: W
AnchorPoint: "bottom" 348 -24 basechar 0
AnchorPoint: "top" 584 969 basechar 0
LayerCount: 2
Fore
SplineSet
391 -20 m 0,0,1
 219 -20 219 -20 124.5 73 c 128,-1,2
 30 166 30 166 30 330 c 0,3,4
 30 515 30 515 103.5 660 c 128,-1,5
 177 805 177 805 306 885 c 128,-1,6
 435 965 435 965 585 965 c 0,7,8
 657 965 657 965 741.5 951.5 c 128,-1,9
 826 938 826 938 879 920 c 1,10,-1
 830 632 l 1,11,-1
 758 632 l 1,12,-1
 744 803 l 1,13,14
 690 863 690 863 598 863 c 0,15,16
 519 863 519 863 448.5 792.5 c 128,-1,17
 378 722 378 722 338 601.5 c 128,-1,18
 298 481 298 481 298 340 c 0,19,20
 298 228 298 228 342 166 c 128,-1,21
 386 104 386 104 471 104 c 0,22,23
 546 104 546 104 607.5 131 c 128,-1,24
 669 158 669 158 726 198 c 1,25,-1
 770 135 l 1,26,27
 688 62 688 62 587.5 21 c 128,-1,28
 487 -20 487 -20 391 -20 c 0,0,1
EndSplineSet
EndChar

StartChar: d
Encoding: 100 100 71
Width: 1024
GlyphClass: 2
Flags: W
AnchorPoint: "bottom" 393 -15 basechar 0
AnchorPoint: "top" 599 1423 basechar 0
LayerCount: 2
Fore
SplineSet
276 -20 m 0,0,1
 162 -20 162 -20 93 68 c 128,-1,2
 24 156 24 156 24 310 c 0,3,4
 24 487 24 487 88.5 638 c 128,-1,5
 153 789 153 789 269.5 876.5 c 128,-1,6
 386 964 386 964 528 964 c 0,7,8
 637 964 637 964 702 936 c 1,9,-1
 705 966 l 1,10,-1
 716 1060 l 1,11,-1
 762 1332 l 1,12,-1
 602 1356 l 1,13,-1
 614 1421 l 1,14,-1
 1049 1421 l 1,15,-1
 812 85 l 1,16,-1
 911 60 l 1,17,-1
 899 0 l 1,18,-1
 567 0 l 1,19,-1
 560 144 l 1,20,21
 501 65 501 65 425 22.5 c 128,-1,22
 349 -20 349 -20 276 -20 c 0,0,1
287 354 m 0,23,24
 287 246 287 246 315.5 187 c 128,-1,25
 344 128 344 128 390 128 c 0,26,27
 428 128 428 128 481.5 168 c 128,-1,28
 535 208 535 208 577 267 c 1,29,-1
 674 817 l 1,30,31
 654 837 654 837 612.5 851 c 128,-1,32
 571 865 571 865 540 865 c 0,33,34
 472 865 472 865 413.5 794 c 128,-1,35
 355 723 355 723 321 602 c 128,-1,36
 287 481 287 481 287 354 c 0,23,24
EndSplineSet
EndChar

StartChar: e
Encoding: 101 101 72
Width: 909
GlyphClass: 2
Flags: W
AnchorPoint: "bottom" 380 -24 basechar 0
AnchorPoint: "top" 558 966 basechar 0
LayerCount: 2
Fore
SplineSet
864 760 m 0,0,1
 864 670 864 670 798 594 c 128,-1,2
 732 518 732 518 607.5 469 c 128,-1,3
 483 420 483 420 325 408 c 1,4,5
 320 388 320 388 320 340 c 0,6,7
 320 104 320 104 501 104 c 0,8,9
 575 104 575 104 638 132.5 c 128,-1,10
 701 161 701 161 756 198 c 1,11,-1
 800 135 l 1,12,13
 712 61 712 61 609 20.5 c 128,-1,14
 506 -20 506 -20 411 -20 c 0,15,16
 234 -20 234 -20 141 69 c 128,-1,17
 48 158 48 158 48 330 c 256,18,19
 48 502 48 502 121 649 c 128,-1,20
 194 796 194 796 314 880.5 c 128,-1,21
 434 965 434 965 563 965 c 0,22,23
 701 965 701 965 782.5 909.5 c 128,-1,24
 864 854 864 854 864 760 c 0,0,1
341 508 m 1,25,26
 463 521 463 521 541.5 596.5 c 128,-1,27
 620 672 620 672 620 773 c 0,28,29
 620 815 620 815 599.5 836 c 128,-1,30
 579 857 579 857 551 857 c 0,31,32
 482 857 482 857 422.5 755 c 128,-1,33
 363 653 363 653 341 508 c 1,25,26
EndSplineSet
EndChar

StartChar: f
Encoding: 102 102 73
Width: 682
GlyphClass: 2
Flags: W
AnchorPoint: "bottom" 165 -439 basechar 0
AnchorPoint: "top" 636 1442 basechar 0
LayerCount: 2
Fore
SplineSet
222 836 m 1,0,-1
 60 836 l 1,1,-1
 72 905 l 1,2,-1
 241 944 l 1,3,-1
 264 1066 l 2,4,5
 301 1264 301 1264 408 1353 c 128,-1,6
 515 1442 515 1442 693 1442 c 0,7,8
 784 1442 784 1442 852 1421 c 1,9,-1
 813 1199 l 1,10,-1
 749 1199 l 1,11,-1
 737 1311 l 1,12,13
 716 1332 716 1332 681 1332 c 0,14,15
 628 1332 628 1332 595 1278.5 c 128,-1,16
 562 1225 562 1225 538 1098 c 2,17,-1
 509 940 l 1,18,-1
 715 940 l 1,19,-1
 697 836 l 1,20,-1
 491 836 l 1,21,-1
 269 -436 l 1,22,-1
 0 -436 l 1,23,-1
 222 836 l 1,0,-1
EndSplineSet
EndChar

StartChar: g
Encoding: 103 103 74
Width: 1024
GlyphClass: 2
Flags: W
AnchorPoint: "bottom" 324 -441 basechar 0
AnchorPoint: "top" 591 965 basechar 0
LayerCount: 2
Fore
SplineSet
292 355 m 0,0,1
 292 249 292 249 324.5 189 c 128,-1,2
 357 129 357 129 407 129 c 0,3,4
 442 129 442 129 489.5 164 c 128,-1,5
 537 199 537 199 582 259 c 1,6,-1
 689 841 l 1,7,8
 630 866 630 866 560 866 c 0,9,10
 486 866 486 866 425 797 c 128,-1,11
 364 728 364 728 328 606 c 128,-1,12
 292 484 292 484 292 355 c 0,0,1
29 311 m 0,13,14
 29 490 29 490 97 643 c 128,-1,15
 165 796 165 796 284.5 880.5 c 128,-1,16
 404 965 404 965 555 965 c 0,17,18
 718 965 718 965 970 923 c 1,19,-1
 798 -35 l 2,20,21
 760 -242 760 -242 637 -339 c 128,-1,22
 514 -436 514 -436 294 -436 c 0,23,24
 201 -436 201 -436 108.5 -416 c 128,-1,25
 16 -396 16 -396 -38 -365 c 1,26,-1
 -16 -112 l 1,27,-1
 40 -112 l 1,28,-1
 76 -243 l 1,29,30
 112 -280 112 -280 169 -303.5 c 128,-1,31
 226 -327 226 -327 295 -327 c 0,32,33
 362 -327 362 -327 407 -302 c 128,-1,34
 452 -277 452 -277 479.5 -227.5 c 128,-1,35
 507 -178 507 -178 525 -75 c 1,36,37
 549 72 549 72 572 145 c 1,38,39
 511 66 511 66 435.5 21.5 c 128,-1,40
 360 -23 360 -23 288 -23 c 0,41,42
 171 -23 171 -23 100 67 c 128,-1,43
 29 157 29 157 29 311 c 0,13,14
EndSplineSet
EndChar

StartChar: h
Encoding: 104 104 75
Width: 1139
GlyphClass: 2
Flags: W
AnchorPoint: "bottom" 460 -2 basechar 0
AnchorPoint: "top" 629 1416 basechar 0
LayerCount: 2
Fore
SplineSet
436 769 m 1,0,1
 590 965 590 965 818 965 c 0,2,3
 915 965 915 965 974 911.5 c 128,-1,4
 1033 858 1033 858 1033 766 c 0,5,6
 1033 714 1033 714 1016 621 c 2,7,-1
 921 90 l 1,8,-1
 1037 66 l 1,9,-1
 1024 0 l 1,10,-1
 638 0 l 1,11,-1
 740 569 l 1,12,13
 762 685 762 685 762 725 c 0,14,15
 762 822 762 822 671 822 c 0,16,17
 608 822 608 822 529 752 c 128,-1,18
 450 682 450 682 412 594 c 1,19,-1
 306 0 l 1,20,-1
 40 0 l 1,21,-1
 274 1331 l 1,22,-1
 183 1355 l 1,23,-1
 194 1421 l 1,24,-1
 559 1421 l 1,25,-1
 475 958 l 1,26,-1
 443 798 l 1,27,-1
 436 769 l 1,0,1
EndSplineSet
EndChar

StartChar: i
Encoding: 105 105 76
Width: 569
GlyphClass: 2
Flags: W
AnchorPoint: "bottom" 232 -2 basechar 0
AnchorPoint: "top" 416 1424 basechar 0
LayerCount: 2
Fore
SplineSet
337 90 m 1,0,-1
 456 66 l 1,1,-1
 445 0 l 1,2,-1
 52 0 l 1,3,-1
 202 850 l 1,4,-1
 111 874 l 1,5,-1
 122 940 l 1,6,-1
 487 940 l 1,7,-1
 337 90 l 1,0,-1
253 1268 m 256,8,9
 253 1333 253 1333 298.5 1377 c 128,-1,10
 344 1421 344 1421 407 1421 c 0,11,12
 471 1421 471 1421 515.5 1376.5 c 128,-1,13
 560 1332 560 1332 560 1268 c 0,14,15
 560 1205 560 1205 516 1159.5 c 128,-1,16
 472 1114 472 1114 407 1114 c 0,17,18
 343 1114 343 1114 298 1158.5 c 128,-1,19
 253 1203 253 1203 253 1268 c 256,8,9
EndSplineSet
EndChar

StartChar: j
Encoding: 106 106 77
Width: 569
GlyphClass: 2
Flags: W
AnchorPoint: "bottom" 24 -426 basechar 0
AnchorPoint: "top" 421 1416 basechar 0
LayerCount: 2
Fore
SplineSet
-100 -436 m 0,0,1
 -189 -436 -189 -436 -268 -418 c 1,2,-1
 -229 -193 l 1,3,-1
 -166 -193 l 1,4,-1
 -142 -311 l 1,5,6
 -122 -326 -122 -326 -97 -326 c 0,7,8
 -45 -326 -45 -326 -6.5 -259 c 128,-1,9
 32 -192 32 -192 53 -71 c 2,10,-1
 214 840 l 1,11,-1
 54 874 l 1,12,-1
 65 940 l 1,13,-1
 500 940 l 1,14,-1
 328 -39 l 2,15,16
 293 -235 293 -235 185 -335.5 c 128,-1,17
 77 -436 77 -436 -100 -436 c 0,0,1
268 1268 m 256,18,19
 268 1333 268 1333 313.5 1377 c 128,-1,20
 359 1421 359 1421 422 1421 c 0,21,22
 486 1421 486 1421 530.5 1376.5 c 128,-1,23
 575 1332 575 1332 575 1268 c 0,24,25
 575 1205 575 1205 531 1159.5 c 128,-1,26
 487 1114 487 1114 422 1114 c 0,27,28
 358 1114 358 1114 313 1158.5 c 128,-1,29
 268 1203 268 1203 268 1268 c 256,18,19
EndSplineSet
EndChar

StartChar: k
Encoding: 107 107 78
Width: 1024
GlyphClass: 2
Flags: W
AnchorPoint: "bottom" 425 3 basechar 0
AnchorPoint: "top" 576 1420 basechar 0
LayerCount: 2
Fore
SplineSet
388 507 m 1,0,-1
 739 851 l 1,1,-1
 653 874 l 1,2,-1
 664 940 l 1,3,-1
 1008 940 l 1,4,-1
 997 874 l 1,5,-1
 905 852 l 1,6,-1
 662 628 l 1,7,-1
 884 90 l 1,8,-1
 964 66 l 1,9,-1
 953 0 l 1,10,-1
 639 0 l 1,11,-1
 473 453 l 1,12,-1
 365 383 l 1,13,-1
 297 0 l 1,14,-1
 28 0 l 1,15,-1
 263 1331 l 1,16,-1
 171 1355 l 1,17,-1
 183 1421 l 1,18,-1
 548 1421 l 1,19,-1
 388 507 l 1,0,-1
EndSplineSet
EndChar

StartChar: l
Encoding: 108 108 79
Width: 569
GlyphClass: 2
Flags: W
AnchorPoint: "bottom" 222 6 basechar 0
AnchorPoint: "top" 411 1422 basechar 0
LayerCount: 2
Fore
SplineSet
330 90 m 1,0,-1
 449 66 l 1,1,-1
 438 0 l 1,2,-1
 45 0 l 1,3,-1
 281 1331 l 1,4,-1
 190 1355 l 1,5,-1
 201 1421 l 1,6,-1
 566 1421 l 1,7,-1
 330 90 l 1,0,-1
EndSplineSet
EndChar

StartChar: m
Encoding: 109 109 80
Width: 1593
GlyphClass: 2
Flags: W
AnchorPoint: "bottom" 701 -1 basechar 0
AnchorPoint: "top" 903 960 basechar 0
LayerCount: 2
Fore
SplineSet
1220 725 m 0,0,1
 1220 822 1220 822 1148 822 c 0,2,3
 1113 822 1113 822 1065.5 782 c 128,-1,4
 1018 742 1018 742 980.5 680 c 128,-1,5
 943 618 943 618 933 563 c 2,6,-1
 834 0 l 1,7,-1
 567 0 l 1,8,-1
 669 569 l 1,9,10
 691 685 691 685 691 725 c 0,11,12
 691 822 691 822 617 822 c 0,13,14
 569 822 569 822 508 755.5 c 128,-1,15
 447 689 447 689 411 594 c 1,16,-1
 305 0 l 1,17,-1
 39 0 l 1,18,-1
 187 849 l 1,19,-1
 98 874 l 1,20,-1
 111 940 l 1,21,-1
 439 940 l 1,22,-1
 436 772 l 1,23,24
 508 870 508 870 589 917.5 c 128,-1,25
 670 965 670 965 770 965 c 0,26,27
 859 965 859 965 909.5 912.5 c 128,-1,28
 960 860 960 860 961 767 c 1,29,30
 1102 965 1102 965 1299 965 c 0,31,32
 1387 965 1387 965 1439 909.5 c 128,-1,33
 1491 854 1491 854 1491 754 c 0,34,35
 1491 717 1491 717 1474 622 c 2,36,-1
 1379 90 l 1,37,-1
 1495 66 l 1,38,-1
 1482 0 l 1,39,-1
 1096 0 l 1,40,-1
 1198 569 l 1,41,42
 1220 685 1220 685 1220 725 c 0,0,1
EndSplineSet
EndChar

StartChar: n
Encoding: 110 110 81
Width: 1139
GlyphClass: 2
Flags: W
AnchorPoint: "bottom" 477 6 basechar 0
AnchorPoint: "top" 639 963 basechar 0
LayerCount: 2
Fore
SplineSet
764 725 m 0,0,1
 764 822 764 822 673 822 c 0,2,3
 610 822 610 822 531 752 c 128,-1,4
 452 682 452 682 414 594 c 1,5,-1
 308 0 l 1,6,-1
 42 0 l 1,7,-1
 190 849 l 1,8,-1
 101 874 l 1,9,-1
 114 940 l 1,10,-1
 448 940 l 1,11,-1
 440 765 l 1,12,13
 595 965 595 965 820 965 c 0,14,15
 919 965 919 965 977 912 c 128,-1,16
 1035 859 1035 859 1035 763 c 0,17,18
 1035 711 1035 711 1010 580 c 1,19,-1
 923 90 l 1,20,-1
 1039 66 l 1,21,-1
 1026 0 l 1,22,-1
 640 0 l 1,23,-1
 742 569 l 1,24,25
 764 685 764 685 764 725 c 0,0,1
EndSplineSet
EndChar

StartChar: o
Encoding: 111 111 82
Width: 1024
GlyphClass: 2
Flags: W
AnchorPoint: "bottom" 407 -22 basechar 0
AnchorPoint: "top" 575 970 basechar 0
LayerCount: 2
Fore
SplineSet
683 625 m 0,0,1
 683 866 683 866 558 866 c 0,2,3
 495 866 495 866 433.5 790 c 128,-1,4
 372 714 372 714 334.5 586 c 128,-1,5
 297 458 297 458 297 319 c 0,6,7
 297 204 297 204 334 141.5 c 128,-1,8
 371 79 371 79 429 79 c 0,9,10
 493 79 493 79 553 153 c 128,-1,11
 613 227 613 227 648 353 c 128,-1,12
 683 479 683 479 683 625 c 0,0,1
406 -20 m 0,13,14
 236 -20 236 -20 134 87 c 128,-1,15
 32 194 32 194 32 374 c 0,16,17
 32 536 32 536 102 672 c 128,-1,18
 172 808 172 808 297.5 886.5 c 128,-1,19
 423 965 423 965 580 965 c 0,20,21
 750 965 750 965 852 858 c 128,-1,22
 954 751 954 751 954 571 c 0,23,24
 954 409 954 409 884 273 c 128,-1,25
 814 137 814 137 688.5 58.5 c 128,-1,26
 563 -20 563 -20 406 -20 c 0,13,14
EndSplineSet
EndChar

StartChar: p
Encoding: 112 112 83
Width: 1024
GlyphClass: 2
Flags: W
AnchorPoint: "bottom" 271 -441 basechar 0
AnchorPoint: "top" 558 967 basechar 0
LayerCount: 2
Fore
SplineSet
962 631 m 0,0,1
 962 453 962 453 897 303.5 c 128,-1,2
 832 154 832 154 714 67 c 128,-1,3
 596 -20 596 -20 449 -20 c 0,4,5
 363 -20 363 -20 294 13 c 1,6,-1
 292 -16 l 1,7,-1
 280 -111 l 1,8,-1
 242 -347 l 1,9,-1
 402 -371 l 1,10,-1
 390 -436 l 1,11,-1
 -146 -436 l 1,12,-1
 -134 -371 l 1,13,-1
 -30 -347 l 1,14,-1
 184 855 l 1,15,-1
 85 880 l 1,16,-1
 97 940 l 1,17,-1
 442 940 l 1,18,-1
 436 802 l 1,19,20
 561 965 561 965 703 965 c 0,21,22
 820 965 820 965 891 875 c 128,-1,23
 962 785 962 785 962 631 c 0,0,1
699 587 m 0,24,25
 699 692 699 692 668.5 752.5 c 128,-1,26
 638 813 638 813 588 813 c 0,27,28
 520 813 520 813 420 680 c 1,29,-1
 322 127 l 1,30,31
 346 103 346 103 379.5 91 c 128,-1,32
 413 79 413 79 438 79 c 0,33,34
 510 79 510 79 570.5 149.5 c 128,-1,35
 631 220 631 220 665 339.5 c 128,-1,36
 699 459 699 459 699 587 c 0,24,25
EndSplineSet
EndChar

StartChar: q
Encoding: 113 113 84
Width: 1024
GlyphClass: 2
Flags: W
AnchorPoint: "bottom" 395 -432 basechar 0
AnchorPoint: "top" 558 969 basechar 0
LayerCount: 2
Fore
SplineSet
289 355 m 0,0,1
 289 249 289 249 321.5 189 c 128,-1,2
 354 129 354 129 403 129 c 0,3,4
 437 129 437 129 489.5 168.5 c 128,-1,5
 542 208 542 208 586 268 c 1,6,-1
 691 841 l 1,7,8
 632 866 632 866 554 866 c 0,9,10
 442 866 442 866 365.5 714 c 128,-1,11
 289 562 289 562 289 355 c 0,0,1
540 965 m 0,12,13
 753 965 753 965 972 923 c 1,14,-1
 743 -348 l 1,15,-1
 835 -371 l 1,16,-1
 824 -436 l 1,17,-1
 459 -436 l 1,18,-1
 532 -49 l 1,19,20
 551 68 551 68 574 145 c 1,21,22
 517 69 517 69 436.5 23 c 128,-1,23
 356 -23 356 -23 284 -23 c 0,24,25
 166 -23 166 -23 96 67.5 c 128,-1,26
 26 158 26 158 26 311 c 0,27,28
 26 492 26 492 90.5 642.5 c 128,-1,29
 155 793 155 793 272.5 879 c 128,-1,30
 390 965 390 965 540 965 c 0,12,13
EndSplineSet
EndChar

StartChar: r
Encoding: 114 114 85
Width: 797
GlyphClass: 2
Flags: W
AnchorPoint: "bottom" 180 4 basechar 0
AnchorPoint: "top" 535 961 basechar 0
LayerCount: 2
Fore
SplineSet
438 738 m 1,0,1
 493 845 493 845 571.5 905 c 128,-1,2
 650 965 650 965 729 965 c 0,3,4
 777 965 777 965 812 955 c 1,5,-1
 754 618 l 1,6,-1
 699 618 l 1,7,-1
 655 755 l 1,8,9
 580 755 580 755 524 717 c 128,-1,10
 468 679 468 679 416 596 c 1,11,-1
 311 0 l 1,12,-1
 42 0 l 1,13,-1
 192 850 l 1,14,-1
 75 874 l 1,15,-1
 86 940 l 1,16,-1
 461 940 l 1,17,-1
 438 738 l 1,0,1
EndSplineSet
EndChar

StartChar: s
Encoding: 115 115 86
Width: 797
GlyphClass: 2
Flags: W
AnchorPoint: "bottom" 299 -25 basechar 0
AnchorPoint: "top" 441 966 basechar 0
LayerCount: 2
Fore
SplineSet
693 297 m 0,0,1
 693 145 693 145 591 62.5 c 128,-1,2
 489 -20 489 -20 286 -20 c 0,3,4
 209 -20 209 -20 120.5 -2.5 c 128,-1,5
 32 15 32 15 -11 34 c 1,6,-1
 35 295 l 1,7,-1
 101 295 l 1,8,-1
 116 163 l 1,9,10
 180 73 180 73 293 73 c 0,11,12
 375 73 375 73 424 116.5 c 128,-1,13
 473 160 473 160 473 225 c 0,14,15
 473 264 473 264 446.5 296.5 c 128,-1,16
 420 329 420 329 364 361 c 2,17,-1
 298 399 l 1,18,19
 187 461 187 461 141 528.5 c 128,-1,20
 95 596 95 596 95 680 c 0,21,22
 95 965 95 965 472 965 c 0,23,24
 590 965 590 965 734 933 c 1,25,-1
 691 692 l 1,26,-1
 625 692 l 1,27,-1
 612 802 l 1,28,29
 591 828 591 828 550 849.5 c 128,-1,30
 509 871 509 871 458 871 c 0,31,32
 382 871 382 871 346.5 837 c 128,-1,33
 311 803 311 803 311 748 c 0,34,35
 311 709 311 709 340.5 675 c 128,-1,36
 370 641 370 641 470 585 c 0,37,38
 565 532 565 532 606.5 493.5 c 128,-1,39
 648 455 648 455 670.5 408 c 128,-1,40
 693 361 693 361 693 297 c 0,0,1
EndSplineSet
EndChar

StartChar: t
Encoding: 116 116 87
Width: 569
GlyphClass: 2
Flags: W
AnchorPoint: "bottom" 277 -18 basechar 0
AnchorPoint: "top" 418 1148 basechar 0
LayerCount: 2
Fore
SplineSet
428 106 m 0,0,1
 462 106 462 106 538 132 c 1,2,-1
 564 62 l 1,3,4
 515 27 515 27 439.5 3.5 c 128,-1,5
 364 -20 364 -20 296 -20 c 0,6,7
 186 -20 186 -20 126.5 32.5 c 128,-1,8
 67 85 67 85 67 185 c 0,9,10
 67 231 67 231 85 329 c 2,11,-1
 177 836 l 1,12,-1
 62 836 l 1,13,-1
 73 901 l 1,14,-1
 215 940 l 1,15,-1
 354 1153 l 1,16,-1
 500 1153 l 1,17,-1
 462 940 l 1,18,-1
 620 940 l 1,19,-1
 602 836 l 1,20,-1
 444 836 l 1,21,-1
 353 327 l 1,22,23
 337 245 337 245 337 207 c 0,24,25
 337 154 337 154 363.5 130 c 128,-1,26
 390 106 390 106 428 106 c 0,0,1
EndSplineSet
EndChar

StartChar: u
Encoding: 117 117 88
Width: 1139
GlyphClass: 2
Flags: W
AnchorPoint: "bottom" 514 -34 basechar 0
AnchorPoint: "top" 618 940 basechar 0
LayerCount: 2
Fore
SplineSet
350 216 m 0,0,1
 350 119 350 119 441 119 c 0,2,3
 505 119 505 119 585 190.5 c 128,-1,4
 665 262 665 262 700 347 c 1,5,-1
 806 940 l 1,6,-1
 1072 940 l 1,7,-1
 924 91 l 1,8,-1
 1033 66 l 1,9,-1
 1020 0 l 1,10,-1
 666 0 l 1,11,-1
 674 176 l 1,12,13
 519 -24 519 -24 294 -24 c 0,14,15
 193 -24 193 -24 136 30.5 c 128,-1,16
 79 85 79 85 79 187 c 0,17,18
 79 206 79 206 85.5 252 c 128,-1,19
 92 298 92 298 191 850 c 1,20,-1
 75 874 l 1,21,-1
 88 940 l 1,22,-1
 474 940 l 1,23,-1
 372 372 l 1,24,25
 350 257 350 257 350 216 c 0,0,1
EndSplineSet
EndChar

StartChar: v
Encoding: 118 118 89
Width: 909
GlyphClass: 2
Flags: W
AnchorPoint: "bottom" 341 -22 basechar 0
AnchorPoint: "top" 468 935 basechar 0
LayerCount: 2
Fore
SplineSet
330 941 m 1,0,-1
 479 287 l 1,1,-1
 682 601 l 2,2,3
 714 651 714 651 731 700 c 128,-1,4
 748 749 748 749 748 781 c 0,5,6
 748 807 748 807 739.5 823.5 c 128,-1,7
 731 840 731 840 717 851 c 128,-1,8
 703 862 703 862 658 875 c 1,9,-1
 670 940 l 1,10,-1
 901 940 l 1,11,12
 927 917 927 917 927 877 c 0,13,14
 927 785 927 785 844 657 c 2,15,-1
 407 -20 l 1,16,-1
 284 -20 l 1,17,-1
 80 851 l 1,18,-1
 19 875 l 1,19,-1
 30 941 l 1,20,-1
 330 941 l 1,0,-1
EndSplineSet
EndChar

StartChar: w
Encoding: 119 119 90
Width: 1366
GlyphClass: 2
Flags: W
AnchorPoint: "bottom" 576 -30 basechar 0
AnchorPoint: "top" 726 937 basechar 0
LayerCount: 2
Fore
SplineSet
1185 775 m 0,0,1
 1185 845 1185 845 1121 865 c 1,2,-1
 1085 875 l 1,3,-1
 1097 940 l 1,4,-1
 1342 940 l 1,5,6
 1373 916 1373 916 1373 859 c 0,7,8
 1373 770 1373 770 1306 657 c 2,9,-1
 904 -20 l 1,10,-1
 785 -20 l 1,11,-1
 682 518 l 1,12,-1
 386 -20 l 1,13,-1
 253 -20 l 1,14,-1
 82 850 l 1,15,-1
 2 874 l 1,16,-1
 13 940 l 1,17,-1
 317 940 l 1,18,-1
 443 282 l 1,19,-1
 752 846 l 1,20,-1
 852 846 l 1,21,-1
 964 282 l 1,22,-1
 1129 580 l 2,23,24
 1149 617 1149 617 1167 677.5 c 128,-1,25
 1185 738 1185 738 1185 775 c 0,0,1
EndSplineSet
EndChar

StartChar: x
Encoding: 120 120 91
Width: 1024
GlyphClass: 2
Flags: W
AnchorPoint: "bottom" 410 0 basechar 0
AnchorPoint: "top" 581 933 basechar 0
LayerCount: 2
Fore
SplineSet
439 374 m 1,0,-1
 274 236 l 2,1,2
 238 205 238 205 218.5 183.5 c 128,-1,3
 199 162 199 162 190.5 145.5 c 128,-1,4
 182 129 182 129 182 104 c 0,5,6
 182 74 182 74 224 65 c 1,7,-1
 212 0 l 1,8,-1
 -9 0 l 1,9,10
 -25 13 -25 13 -25 43 c 0,11,12
 -25 78 -25 78 7.5 119.5 c 128,-1,13
 40 161 40 161 112 221 c 2,14,-1
 396 460 l 1,15,-1
 194 850 l 1,16,-1
 108 875 l 1,17,-1
 119 940 l 1,18,-1
 418 940 l 1,19,-1
 583 615 l 1,20,-1
 685 700 l 2,21,22
 734 740 734 740 758.5 772.5 c 128,-1,23
 783 805 783 805 783 836 c 0,24,25
 783 865 783 865 728 875 c 1,26,-1
 740 940 l 1,27,-1
 953 940 l 1,28,29
 974 924 974 924 974 897 c 0,30,31
 974 822 974 822 836 707 c 2,32,-1
 628 533 l 1,33,-1
 856 86 l 1,34,-1
 942 65 l 1,35,-1
 931 0 l 1,36,-1
 629 0 l 1,37,-1
 439 374 l 1,0,-1
EndSplineSet
EndChar

StartChar: y
Encoding: 121 121 92
Width: 909
GlyphClass: 2
Flags: W
AnchorPoint: "bottom" 81 -444 basechar 0
AnchorPoint: "top" 486 945 basechar 0
LayerCount: 2
Fore
SplineSet
915 877 m 0,0,1
 915 787 915 787 834 657 c 1,2,-1
 395 -59 l 2,3,4
 299 -216 299 -216 233.5 -290.5 c 128,-1,5
 168 -365 168 -365 100 -403.5 c 128,-1,6
 32 -442 32 -442 -44 -442 c 0,7,8
 -95 -442 -95 -442 -125.5 -438.5 c 128,-1,9
 -156 -435 -156 -435 -205 -423 c 1,10,-1
 -163 -181 l 1,11,-1
 -103 -181 l 1,12,-1
 -83 -307 l 1,13,14
 -58 -330 -58 -330 -13 -330 c 0,15,16
 47 -330 47 -330 118 -261 c 128,-1,17
 189 -192 189 -192 300 -5 c 1,18,-1
 86 850 l 1,19,-1
 25 874 l 1,20,-1
 36 940 l 1,21,-1
 339 940 l 1,22,-1
 491 301 l 1,23,-1
 672 601 l 2,24,25
 699 645 699 645 717.5 697.5 c 128,-1,26
 736 750 736 750 736 781 c 0,27,28
 736 807 736 807 727.5 823.5 c 128,-1,29
 719 840 719 840 705 851 c 128,-1,30
 691 862 691 862 646 875 c 1,31,-1
 658 940 l 1,32,-1
 889 940 l 1,33,34
 915 917 915 917 915 877 c 0,0,1
EndSplineSet
EndChar

StartChar: z
Encoding: 122 122 93
Width: 797
GlyphClass: 2
Flags: W
AnchorPoint: "bottom" 276 -4 basechar 0
AnchorPoint: "top" 456 945 basechar 0
LayerCount: 2
Fore
SplineSet
-58 0 m 1,0,-1
 -50 50 l 1,1,-1
 466 850 l 1,2,-1
 396 850 l 2,3,4
 342 850 342 850 289.5 840.5 c 128,-1,5
 237 831 237 831 212 815 c 1,6,-1
 152 660 l 1,7,-1
 80 660 l 1,8,-1
 129 940 l 1,9,-1
 789 940 l 1,10,-1
 780 886 l 1,11,-1
 264 90 l 1,12,-1
 347 90 l 2,13,14
 403 90 403 90 465 103.5 c 128,-1,15
 527 117 527 117 559 137 c 1,16,-1
 641 315 l 1,17,-1
 713 315 l 1,18,-1
 639 0 l 1,19,-1
 -58 0 l 1,0,-1
EndSplineSet
EndChar

StartChar: braceleft
Encoding: 123 123 94
Width: 713
GlyphClass: 2
Flags: W
LayerCount: 2
Fore
SplineSet
402 -274 m 2,0,1
 280 -274 280 -274 215 -212.5 c 128,-1,2
 150 -151 150 -151 150 -38 c 0,3,4
 150 2 150 2 157 40 c 2,5,-1
 205 315 l 2,6,7
 211 348 211 348 211 376 c 0,8,9
 211 458 211 458 163.5 494 c 128,-1,10
 116 530 116 530 28 533 c 1,11,-1
 43 618 l 1,12,13
 146 621 146 621 211.5 670.5 c 128,-1,14
 277 720 277 720 297 834 c 2,15,-1
 352 1148 l 2,16,17
 377 1289 377 1289 461.5 1355 c 128,-1,18
 546 1421 546 1421 701 1421 c 2,19,-1
 836 1421 l 1,20,-1
 821 1334 l 1,21,-1
 759 1334 l 2,22,23
 690 1334 690 1334 649.5 1299.5 c 128,-1,24
 609 1265 609 1265 594 1179 c 2,25,-1
 530 819 l 2,26,27
 513 723 513 723 445.5 655 c 128,-1,28
 378 587 378 587 283 568 c 1,29,-1
 283 565 l 1,30,31
 358 548 358 548 401.5 496.5 c 128,-1,32
 445 445 445 445 445 365 c 1,33,-1
 440 312 l 1,34,-1
 387 8 l 2,35,36
 381 -25 381 -25 381 -53 c 0,37,38
 381 -114 381 -114 407.5 -150.5 c 128,-1,39
 434 -187 434 -187 491 -187 c 2,40,-1
 553 -187 l 1,41,-1
 537 -274 l 1,42,-1
 402 -274 l 2,0,1
EndSplineSet
Validated: 1
EndChar

StartChar: bar
Encoding: 124 124 95
Width: 451
GlyphClass: 2
Flags: W
LayerCount: 2
Fore
SplineSet
139 -442 m 1,0,-1
 139 1421 l 1,1,-1
 282 1421 l 1,2,-1
 282 -442 l 1,3,-1
 139 -442 l 1,0,-1
EndSplineSet
Validated: 1
EndChar

StartChar: braceright
Encoding: 125 125 96
Width: 713
GlyphClass: 2
Flags: W
LayerCount: 2
Fore
SplineSet
-120 -274 m 1,0,-1
 -104 -187 l 1,1,-1
 -42 -187 l 2,2,3
 27 -187 27 -187 67 -152.5 c 128,-1,4
 107 -118 107 -118 122 -32 c 2,5,-1
 187 332 l 2,6,7
 204 430 204 430 270 497 c 128,-1,8
 336 564 336 564 434 585 c 1,9,-1
 434 588 l 1,10,11
 362 604 362 604 317 656 c 128,-1,12
 272 708 272 708 272 788 c 1,13,-1
 277 839 l 1,14,-1
 329 1139 l 2,15,16
 335 1172 335 1172 335 1201 c 0,17,18
 335 1262 335 1262 308.5 1298 c 128,-1,19
 282 1334 282 1334 226 1334 c 2,20,-1
 164 1334 l 1,21,-1
 179 1421 l 1,22,-1
 314 1421 l 2,23,24
 444 1421 444 1421 505.5 1358.5 c 128,-1,25
 567 1296 567 1296 567 1190 c 0,26,27
 567 1152 567 1152 559 1108 c 2,28,-1
 512 834 l 2,29,30
 506 801 506 801 506 773 c 0,31,32
 506 622 506 622 688 618 c 1,33,-1
 673 533 l 1,34,35
 562 529 562 529 500.5 476 c 128,-1,36
 439 423 439 423 420 315 c 2,37,-1
 364 0 l 2,38,39
 340 -136 340 -136 255 -205 c 128,-1,40
 170 -274 170 -274 15 -274 c 2,41,-1
 -120 -274 l 1,0,-1
EndSplineSet
Validated: 1
EndChar

StartChar: asciitilde
Encoding: 126 126 97
Width: 1167
GlyphClass: 2
Flags: W
LayerCount: 2
Fore
SplineSet
831 481 m 0,0,1
 774 481 774 481 713 510.5 c 128,-1,2
 652 540 652 540 578 602 c 0,3,4
 492 674 492 674 450.5 698.5 c 128,-1,5
 409 723 409 723 376 723 c 0,6,7
 305 723 305 723 272.5 667.5 c 128,-1,8
 240 612 240 612 227 481 c 1,9,-1
 86 481 l 1,10,11
 101 630 101 630 134 706 c 128,-1,12
 167 782 167 782 225.5 824 c 128,-1,13
 284 866 284 866 376 866 c 0,14,15
 434 866 434 866 499 836 c 128,-1,16
 564 806 564 806 677 709 c 1,17,18
 773 624 773 624 831 624 c 0,19,20
 897 624 897 624 930 681.5 c 128,-1,21
 963 739 963 739 978 866 c 1,22,-1
 1122 866 l 1,23,24
 1102 715 1102 715 1068 639.5 c 128,-1,25
 1034 564 1034 564 976.5 522.5 c 128,-1,26
 919 481 919 481 831 481 c 0,0,1
EndSplineSet
Validated: 1
EndChar

StartChar: dagger
Encoding: 8224 8224 130
Width: 1024
GlyphClass: 2
Flags: W
LayerCount: 2
Fore
SplineSet
676 760 m 1,0,-1
 399 -240 l 1,1,-1
 333 -240 l 1,2,-1
 410 760 l 1,3,-1
 518 920 l 1,4,-1
 100 854 l 1,5,-1
 142 1090 l 1,6,-1
 536 1026 l 1,7,-1
 540 1421 l 1,8,-1
 778 1421 l 1,9,-1
 642 1026 l 1,10,-1
 1060 1090 l 1,11,-1
 1018 854 l 1,12,-1
 624 920 l 1,13,-1
 676 760 l 1,0,-1
EndSplineSet
Validated: 1
EndChar

StartChar: degree
Encoding: 176 176 131
Width: 819
GlyphClass: 2
Flags: W
LayerCount: 2
Fore
SplineSet
184 1051 m 0,0,1
 184 1134 184 1134 225 1206 c 128,-1,2
 266 1278 266 1278 338.5 1320 c 128,-1,3
 411 1362 411 1362 494 1362 c 256,4,5
 577 1362 577 1362 649 1320.5 c 128,-1,6
 721 1279 721 1279 763 1207 c 128,-1,7
 805 1135 805 1135 805 1051 c 256,8,9
 805 967 805 967 762.5 894.5 c 128,-1,10
 720 822 720 822 648 781.5 c 128,-1,11
 576 741 576 741 494 741 c 0,12,13
 364 741 364 741 274 831 c 128,-1,14
 184 921 184 921 184 1051 c 0,0,1
493 1250 m 0,15,16
 413 1250 413 1250 358 1192.5 c 128,-1,17
 303 1135 303 1135 303 1049 c 0,18,19
 303 966 303 966 358.5 908 c 128,-1,20
 414 850 414 850 493 850 c 0,21,22
 574 850 574 850 629.5 908 c 128,-1,23
 685 966 685 966 685 1049 c 0,24,25
 685 1135 685 1135 630 1192.5 c 128,-1,26
 575 1250 575 1250 493 1250 c 0,15,16
EndSplineSet
Validated: 1
EndChar

StartChar: cent
Encoding: 162 162 132
Width: 1024
GlyphClass: 2
Flags: W
LayerCount: 2
Fore
SplineSet
883 348 m 1,0,1
 743 227 743 227 590 195 c 1,2,-1
 556 0 l 1,3,-1
 464 0 l 1,4,-1
 496 185 l 1,5,6
 322 185 322 185 222.5 279.5 c 128,-1,7
 123 374 123 374 123 535 c 0,8,9
 123 716 123 716 195.5 858.5 c 128,-1,10
 268 1001 268 1001 395.5 1083 c 128,-1,11
 523 1165 523 1165 670 1169 c 1,12,-1
 700 1341 l 1,13,-1
 792 1341 l 1,14,-1
 761 1167 l 1,15,16
 905 1154 905 1154 992 1125 c 1,17,-1
 943 837 l 1,18,-1
 871 837 l 1,19,-1
 857 1008 l 1,20,21
 817 1053 817 1053 743 1065 c 1,22,-1
 611 311 l 1,23,24
 712 324 712 324 839 411 c 1,25,-1
 883 348 l 1,0,1
391 545 m 0,26,27
 391 443 391 443 427.5 385.5 c 128,-1,28
 464 328 464 328 518 312 c 1,29,-1
 651 1065 l 1,30,31
 580 1044 580 1044 519.5 969 c 128,-1,32
 459 894 459 894 425 781.5 c 128,-1,33
 391 669 391 669 391 545 c 0,26,27
EndSplineSet
Validated: 1
EndChar

StartChar: sterling
Encoding: 163 163 133
Width: 1024
GlyphClass: 2
Flags: W
LayerCount: 2
Fore
SplineSet
905 203 m 1,0,-1
 868 0 l 1,1,-1
 -5 0 l 1,2,-1
 16 123 l 1,3,-1
 110 195 l 2,4,5
 199 262 199 262 244 334.5 c 128,-1,6
 289 407 289 407 289 489 c 0,7,8
 289 546 289 546 270 620 c 1,9,-1
 109 620 l 1,10,-1
 127 721 l 1,11,-1
 215 721 l 1,12,13
 189 820 189 820 189 902 c 0,14,15
 189 1123 189 1123 325 1239.5 c 128,-1,16
 461 1356 461 1356 723 1356 c 0,17,18
 784 1356 784 1356 846.5 1348.5 c 128,-1,19
 909 1341 909 1341 1026 1313 c 1,20,-1
 972 1008 l 1,21,-1
 885 1008 l 1,22,-1
 876 1202 l 1,23,24
 799 1255 799 1255 710 1255 c 0,25,26
 579 1255 579 1255 510.5 1139.5 c 128,-1,27
 442 1024 442 1024 442 822 c 1,28,-1
 445 721 l 1,29,-1
 707 721 l 1,30,-1
 689 620 l 1,31,-1
 446 620 l 1,32,-1
 447 587 l 1,33,-1
 447 551 l 2,34,35
 447 454 447 454 406.5 361.5 c 128,-1,36
 366 269 366 269 295 203 c 1,37,-1
 905 203 l 1,0,-1
EndSplineSet
Validated: 1
EndChar

StartChar: section
Encoding: 167 167 134
Width: 1024
GlyphClass: 2
Flags: W
LayerCount: 2
Fore
SplineSet
768 57 m 0,0,1
 768 -92 768 -92 660 -173.5 c 128,-1,2
 552 -255 552 -255 334 -255 c 0,3,4
 258 -255 258 -255 168.5 -238.5 c 128,-1,5
 79 -222 79 -222 37 -204 c 1,6,-1
 83 57 l 1,7,-1
 149 57 l 1,8,-1
 163 -75 l 1,9,10
 198 -116 198 -116 250 -139 c 128,-1,11
 302 -162 302 -162 356 -162 c 0,12,13
 444 -162 444 -162 497.5 -117.5 c 128,-1,14
 551 -73 551 -73 551 0 c 0,15,16
 551 58 551 58 506 108 c 128,-1,17
 461 158 461 158 337 236 c 0,18,19
 229 303 229 303 176 376 c 128,-1,20
 123 449 123 449 123 538 c 0,21,22
 123 653 123 653 198.5 736 c 128,-1,23
 274 819 274 819 411 854 c 1,24,25
 340 896 340 896 300.5 958 c 128,-1,26
 261 1020 261 1020 261 1096 c 0,27,28
 261 1237 261 1237 363 1313.5 c 128,-1,29
 465 1390 465 1390 653 1390 c 0,30,31
 760 1390 760 1390 926 1361 c 1,32,-1
 884 1120 l 1,33,-1
 818 1120 l 1,34,-1
 805 1230 l 1,35,36
 781 1259 781 1259 731.5 1277.5 c 128,-1,37
 682 1296 682 1296 636 1296 c 0,38,39
 557 1296 557 1296 515 1259 c 128,-1,40
 473 1222 473 1222 473 1159 c 0,41,42
 473 1112 473 1112 508 1071 c 128,-1,43
 543 1030 543 1030 613 992 c 2,44,-1
 694 947 l 2,45,46
 784 897 784 897 826 857.5 c 128,-1,47
 868 818 868 818 891 770.5 c 128,-1,48
 914 723 914 723 914 663 c 0,49,50
 914 540 914 540 835.5 454 c 128,-1,51
 757 368 757 368 611 329 c 1,52,53
 694 266 694 266 731 200.5 c 128,-1,54
 768 135 768 135 768 57 c 0,0,1
514 407 m 1,55,56
 588 423 588 423 642 478 c 128,-1,57
 696 533 696 533 696 599 c 0,58,59
 696 650 696 650 659.5 691 c 128,-1,60
 623 732 623 732 518 781 c 1,61,62
 444 769 444 769 390.5 720 c 128,-1,63
 337 671 337 671 337 608 c 0,64,65
 337 557 337 557 375 511 c 128,-1,66
 413 465 413 465 514 407 c 1,55,56
EndSplineSet
Validated: 1
EndChar

StartChar: bullet
Encoding: 8226 8226 135
Width: 717
GlyphClass: 2
Flags: W
LayerCount: 2
Fore
SplineSet
373 401 m 256,0,1
 259 401 259 401 177.5 481.5 c 128,-1,2
 96 562 96 562 96 678 c 256,3,4
 96 794 96 794 177.5 874.5 c 128,-1,5
 259 955 259 955 373 955 c 256,6,7
 487 955 487 955 568.5 874.5 c 128,-1,8
 650 794 650 794 650 678 c 256,9,10
 650 562 650 562 568.5 481.5 c 128,-1,11
 487 401 487 401 373 401 c 256,0,1
EndSplineSet
Validated: 1
EndChar

StartChar: paragraph
Encoding: 182 182 136
Width: 1024
GlyphClass: 2
Flags: W
LayerCount: 2
Fore
SplineSet
874 1245 m 1,0,-1
 874 -258 l 1,1,-1
 734 -258 l 1,2,-1
 734 1245 l 1,3,-1
 599 1245 l 1,4,-1
 599 -258 l 1,5,-1
 459 -258 l 1,6,-1
 459 545 l 1,7,8
 265 552 265 552 150 659.5 c 128,-1,9
 35 767 35 767 35 952 c 0,10,11
 35 1138 35 1138 148 1239.5 c 128,-1,12
 261 1341 261 1341 469 1341 c 2,13,-1
 957 1341 l 1,14,-1
 957 1268 l 1,15,-1
 874 1245 l 1,0,-1
EndSplineSet
Validated: 1
EndChar

StartChar: germandbls
Encoding: 223 223 137
Width: 1024
GlyphClass: 2
Flags: W
LayerCount: 2
Fore
SplineSet
753 802 m 0,0,1
 753 755 753 755 776 706.5 c 128,-1,2
 799 658 799 658 848 599 c 0,3,4
 918 514 918 514 941.5 457.5 c 128,-1,5
 965 401 965 401 965 336 c 0,6,7
 965 172 965 172 863 76 c 128,-1,8
 761 -20 761 -20 578 -20 c 0,9,10
 498 -20 498 -20 442 -6.5 c 128,-1,11
 386 7 386 7 360 21 c 1,12,-1
 395 244 l 1,13,-1
 461 244 l 1,14,-1
 478 110 l 1,15,16
 520 73 520 73 575 73 c 0,17,18
 640 73 640 73 678.5 120.5 c 128,-1,19
 717 168 717 168 717 252 c 0,20,21
 717 296 717 296 704.5 333.5 c 128,-1,22
 692 371 692 371 669.5 408 c 128,-1,23
 647 445 647 445 581 522 c 1,24,25
 510 607 510 607 510 721 c 0,26,27
 510 832 510 832 570.5 918 c 128,-1,28
 631 1004 631 1004 731 1033 c 1,29,30
 743 1124 743 1124 743 1176 c 0,31,32
 743 1259 743 1259 718.5 1300 c 128,-1,33
 694 1341 694 1341 640 1341 c 0,34,35
 568 1341 568 1341 524.5 1256 c 128,-1,36
 481 1171 481 1171 443 952 c 2,37,-1
 276 0 l 1,38,-1
 -75 0 l 1,39,-1
 -64 66 l 1,40,-1
 22 90 l 1,41,-1
 174 952 l 2,42,43
 219 1208 219 1208 338 1325 c 128,-1,44
 457 1442 457 1442 664 1442 c 0,45,46
 839 1442 839 1442 920 1360 c 128,-1,47
 1001 1278 1001 1278 1001 1117 c 0,48,49
 1001 1064 1001 1064 990 985 c 1,50,51
 873 985 873 985 813 937.5 c 128,-1,52
 753 890 753 890 753 802 c 0,0,1
EndSplineSet
Validated: 1
EndChar

StartChar: registered
Encoding: 174 174 138
Width: 1530
GlyphClass: 2
Flags: W
LayerCount: 2
Fore
SplineSet
1469 670 m 0,0,1
 1469 485 1469 485 1378.5 326.5 c 128,-1,2
 1288 168 1288 168 1127.5 74 c 128,-1,3
 967 -20 967 -20 777 -20 c 0,4,5
 591 -20 591 -20 431 72 c 128,-1,6
 271 164 271 164 179 324 c 128,-1,7
 87 484 87 484 87 670 c 0,8,9
 87 859 87 859 180.5 1019.5 c 128,-1,10
 274 1180 274 1180 432.5 1271 c 128,-1,11
 591 1362 591 1362 777 1362 c 0,12,13
 964 1362 964 1362 1124 1270 c 128,-1,14
 1284 1178 1284 1178 1376.5 1018.5 c 128,-1,15
 1469 859 1469 859 1469 670 c 0,0,1
966 276 m 1,16,-1
 736 619 l 1,17,-1
 687 619 l 1,18,-1
 687 350 l 1,19,-1
 781 334 l 1,20,-1
 781 276 l 1,21,-1
 435 276 l 1,22,-1
 435 334 l 1,23,-1
 511 350 l 1,24,-1
 511 1010 l 1,25,-1
 427 1026 l 1,26,-1
 427 1081 l 1,27,-1
 777 1081 l 2,28,29
 933 1081 933 1081 1013 1023.5 c 128,-1,30
 1093 966 1093 966 1093 860 c 0,31,32
 1093 783 1093 783 1047.5 725 c 128,-1,33
 1002 667 1002 667 914 639 c 1,34,-1
 1121 350 l 1,35,-1
 1191 334 l 1,36,-1
 1191 276 l 1,37,-1
 966 276 l 1,16,-1
910 858 m 0,38,39
 910 940 910 940 868 973 c 128,-1,40
 826 1006 826 1006 706 1006 c 2,41,-1
 687 1006 l 1,42,-1
 687 694 l 1,43,-1
 710 694 l 2,44,45
 814 694 814 694 862 730 c 128,-1,46
 910 766 910 766 910 858 c 0,38,39
777 1278 m 0,47,48
 616 1278 616 1278 477 1197 c 128,-1,49
 338 1116 338 1116 257.5 975 c 128,-1,50
 177 834 177 834 177 670 c 0,51,52
 177 507 177 507 257.5 365.5 c 128,-1,53
 338 224 338 224 476.5 143.5 c 128,-1,54
 615 63 615 63 777 63 c 0,55,56
 937 63 937 63 1076.5 143.5 c 128,-1,57
 1216 224 1216 224 1297.5 366 c 128,-1,58
 1379 508 1379 508 1379 670 c 256,59,60
 1379 832 1379 832 1299 972.5 c 128,-1,61
 1219 1113 1219 1113 1080.5 1195.5 c 128,-1,62
 942 1278 942 1278 777 1278 c 0,47,48
EndSplineSet
Validated: 1
EndChar

StartChar: copyright
Encoding: 169 169 139
Width: 1530
GlyphClass: 2
Flags: W
LayerCount: 2
Fore
SplineSet
87 670 m 0,0,1
 87 859 87 859 180.5 1019.5 c 128,-1,2
 274 1180 274 1180 432.5 1271 c 128,-1,3
 591 1362 591 1362 777 1362 c 0,4,5
 964 1362 964 1362 1124 1270 c 128,-1,6
 1284 1178 1284 1178 1376.5 1018.5 c 128,-1,7
 1469 859 1469 859 1469 670 c 0,8,9
 1469 485 1469 485 1378.5 326.5 c 128,-1,10
 1288 168 1288 168 1127.5 74 c 128,-1,11
 967 -20 967 -20 777 -20 c 0,12,13
 591 -20 591 -20 431 72 c 128,-1,14
 271 164 271 164 179 324 c 128,-1,15
 87 484 87 484 87 670 c 0,0,1
812 254 m 0,16,17
 613 254 613 254 499.5 365 c 128,-1,18
 386 476 386 476 386 664 c 0,19,20
 386 872 386 872 496.5 980.5 c 128,-1,21
 607 1089 607 1089 814 1089 c 0,22,23
 932 1089 932 1089 1082 1059 c 1,24,-1
 1086 852 l 1,25,-1
 1017 852 l 1,26,-1
 998 957 l 1,27,28
 957 982 957 982 916 995 c 128,-1,29
 875 1008 875 1008 818 1008 c 0,30,31
 688 1008 688 1008 632 932 c 128,-1,32
 576 856 576 856 576 666 c 0,33,34
 576 501 576 501 629.5 417.5 c 128,-1,35
 683 334 683 334 812 334 c 0,36,37
 934 334 934 334 1007 393 c 1,38,-1
 1029 512 l 1,39,-1
 1099 512 l 1,40,-1
 1095 293 l 1,41,42
 968 254 968 254 812 254 c 0,16,17
777 1278 m 0,43,44
 616 1278 616 1278 477 1197 c 128,-1,45
 338 1116 338 1116 257.5 975 c 128,-1,46
 177 834 177 834 177 670 c 0,47,48
 177 507 177 507 257.5 365.5 c 128,-1,49
 338 224 338 224 476.5 143.5 c 128,-1,50
 615 63 615 63 777 63 c 0,51,52
 937 63 937 63 1076.5 143.5 c 128,-1,53
 1216 224 1216 224 1297.5 366 c 128,-1,54
 1379 508 1379 508 1379 670 c 256,55,56
 1379 832 1379 832 1299 972.5 c 128,-1,57
 1219 1113 1219 1113 1080.5 1195.5 c 128,-1,58
 942 1278 942 1278 777 1278 c 0,43,44
EndSplineSet
Validated: 1
EndChar

StartChar: trademark
Encoding: 8482 8482 140
Width: 2048
GlyphClass: 2
Flags: W
LayerCount: 2
Fore
SplineSet
293 538 m 1,0,-1
 293 598 l 1,1,-1
 421 614 l 1,2,-1
 421 1275 l 1,3,-1
 390 1275 l 2,4,5
 347 1275 347 1275 316 1273 c 128,-1,6
 285 1271 285 1271 233 1261 c 1,7,-1
 217 1112 l 1,8,-1
 146 1112 l 1,9,-1
 146 1343 l 1,10,-1
 888 1343 l 1,11,-1
 888 1112 l 1,12,-1
 817 1112 l 1,13,-1
 801 1261 l 1,14,15
 730 1274 730 1274 640 1274 c 2,16,-1
 610 1274 l 1,17,-1
 610 614 l 1,18,-1
 738 598 l 1,19,-1
 738 538 l 1,20,-1
 293 538 l 1,0,-1
1449 538 m 1,21,-1
 1416 538 l 1,22,-1
 1138 1183 l 1,23,-1
 1138 614 l 1,24,-1
 1241 598 l 1,25,-1
 1241 538 l 1,26,-1
 945 538 l 1,27,-1
 945 598 l 1,28,-1
 1048 614 l 1,29,-1
 1048 1267 l 1,30,-1
 945 1283 l 1,31,-1
 945 1343 l 1,32,-1
 1280 1343 l 1,33,-1
 1494 848 l 1,34,-1
 1712 1343 l 1,35,-1
 2034 1343 l 1,36,-1
 2034 1283 l 1,37,-1
 1931 1267 l 1,38,-1
 1931 614 l 1,39,-1
 2034 598 l 1,40,-1
 2034 538 l 1,41,-1
 1634 538 l 1,42,-1
 1634 598 l 1,43,-1
 1742 614 l 1,44,-1
 1742 1200 l 1,45,-1
 1449 538 l 1,21,-1
EndSplineSet
Validated: 1
EndChar

StartChar: acute
Encoding: 180 180 141
Width: 682
GlyphClass: 2
Flags: W
LayerCount: 2
Fore
SplineSet
253 1118 m 1,0,-1
 259 1151 l 1,1,-1
 455 1423 l 1,2,-1
 740 1423 l 1,3,-1
 736 1386 l 1,4,-1
 339 1118 l 1,5,-1
 253 1118 l 1,0,-1
EndSplineSet
Validated: 1
EndChar

StartChar: dieresis
Encoding: 168 168 142
Width: 682
GlyphClass: 2
Flags: W
LayerCount: 2
Fore
SplineSet
640 1130 m 0,0,1
 592 1130 592 1130 555.5 1165.5 c 128,-1,2
 519 1201 519 1201 519 1251 c 256,3,4
 519 1301 519 1301 555.5 1335.5 c 128,-1,5
 592 1370 592 1370 640 1370 c 0,6,7
 689 1370 689 1370 724 1336 c 128,-1,8
 759 1302 759 1302 759 1251 c 0,9,10
 759 1201 759 1201 724 1165.5 c 128,-1,11
 689 1130 689 1130 640 1130 c 0,0,1
284 1130 m 0,12,13
 236 1130 236 1130 199.5 1167 c 128,-1,14
 163 1204 163 1204 163 1251 c 0,15,16
 163 1299 163 1299 199 1334.5 c 128,-1,17
 235 1370 235 1370 284 1370 c 256,18,19
 333 1370 333 1370 368 1334.5 c 128,-1,20
 403 1299 403 1299 403 1251 c 0,21,22
 403 1201 403 1201 368 1165.5 c 128,-1,23
 333 1130 333 1130 284 1130 c 0,12,13
EndSplineSet
Validated: 1
EndChar

StartChar: notequal
Encoding: 8800 8800 143
Width: 1124
GlyphClass: 2
Flags: W
LayerCount: 2
Fore
SplineSet
1029 1220 m 1,0,-1
 844 956 l 1,1,-1
 1058 956 l 1,2,-1
 1058 813 l 1,3,-1
 744 813 l 1,4,-1
 558 547 l 1,5,-1
 1058 547 l 1,6,-1
 1058 403 l 1,7,-1
 458 403 l 1,8,-1
 274 140 l 1,9,-1
 121 140 l 1,10,-1
 305 403 l 1,11,-1
 106 403 l 1,12,-1
 106 547 l 1,13,-1
 405 547 l 1,14,-1
 591 813 l 1,15,-1
 106 813 l 1,16,-1
 106 956 l 1,17,-1
 691 956 l 1,18,-1
 876 1220 l 1,19,-1
 1029 1220 l 1,0,-1
EndSplineSet
Validated: 1
EndChar

StartChar: AE
Encoding: 198 198 144
Width: 1933
GlyphClass: 2
Flags: W
AnchorPoint: "bottom" 882 -56 basechar 0
AnchorPoint: "top" 1294 1438 basechar 0
LayerCount: 2
Fore
SplineSet
828 1252 m 1,0,-1
 687 1270 l 1,1,-1
 699 1341 l 1,2,-1
 1840 1341 l 1,3,-1
 1780 1000 l 1,4,-1
 1689 1000 l 1,5,-1
 1695 1217 l 1,6,7
 1587 1231 1587 1231 1434 1231 c 2,8,-1
 1234 1231 l 1,9,-1
 1147 739 l 1,10,-1
 1430 739 l 1,11,-1
 1487 887 l 1,12,-1
 1576 887 l 1,13,-1
 1503 475 l 1,14,-1
 1414 475 l 1,15,-1
 1410 627 l 1,16,-1
 1127 627 l 1,17,-1
 1036 110 l 1,18,-1
 1281 110 l 2,19,20
 1477 110 1477 110 1562 126 c 1,21,-1
 1662 374 l 1,22,-1
 1753 374 l 1,23,-1
 1669 0 l 1,24,-1
 550 0 l 1,25,-1
 562 73 l 1,26,-1
 739 100 l 1,27,-1
 800 447 l 1,28,-1
 388 447 l 1,29,-1
 134 100 l 1,30,-1
 283 73 l 1,31,-1
 271 0 l 1,32,-1
 -161 0 l 1,33,-1
 -149 73 l 1,34,-1
 -24 100 l 1,35,-1
 828 1252 l 1,0,-1
820 557 m 1,36,-1
 932 1198 l 1,37,-1
 469 557 l 1,38,-1
 820 557 l 1,36,-1
EndSplineSet
EndChar

StartChar: Oslash
Encoding: 216 216 145
Width: 1479
GlyphClass: 2
Flags: W
LayerCount: 2
Fore
SplineSet
639 -20 m 0,0,1
 417 -20 417 -20 265 100 c 1,2,-1
 110 -55 l 1,3,-1
 -39 -55 l 1,4,-1
 190 174 l 1,5,6
 74 316 74 316 74 524 c 0,7,8
 74 766 74 766 172 957.5 c 128,-1,9
 270 1149 270 1149 447.5 1252.5 c 128,-1,10
 625 1356 625 1356 856 1356 c 0,11,12
 1090 1356 1090 1356 1243 1224 c 1,13,-1
 1410 1391 l 1,14,-1
 1555 1391 l 1,15,-1
 1314 1149 l 1,16,17
 1421 1009 1421 1009 1421 812 c 0,18,19
 1421 572 1421 572 1320.5 375.5 c 128,-1,20
 1220 179 1220 179 1045.5 79.5 c 128,-1,21
 871 -20 871 -20 639 -20 c 0,0,1
375 485 m 0,22,23
 375 410 375 410 383 367 c 1,24,-1
 1083 1065 l 1,25,26
 1011 1251 1011 1251 832 1251 c 0,27,28
 710 1251 710 1251 607.5 1151 c 128,-1,29
 505 1051 505 1051 440 861.5 c 128,-1,30
 375 672 375 672 375 485 c 0,22,23
1120 843 m 0,31,32
 1120 890 1120 890 1113 948 c 1,33,-1
 416 251 l 1,34,35
 487 83 487 83 657 83 c 0,36,37
 782 83 782 83 885 182 c 128,-1,38
 988 281 988 281 1054 467 c 128,-1,39
 1120 653 1120 653 1120 843 c 0,31,32
EndSplineSet
Validated: 1
EndChar

StartChar: infinity
Encoding: 8734 8734 146
Width: 1460
GlyphClass: 2
Flags: W
LayerCount: 2
Fore
SplineSet
1402 590 m 0,0,1
 1402 425 1402 425 1312.5 314 c 128,-1,2
 1223 203 1223 203 1087 203 c 0,3,4
 877 203 877 203 736 467 c 1,5,6
 672 340 672 340 590 274.5 c 128,-1,7
 508 209 508 209 415 209 c 0,8,9
 273 209 273 209 185 315 c 128,-1,10
 97 421 97 421 97 596 c 0,11,12
 97 765 97 765 186 874 c 128,-1,13
 275 983 275 983 415 983 c 0,14,15
 520 983 520 983 609 919 c 128,-1,16
 698 855 698 855 763 725 c 1,17,18
 827 850 827 850 905.5 913.5 c 128,-1,19
 984 977 984 977 1089 977 c 0,20,21
 1231 977 1231 977 1316.5 869.5 c 128,-1,22
 1402 762 1402 762 1402 590 c 0,0,1
1108 872 m 0,23,24
 1028 872 1028 872 961.5 802 c 128,-1,25
 895 732 895 732 831 590 c 1,26,27
 891 449 891 449 957.5 378 c 128,-1,28
 1024 307 1024 307 1110 307 c 0,29,30
 1206 307 1206 307 1266.5 387 c 128,-1,31
 1327 467 1327 467 1327 592 c 0,32,33
 1327 712 1327 712 1266 792 c 128,-1,34
 1205 872 1205 872 1108 872 c 0,23,24
665 596 m 1,35,36
 608 736 608 736 541.5 807.5 c 128,-1,37
 475 879 475 879 385 879 c 0,38,39
 292 879 292 879 232.5 798.5 c 128,-1,40
 173 718 173 718 173 594 c 0,41,42
 173 468 173 468 231.5 390.5 c 128,-1,43
 290 313 290 313 389 313 c 0,44,45
 470 313 470 313 537 383.5 c 128,-1,46
 604 454 604 454 665 596 c 1,35,36
EndSplineSet
Validated: 1
EndChar

StartChar: plusminus
Encoding: 177 177 147
Width: 1124
GlyphClass: 2
Flags: W
LayerCount: 2
Fore
SplineSet
632 608 m 1,0,-1
 632 203 l 1,1,-1
 489 203 l 1,2,-1
 489 608 l 1,3,-1
 85 608 l 1,4,-1
 85 752 l 1,5,-1
 489 752 l 1,6,-1
 489 1157 l 1,7,-1
 632 1157 l 1,8,-1
 632 752 l 1,9,-1
 1038 752 l 1,10,-1
 1038 608 l 1,11,-1
 632 608 l 1,0,-1
1038 141 m 1,12,-1
 1038 0 l 1,13,-1
 85 0 l 1,14,-1
 85 141 l 1,15,-1
 1038 141 l 1,12,-1
EndSplineSet
Validated: 1
EndChar

StartChar: lessequal
Encoding: 8804 8804 148
Width: 1124
GlyphClass: 2
Flags: W
LayerCount: 2
Fore
SplineSet
106 685 m 1,0,-1
 106 775 l 1,1,-1
 1058 1243 l 1,2,-1
 1058 1100 l 1,3,-1
 291 730 l 1,4,-1
 1058 359 l 1,5,-1
 1058 216 l 1,6,-1
 106 685 l 1,0,-1
1058 144 m 1,7,-1
 1058 0 l 1,8,-1
 106 0 l 1,9,-1
 106 144 l 1,10,-1
 1058 144 l 1,7,-1
EndSplineSet
Validated: 1
EndChar

StartChar: greaterequal
Encoding: 8805 8805 149
Width: 1124
GlyphClass: 2
Flags: W
LayerCount: 2
Fore
SplineSet
1058 144 m 1,0,-1
 1058 0 l 1,1,-1
 106 0 l 1,2,-1
 106 144 l 1,3,-1
 1058 144 l 1,0,-1
108 216 m 1,4,-1
 108 359 l 1,5,-1
 876 730 l 1,6,-1
 108 1100 l 1,7,-1
 108 1243 l 1,8,-1
 1060 775 l 1,9,-1
 1060 685 l 1,10,-1
 108 216 l 1,4,-1
EndSplineSet
Validated: 1
EndChar

StartChar: yen
Encoding: 165 165 150
Width: 1024
GlyphClass: 2
Flags: W
LayerCount: 2
Fore
SplineSet
131 1275 m 1,0,-1
 143 1341 l 1,1,-1
 616 1341 l 1,2,-1
 604 1275 l 1,3,-1
 488 1249 l 1,4,-1
 597 702 l 1,5,-1
 916 1251 l 1,6,-1
 810 1275 l 1,7,-1
 822 1341 l 1,8,-1
 1153 1341 l 1,9,-1
 1141 1275 l 1,10,-1
 1052 1255 l 1,11,-1
 679 639 l 1,12,-1
 912 639 l 1,13,-1
 894 537 l 1,14,-1
 640 537 l 1,15,-1
 616 399 l 1,16,-1
 870 399 l 1,17,-1
 852 297 l 1,18,-1
 598 297 l 1,19,-1
 561 90 l 1,20,-1
 700 66 l 1,21,-1
 689 0 l 1,22,-1
 135 0 l 1,23,-1
 146 66 l 1,24,-1
 292 90 l 1,25,-1
 329 297 l 1,26,-1
 72 297 l 1,27,-1
 90 399 l 1,28,-1
 347 399 l 1,29,-1
 371 537 l 1,30,-1
 114 537 l 1,31,-1
 132 639 l 1,32,-1
 365 639 l 1,33,-1
 211 1251 l 1,34,-1
 131 1275 l 1,0,-1
EndSplineSet
Validated: 1
EndChar

StartChar: mu
Encoding: 181 181 151
Width: 1180
GlyphClass: 2
Flags: W
LayerCount: 2
Fore
SplineSet
105 874 m 1,0,-1
 118 940 l 1,1,-1
 504 940 l 1,2,-1
 402 371 l 1,3,4
 380 256 380 256 380 215 c 0,5,6
 380 118 380 118 471 118 c 0,7,8
 535 118 535 118 615 189.5 c 128,-1,9
 695 261 695 261 730 346 c 1,10,-1
 836 940 l 1,11,-1
 1102 940 l 1,12,-1
 954 91 l 1,13,-1
 1043 66 l 1,14,-1
 1030 0 l 1,15,-1
 701 0 l 1,16,-1
 704 175 l 1,17,18
 648 93 648 93 575 36.5 c 128,-1,19
 502 -20 502 -20 444 -20 c 0,20,21
 365 -20 365 -20 333 29 c 1,22,23
 289 -221 289 -221 217 -436 c 1,24,-1
 -57 -436 l 1,25,-1
 -49 -391 l 1,26,27
 -15 -320 -15 -320 23 -187.5 c 128,-1,28
 61 -55 61 -55 83 69 c 2,29,-1
 221 850 l 1,30,-1
 105 874 l 1,0,-1
EndSplineSet
Validated: 1
EndChar

StartChar: partialdiff
Encoding: 8706 8706 152
Width: 1012
GlyphClass: 2
Flags: W
LayerCount: 2
Fore
SplineSet
928 938 m 0,0,1
 928 768 928 768 892 579 c 128,-1,2
 856 390 856 390 784.5 252.5 c 128,-1,3
 713 115 713 115 612.5 44 c 128,-1,4
 512 -27 512 -27 388 -27 c 0,5,6
 236 -27 236 -27 152 66.5 c 128,-1,7
 68 160 68 160 68 332 c 0,8,9
 68 487 68 487 138 638 c 128,-1,10
 208 789 208 789 318 864.5 c 128,-1,11
 428 940 428 940 564 940 c 0,12,13
 657 940 657 940 728.5 890.5 c 128,-1,14
 800 841 800 841 834 758 c 1,15,-1
 838 758 l 1,16,-1
 842 874 l 1,17,18
 842 1101 842 1101 767.5 1222 c 128,-1,19
 693 1343 693 1343 551 1343 c 0,20,21
 444 1343 444 1343 323 1259 c 1,22,-1
 287 1292 l 1,23,-1
 392 1442 l 1,24,25
 471 1477 471 1477 549 1477 c 0,26,27
 732 1477 732 1477 830 1338.5 c 128,-1,28
 928 1200 928 1200 928 938 c 0,0,1
813 643 m 1,29,30
 795 735 795 735 734.5 795.5 c 128,-1,31
 674 856 674 856 596 856 c 0,32,33
 505 856 505 856 430 787 c 128,-1,34
 355 718 355 718 306.5 581 c 128,-1,35
 258 444 258 444 258 305 c 0,36,37
 258 181 258 181 310 112 c 128,-1,38
 362 43 362 43 451 43 c 0,39,40
 532 43 532 43 605.5 113.5 c 128,-1,41
 679 184 679 184 735 325 c 128,-1,42
 791 466 791 466 813 643 c 1,29,30
EndSplineSet
Validated: 1
EndChar

StartChar: summation
Encoding: 8721 8721 153
Width: 1460
GlyphClass: 2
Flags: W
LayerCount: 2
Fore
SplineSet
868 647 m 1,0,-1
 868 544 l 1,1,-1
 357 -176 l 1,2,-1
 739 -176 l 2,3,4
 842 -176 842 -176 991.5 -171.5 c 128,-1,5
 1141 -167 1141 -167 1174 -160 c 1,6,-1
 1251 128 l 1,7,-1
 1337 128 l 1,8,-1
 1318 -436 l 1,9,-1
 92 -436 l 1,10,-1
 92 -329 l 1,11,-1
 665 480 l 1,12,-1
 137 1232 l 1,13,-1
 137 1341 l 1,14,-1
 1262 1341 l 1,15,-1
 1262 970 l 1,16,-1
 1176 970 l 1,17,-1
 1114 1217 l 1,18,19
 949 1232 949 1232 802 1232 c 2,20,-1
 458 1232 l 1,21,-1
 868 647 l 1,0,-1
EndSplineSet
Validated: 1
EndChar

StartChar: product
Encoding: 8719 8719 154
Width: 1686
GlyphClass: 2
Flags: W
LayerCount: 2
Fore
SplineSet
88 -436 m 1,0,-1
 88 -362 l 1,1,-1
 260 -336 l 1,2,-1
 260 1241 l 1,3,-1
 88 1268 l 1,4,-1
 88 1341 l 1,5,-1
 1601 1341 l 1,6,-1
 1601 1268 l 1,7,-1
 1428 1241 l 1,8,-1
 1428 -336 l 1,9,-1
 1601 -362 l 1,10,-1
 1601 -436 l 1,11,-1
 940 -436 l 1,12,-1
 940 -362 l 1,13,-1
 1112 -336 l 1,14,-1
 1112 1231 l 1,15,-1
 575 1231 l 1,16,-1
 575 -336 l 1,17,-1
 747 -362 l 1,18,-1
 747 -436 l 1,19,-1
 88 -436 l 1,0,-1
EndSplineSet
Validated: 1
EndChar

StartChar: integral
Encoding: 8747 8747 155
Width: 561
GlyphClass: 2
Flags: W
LayerCount: 2
Fore
SplineSet
206 506 m 1,0,1
 206 774 206 774 220 1047 c 1,2,3
 227 1153 227 1153 276.5 1247.5 c 128,-1,4
 326 1342 326 1342 406 1402 c 128,-1,5
 486 1462 486 1462 556 1462 c 0,6,7
 581 1462 581 1462 625.5 1452 c 128,-1,8
 670 1442 670 1442 685 1430 c 1,9,-1
 685 1421 l 1,10,-1
 667 1355 l 1,11,-1
 651 1290 l 1,12,-1
 630 1290 l 1,13,14
 560 1360 560 1360 503 1360 c 0,15,16
 450 1360 450 1360 415 1281.5 c 128,-1,17
 380 1203 380 1203 380 1079 c 2,18,-1
 384 541 l 2,19,20
 384 468 384 468 380.5 307 c 128,-1,21
 377 146 377 146 368 -137 c 1,22,23
 362 -247 362 -247 311.5 -341 c 128,-1,24
 261 -435 261 -435 183.5 -492 c 128,-1,25
 106 -549 106 -549 36 -549 c 0,26,27
 7 -549 7 -549 -34 -537.5 c 128,-1,28
 -75 -526 -75 -526 -87 -516 c 1,29,-1
 -87 -508 l 1,30,31
 -83 -495 -83 -495 -72.5 -447.5 c 128,-1,32
 -62 -400 -62 -400 -58 -377 c 1,33,-1
 -38 -377 l 1,34,35
 31 -446 31 -446 89 -446 c 0,36,37
 142 -446 142 -446 177 -367.5 c 128,-1,38
 212 -289 212 -289 212 -166 c 1,39,-1
 206 506 l 1,0,1
EndSplineSet
Validated: 1
EndChar

StartChar: ordfeminine
Encoding: 170 170 156
Width: 545
GlyphClass: 2
Flags: W
LayerCount: 2
Fore
SplineSet
584 846 m 1,0,-1
 638 831 l 1,1,-1
 628 782 l 1,2,-1
 425 782 l 1,3,-1
 427 826 l 1,4,5
 347 767 347 767 254 767 c 0,6,7
 181 767 181 767 134.5 826 c 128,-1,8
 88 885 88 885 88 983 c 0,9,10
 88 1088 88 1088 134 1175.5 c 128,-1,11
 180 1263 180 1263 264 1312.5 c 128,-1,12
 348 1362 348 1362 457 1362 c 0,13,14
 520 1362 520 1362 587 1336 c 1,15,-1
 593 1339 l 1,16,-1
 625 1357 l 1,17,-1
 675 1357 l 1,18,-1
 584 846 l 1,0,-1
495 1278 m 1,19,20
 460 1293 460 1293 423 1293 c 0,21,22
 346 1293 346 1293 297 1206.5 c 128,-1,23
 248 1120 248 1120 248 992 c 0,24,25
 248 853 248 853 320 853 c 0,26,27
 368 853 368 853 427 890 c 1,28,-1
 495 1278 l 1,19,20
EndSplineSet
Validated: 1
EndChar

StartChar: ordmasculine
Encoding: 186 186 157
Width: 614
GlyphClass: 2
Flags: W
LayerCount: 2
Fore
SplineSet
364 840 m 0,0,1
 411 840 411 840 446.5 886 c 128,-1,2
 482 932 482 932 503 1010 c 128,-1,3
 524 1088 524 1088 524 1167 c 0,4,5
 524 1290 524 1290 439 1290 c 0,6,7
 371 1290 371 1290 327.5 1190.5 c 128,-1,8
 284 1091 284 1091 284 959 c 0,9,10
 284 840 284 840 364 840 c 0,0,1
351 770 m 0,11,12
 250 770 250 770 187.5 833.5 c 128,-1,13
 125 897 125 897 125 1007 c 0,14,15
 125 1104 125 1104 167.5 1186.5 c 128,-1,16
 210 1269 210 1269 286 1315.5 c 128,-1,17
 362 1362 362 1362 457 1362 c 0,18,19
 558 1362 558 1362 620.5 1298.5 c 128,-1,20
 683 1235 683 1235 683 1125 c 0,21,22
 683 974 683 974 589.5 872 c 128,-1,23
 496 770 496 770 351 770 c 0,11,12
EndSplineSet
Validated: 1
EndChar

StartChar: Ohm
Encoding: 8486 8486 158
Width: 1573
GlyphClass: 2
Flags: W
LayerCount: 2
Fore
SplineSet
787 1255 m 0,0,1
 597 1255 597 1255 494.5 1147 c 128,-1,2
 392 1039 392 1039 392 837 c 0,3,4
 392 660 392 660 467 557 c 128,-1,5
 542 454 542 454 684 432 c 1,6,-1
 707 0 l 1,7,-1
 82 0 l 1,8,-1
 59 384 l 1,9,-1
 145 384 l 1,10,-1
 206 256 l 1,11,12
 286 240 286 240 464 240 c 2,13,-1
 573 240 l 1,14,-1
 568 345 l 1,15,16
 328 379 328 379 194 507 c 128,-1,17
 60 635 60 635 60 837 c 0,18,19
 60 1085 60 1085 249 1220.5 c 128,-1,20
 438 1356 438 1356 787 1356 c 0,21,22
 1135 1356 1135 1356 1324.5 1221 c 128,-1,23
 1514 1086 1514 1086 1514 837 c 0,24,25
 1514 635 1514 635 1380 507 c 128,-1,26
 1246 379 1246 379 1006 345 c 1,27,-1
 1001 240 l 1,28,-1
 1110 240 l 2,29,30
 1288 240 1288 240 1368 256 c 1,31,-1
 1429 384 l 1,32,-1
 1515 384 l 1,33,-1
 1492 0 l 1,34,-1
 867 0 l 1,35,-1
 890 432 l 1,36,37
 1033 454 1033 454 1107.5 557.5 c 128,-1,38
 1182 661 1182 661 1182 837 c 0,39,40
 1182 1038 1182 1038 1080 1146.5 c 128,-1,41
 978 1255 978 1255 787 1255 c 0,0,1
EndSplineSet
Validated: 1
EndChar

StartChar: ae
Encoding: 230 230 159
Width: 1479
GlyphClass: 2
Flags: W
AnchorPoint: "bottom" 602 -86 basechar 0
AnchorPoint: "top" 872 1040 basechar 0
LayerCount: 2
Fore
SplineSet
901 508 m 1,0,1
 984 517 984 517 1053.5 556.5 c 128,-1,2
 1123 596 1123 596 1161.5 654 c 128,-1,3
 1200 712 1200 712 1200 773 c 0,4,5
 1200 815 1200 815 1175.5 836 c 128,-1,6
 1151 857 1151 857 1123 857 c 0,7,8
 1052 857 1052 857 987 752 c 128,-1,9
 922 647 922 647 901 508 c 1,0,1
887 895 m 1,10,11
 938 929 938 929 1005.5 947 c 128,-1,12
 1073 965 1073 965 1135 965 c 0,13,14
 1275 965 1275 965 1354.5 909 c 128,-1,15
 1434 853 1434 853 1434 760 c 0,16,17
 1434 671 1434 671 1367 595 c 128,-1,18
 1300 519 1300 519 1174.5 470 c 128,-1,19
 1049 421 1049 421 887 408 c 1,20,21
 882 388 882 388 882 340 c 0,22,23
 882 227 882 227 931.5 165.5 c 128,-1,24
 981 104 981 104 1073 104 c 0,25,26
 1124 104 1124 104 1175.5 121.5 c 128,-1,27
 1227 139 1227 139 1316 198 c 1,28,-1
 1360 135 l 1,29,30
 1273 62 1273 62 1170 21 c 128,-1,31
 1067 -20 1067 -20 971 -20 c 0,32,33
 716 -20 716 -20 644 158 c 1,34,35
 566 66 566 66 485 22.5 c 128,-1,36
 404 -21 404 -21 310 -21 c 0,37,38
 182 -21 182 -21 104 70.5 c 128,-1,39
 26 162 26 162 26 319 c 0,40,41
 26 491 26 491 102.5 640.5 c 128,-1,42
 179 790 179 790 314.5 877 c 128,-1,43
 450 964 450 964 610 964 c 0,44,45
 666 964 666 964 743.5 945.5 c 128,-1,46
 821 927 821 927 887 895 c 1,10,11
623 264 m 1,47,-1
 620 330 l 1,48,49
 620 455 620 455 662 576 c 128,-1,50
 704 697 704 697 777 788 c 1,51,52
 725 826 725 826 672 844.5 c 128,-1,53
 619 863 619 863 582 863 c 0,54,55
 507 863 507 863 439.5 791.5 c 128,-1,56
 372 720 372 720 330.5 598.5 c 128,-1,57
 289 477 289 477 289 351 c 0,58,59
 289 244 289 244 324 185.5 c 128,-1,60
 359 127 359 127 422 127 c 0,61,62
 466 127 466 127 527.5 170 c 128,-1,63
 589 213 589 213 623 264 c 1,47,-1
EndSplineSet
EndChar

StartChar: oslash
Encoding: 248 248 160
Width: 1024
GlyphClass: 2
Flags: W
LayerCount: 2
Fore
SplineSet
406 -20 m 0,0,1
 278 -20 278 -20 187 41 c 1,2,-1
 80 -84 l 1,3,-1
 -47 -84 l 1,4,-1
 117 106 l 1,5,6
 32 212 32 212 32 374 c 256,7,8
 32 536 32 536 102 672 c 128,-1,9
 172 808 172 808 297.5 886.5 c 128,-1,10
 423 965 423 965 580 965 c 0,11,12
 710 965 710 965 801 901 c 1,13,-1
 905 1022 l 1,14,-1
 1029 1022 l 1,15,-1
 870 837 l 1,16,17
 954 730 954 730 954 571 c 0,18,19
 954 409 954 409 884 273 c 128,-1,20
 814 137 814 137 688.5 58.5 c 128,-1,21
 563 -20 563 -20 406 -20 c 0,0,1
297 315 m 1,22,-1
 670 749 l 1,23,24
 641 866 641 866 558 866 c 0,25,26
 495 866 495 866 433.5 790 c 128,-1,27
 372 714 372 714 334.5 586 c 128,-1,28
 297 458 297 458 297 319 c 2,29,-1
 297 315 l 1,22,-1
429 79 m 0,30,31
 492 79 492 79 552 152 c 128,-1,32
 612 225 612 225 647 348.5 c 128,-1,33
 682 472 682 472 683 619 c 1,34,-1
 314 189 l 1,35,36
 349 79 349 79 429 79 c 0,30,31
EndSplineSet
Validated: 1
EndChar

StartChar: questiondown
Encoding: 191 191 161
Width: 1024
GlyphClass: 2
Flags: W
LayerCount: 2
Fore
SplineSet
318 -123 m 0,0,1
 318 -326 318 -326 507 -326 c 0,2,3
 545 -326 545 -326 586.5 -312.5 c 128,-1,4
 628 -299 628 -299 654 -279 c 1,5,-1
 719 -85 l 1,6,-1
 808 -85 l 1,7,-1
 768 -380 l 1,8,9
 610 -428 610 -428 456 -428 c 0,10,11
 250 -428 250 -428 149 -349.5 c 128,-1,12
 48 -271 48 -271 48 -127 c 0,13,14
 48 44 48 44 133 153 c 128,-1,15
 218 262 218 262 410 312 c 2,16,-1
 501 336 l 1,17,-1
 564 538 l 1,18,-1
 667 538 l 1,19,-1
 669 225 l 1,20,-1
 569 200 l 2,21,22
 435 166 435 166 376.5 90.5 c 128,-1,23
 318 15 318 15 318 -123 c 0,0,1
648 957 m 256,24,25
 718 957 718 957 765.5 909 c 128,-1,26
 813 861 813 861 813 791 c 256,27,28
 813 721 813 721 765.5 673 c 128,-1,29
 718 625 718 625 648 625 c 0,30,31
 579 625 579 625 530.5 673 c 128,-1,32
 482 721 482 721 482 791 c 0,33,34
 482 860 482 860 530 908.5 c 128,-1,35
 578 957 578 957 648 957 c 256,24,25
EndSplineSet
Validated: 1
EndChar

StartChar: exclamdown
Encoding: 161 161 162
Width: 797
GlyphClass: 2
Flags: W
LayerCount: 2
Fore
SplineSet
340 512 m 1,0,-1
 435 512 l 1,1,-1
 375 -409 l 1,2,-1
 76 -409 l 1,3,-1
 340 512 l 1,0,-1
433 961 m 0,4,5
 502 961 502 961 550.5 913 c 128,-1,6
 599 865 599 865 599 795 c 0,7,8
 599 726 599 726 551 677.5 c 128,-1,9
 503 629 503 629 433 629 c 0,10,11
 364 629 364 629 315.5 677 c 128,-1,12
 267 725 267 725 267 795 c 0,13,14
 267 864 267 864 315 912.5 c 128,-1,15
 363 961 363 961 433 961 c 0,4,5
EndSplineSet
Validated: 1
EndChar

StartChar: logicalnot
Encoding: 172 172 163
Width: 1241
GlyphClass: 2
Flags: W
LayerCount: 2
Fore
SplineSet
1067 752 m 1,0,-1
 1067 203 l 1,1,-1
 925 203 l 1,2,-1
 925 608 l 1,3,-1
 114 608 l 1,4,-1
 114 752 l 1,5,-1
 1067 752 l 1,0,-1
EndSplineSet
Validated: 1
EndChar

StartChar: radical
Encoding: 8730 8730 164
Width: 1124
GlyphClass: 2
Flags: W
LayerCount: 2
Fore
SplineSet
643 -14 m 1,0,-1
 536 -14 l 1,1,-1
 239 815 l 1,2,-1
 71 815 l 1,3,-1
 71 895 l 1,4,-1
 342 895 l 1,5,-1
 600 158 l 1,6,-1
 1052 1620 l 1,7,-1
 1142 1620 l 1,8,-1
 643 -14 l 1,0,-1
EndSplineSet
Validated: 1
EndChar

StartChar: florin
Encoding: 402 402 165
Width: 1024
GlyphClass: 2
Flags: W
LayerCount: 2
Fore
SplineSet
160 -285 m 1,0,-1
 331 693 l 1,1,-1
 162 693 l 1,2,-1
 177 762 l 1,3,-1
 350 796 l 1,4,-1
 389 1022 l 1,5,6
 415 1179 415 1179 508.5 1270.5 c 128,-1,7
 602 1362 602 1362 746 1362 c 0,8,9
 874 1362 874 1362 952 1343 c 1,10,-1
 942 1119 l 1,11,-1
 878 1119 l 1,12,-1
 850 1232 l 1,13,14
 823 1252 823 1252 787 1252 c 0,15,16
 747 1252 747 1252 722.5 1206 c 128,-1,17
 698 1160 698 1160 672 1021 c 1,18,-1
 632 797 l 1,19,-1
 871 797 l 1,20,-1
 852 693 l 1,21,-1
 613 693 l 1,22,-1
 442 -285 l 1,23,-1
 160 -285 l 1,0,-1
EndSplineSet
Validated: 1
EndChar

StartChar: Delta
Encoding: 8710 8710 167
Width: 1253
GlyphClass: 2
Flags: W
LayerCount: 2
Fore
SplineSet
1237 0 m 1,0,-1
 16 0 l 1,1,-1
 16 97 l 1,2,-1
 476 1352 l 1,3,-1
 766 1352 l 1,4,-1
 1237 97 l 1,5,-1
 1237 0 l 1,0,-1
152 119 m 1,6,-1
 905 119 l 1,7,-1
 521 1148 l 1,8,-1
 152 119 l 1,6,-1
EndSplineSet
Validated: 1
EndChar

StartChar: guillemotleft
Encoding: 171 171 168
Width: 1024
GlyphClass: 2
Flags: W
LayerCount: 2
Fore
SplineSet
475 852 m 1,0,-1
 576 852 l 1,1,-1
 314 463 l 1,2,-1
 439 74 l 1,3,-1
 338 74 l 1,4,-1
 80 430 l 1,5,-1
 92 496 l 1,6,-1
 475 852 l 1,0,-1
885 852 m 1,7,-1
 985 852 l 1,8,-1
 724 463 l 1,9,-1
 848 74 l 1,10,-1
 748 74 l 1,11,-1
 490 430 l 1,12,-1
 502 496 l 1,13,-1
 885 852 l 1,7,-1
EndSplineSet
Validated: 1
EndChar

StartChar: guillemotright
Encoding: 187 187 169
Width: 1024
GlyphClass: 2
Flags: W
LayerCount: 2
Fore
SplineSet
508 74 m 1,0,-1
 407 74 l 1,1,-1
 668 463 l 1,2,-1
 544 852 l 1,3,-1
 645 852 l 1,4,-1
 902 496 l 1,5,-1
 890 430 l 1,6,-1
 508 74 l 1,0,-1
98 74 m 1,7,-1
 -2 74 l 1,8,-1
 258 463 l 1,9,-1
 135 852 l 1,10,-1
 235 852 l 1,11,-1
 492 496 l 1,12,-1
 480 430 l 1,13,-1
 98 74 l 1,7,-1
EndSplineSet
Validated: 1
EndChar

StartChar: ellipsis
Encoding: 8230 8230 170
Width: 2048
GlyphClass: 2
Flags: W
LayerCount: 2
Fore
SplineSet
263 -29 m 0,0,1
 194 -29 194 -29 145.5 19 c 128,-1,2
 97 67 97 67 97 137 c 0,3,4
 97 206 97 206 145 254.5 c 128,-1,5
 193 303 193 303 263 303 c 0,6,7
 332 303 332 303 380.5 255 c 128,-1,8
 429 207 429 207 429 137 c 0,9,10
 429 68 429 68 381 19.5 c 128,-1,11
 333 -29 333 -29 263 -29 c 0,0,1
953 -29 m 0,12,13
 884 -29 884 -29 835.5 19 c 128,-1,14
 787 67 787 67 787 137 c 0,15,16
 787 206 787 206 835 254.5 c 128,-1,17
 883 303 883 303 953 303 c 0,18,19
 1022 303 1022 303 1070.5 255 c 128,-1,20
 1119 207 1119 207 1119 137 c 0,21,22
 1119 68 1119 68 1071 19.5 c 128,-1,23
 1023 -29 1023 -29 953 -29 c 0,12,13
1643 -29 m 0,24,25
 1574 -29 1574 -29 1525.5 19 c 128,-1,26
 1477 67 1477 67 1477 137 c 0,27,28
 1477 206 1477 206 1525 254.5 c 128,-1,29
 1573 303 1573 303 1643 303 c 0,30,31
 1712 303 1712 303 1760.5 255 c 128,-1,32
 1809 207 1809 207 1809 137 c 0,33,34
 1809 68 1809 68 1761 19.5 c 128,-1,35
 1713 -29 1713 -29 1643 -29 c 0,24,25
EndSplineSet
Validated: 1
EndChar

StartChar: OE
Encoding: 338 338 174
Width: 1933
GlyphClass: 2
Flags: W
LayerCount: 2
Fore
SplineSet
636 -7 m 0,0,1
 382 -7 382 -7 226.5 138.5 c 128,-1,2
 71 284 71 284 71 524 c 0,3,4
 71 762 71 762 166.5 951 c 128,-1,5
 262 1140 262 1140 439.5 1244.5 c 128,-1,6
 617 1349 617 1349 853 1349 c 0,7,8
 944 1349 944 1349 1054 1341 c 1,9,-1
 1847 1341 l 1,10,-1
 1787 1000 l 1,11,-1
 1696 1000 l 1,12,-1
 1702 1217 l 1,13,14
 1593 1231 1593 1231 1369 1231 c 2,15,-1
 1311 1231 l 1,16,-1
 1224 739 l 1,17,-1
 1437 739 l 1,18,-1
 1494 887 l 1,19,-1
 1583 887 l 1,20,-1
 1510 475 l 1,21,-1
 1421 475 l 1,22,-1
 1417 627 l 1,23,-1
 1204 627 l 1,24,-1
 1113 110 l 1,25,-1
 1216 110 l 2,26,27
 1484 110 1484 110 1569 126 c 1,28,-1
 1669 374 l 1,29,-1
 1760 374 l 1,30,-1
 1676 0 l 1,31,-1
 801 0 l 1,32,33
 680 -7 680 -7 636 -7 c 0,0,1
654 93 m 0,34,35
 751 93 751 93 819 117 c 1,36,-1
 1013 1219 l 1,37,38
 950 1238 950 1238 912 1243 c 128,-1,39
 874 1248 874 1248 839 1248 c 0,40,41
 711 1248 711 1248 606 1148 c 128,-1,42
 501 1048 501 1048 436.5 860.5 c 128,-1,43
 372 673 372 673 372 485 c 0,44,45
 372 300 372 300 445 196.5 c 128,-1,46
 518 93 518 93 654 93 c 0,34,35
EndSplineSet
Validated: 1
EndChar

StartChar: oe
Encoding: 339 339 175
Width: 1479
GlyphClass: 2
Flags: W
LayerCount: 2
Fore
SplineSet
1436 760 m 0,0,1
 1436 670 1436 670 1370 594 c 128,-1,2
 1304 518 1304 518 1179.5 469 c 128,-1,3
 1055 420 1055 420 897 408 c 1,4,5
 892 388 892 388 892 340 c 0,6,7
 892 104 892 104 1073 104 c 0,8,9
 1147 104 1147 104 1210 132.5 c 128,-1,10
 1273 161 1273 161 1328 198 c 1,11,-1
 1372 135 l 1,12,13
 1287 64 1287 64 1187 22 c 128,-1,14
 1087 -20 1087 -20 994 -20 c 0,15,16
 790 -20 790 -20 707 107 c 1,17,18
 580 -20 580 -20 391 -20 c 0,19,20
 45 -20 45 -20 45 320 c 0,21,22
 45 491 45 491 106.5 649 c 128,-1,23
 168 807 168 807 284.5 886 c 128,-1,24
 401 965 401 965 573 965 c 0,25,26
 759 965 759 965 838 833 c 1,27,28
 966 965 966 965 1135 965 c 0,29,30
 1282 965 1282 965 1359 911 c 128,-1,31
 1436 857 1436 857 1436 760 c 0,0,1
660 696 m 0,32,33
 660 781 660 781 634 822.5 c 128,-1,34
 608 864 608 864 549 864 c 0,35,36
 474 864 474 864 426.5 788.5 c 128,-1,37
 379 713 379 713 343 531 c 128,-1,38
 307 349 307 349 307 242 c 0,39,40
 307 161 307 161 330.5 120.5 c 128,-1,41
 354 80 354 80 411 80 c 0,42,43
 488 80 488 80 538.5 159 c 128,-1,44
 589 238 589 238 624.5 417 c 128,-1,45
 660 596 660 596 660 696 c 0,32,33
913 508 m 1,46,47
 1035 521 1035 521 1113.5 596.5 c 128,-1,48
 1192 672 1192 672 1192 773 c 0,49,50
 1192 815 1192 815 1171.5 836 c 128,-1,51
 1151 857 1151 857 1123 857 c 0,52,53
 1054 857 1054 857 994.5 755 c 128,-1,54
 935 653 935 653 913 508 c 1,46,47
EndSplineSet
Validated: 1
EndChar

StartChar: endash
Encoding: 8211 8211 176
Width: 1024
GlyphClass: 2
Flags: W
LayerCount: 2
Fore
SplineSet
1019 549 m 1,0,-1
 1019 406 l 1,1,-1
 -33 406 l 1,2,-1
 -33 549 l 1,3,-1
 1019 549 l 1,0,-1
EndSplineSet
Validated: 1
EndChar

StartChar: emdash
Encoding: 8212 8212 177
Width: 2048
GlyphClass: 2
Flags: W
LayerCount: 2
Fore
SplineSet
2045 549 m 1,0,-1
 2045 406 l 1,1,-1
 -31 406 l 1,2,-1
 -31 549 l 1,3,-1
 2045 549 l 1,0,-1
EndSplineSet
Validated: 1
EndChar

StartChar: quotedblleft
Encoding: 8220 8220 178
Width: 1024
GlyphClass: 2
Flags: W
LayerCount: 2
Fore
SplineSet
194 938 m 0,0,1
 194 1095 194 1095 293 1203.5 c 128,-1,2
 392 1312 392 1312 581 1361 c 1,3,-1
 581 1269 l 1,4,5
 525 1254 525 1254 484 1223.5 c 128,-1,6
 443 1193 443 1193 421 1155 c 128,-1,7
 399 1117 399 1117 399 1083 c 0,8,9
 399 1061 399 1061 413.5 1044.5 c 128,-1,10
 428 1028 428 1028 470 1003 c 1,11,12
 540 959 540 959 540 876 c 0,13,14
 540 811 540 811 495 777 c 128,-1,15
 450 743 450 743 381 743 c 0,16,17
 297 743 297 743 245.5 797 c 128,-1,18
 194 851 194 851 194 938 c 0,0,1
614 938 m 0,19,20
 614 1095 614 1095 713 1203.5 c 128,-1,21
 812 1312 812 1312 1001 1361 c 1,22,-1
 1001 1269 l 1,23,24
 945 1254 945 1254 904 1223.5 c 128,-1,25
 863 1193 863 1193 841 1155 c 128,-1,26
 819 1117 819 1117 819 1083 c 0,27,28
 819 1061 819 1061 833.5 1044.5 c 128,-1,29
 848 1028 848 1028 890 1003 c 1,30,31
 960 959 960 959 960 876 c 0,32,33
 960 811 960 811 915 777 c 128,-1,34
 870 743 870 743 801 743 c 0,35,36
 717 743 717 743 665.5 797 c 128,-1,37
 614 851 614 851 614 938 c 0,19,20
EndSplineSet
Validated: 1
EndChar

StartChar: quotedblright
Encoding: 8221 8221 179
Width: 1024
GlyphClass: 2
Flags: W
LayerCount: 2
Fore
SplineSet
990 1166 m 0,0,1
 990 1009 990 1009 891 900.5 c 128,-1,2
 792 792 792 792 603 743 c 1,3,-1
 603 835 l 1,4,5
 659 850 659 850 700 880.5 c 128,-1,6
 741 911 741 911 763 949 c 128,-1,7
 785 987 785 987 785 1021 c 0,8,9
 785 1043 785 1043 770.5 1059.5 c 128,-1,10
 756 1076 756 1076 715 1102 c 0,11,12
 644 1145 644 1145 644 1228 c 0,13,14
 644 1293 644 1293 689 1327 c 128,-1,15
 734 1361 734 1361 803 1361 c 0,16,17
 887 1361 887 1361 938.5 1307 c 128,-1,18
 990 1253 990 1253 990 1166 c 0,0,1
570 1166 m 0,19,20
 570 1009 570 1009 471 900.5 c 128,-1,21
 372 792 372 792 183 743 c 1,22,-1
 183 835 l 1,23,24
 239 850 239 850 280 880.5 c 128,-1,25
 321 911 321 911 343 949 c 128,-1,26
 365 987 365 987 365 1021 c 0,27,28
 365 1043 365 1043 350.5 1059.5 c 128,-1,29
 336 1076 336 1076 295 1102 c 0,30,31
 224 1145 224 1145 224 1228 c 0,32,33
 224 1293 224 1293 269 1327 c 128,-1,34
 314 1361 314 1361 383 1361 c 0,35,36
 467 1361 467 1361 518.5 1307 c 128,-1,37
 570 1253 570 1253 570 1166 c 0,19,20
EndSplineSet
Validated: 1
EndChar

StartChar: quoteleft
Encoding: 8216 8216 180
Width: 682
GlyphClass: 2
Flags: W
LayerCount: 2
Fore
SplineSet
232 938 m 0,0,1
 232 1095 232 1095 331 1203.5 c 128,-1,2
 430 1312 430 1312 619 1361 c 1,3,-1
 619 1269 l 1,4,5
 563 1254 563 1254 522 1223.5 c 128,-1,6
 481 1193 481 1193 459 1155 c 128,-1,7
 437 1117 437 1117 437 1083 c 0,8,9
 437 1061 437 1061 451.5 1044.5 c 128,-1,10
 466 1028 466 1028 508 1003 c 1,11,12
 578 959 578 959 578 876 c 0,13,14
 578 811 578 811 533 777 c 128,-1,15
 488 743 488 743 419 743 c 0,16,17
 335 743 335 743 283.5 797 c 128,-1,18
 232 851 232 851 232 938 c 0,0,1
EndSplineSet
Validated: 1
EndChar

StartChar: quoteright
Encoding: 8217 8217 181
Width: 682
GlyphClass: 2
Flags: W
LayerCount: 2
Fore
SplineSet
609 1166 m 0,0,1
 609 1009 609 1009 510 900.5 c 128,-1,2
 411 792 411 792 222 743 c 1,3,-1
 222 835 l 1,4,5
 278 850 278 850 319 880.5 c 128,-1,6
 360 911 360 911 382 949 c 128,-1,7
 404 987 404 987 404 1021 c 0,8,9
 404 1043 404 1043 389.5 1059.5 c 128,-1,10
 375 1076 375 1076 334 1102 c 0,11,12
 263 1145 263 1145 263 1228 c 0,13,14
 263 1293 263 1293 308 1327 c 128,-1,15
 353 1361 353 1361 422 1361 c 0,16,17
 506 1361 506 1361 557.5 1307 c 128,-1,18
 609 1253 609 1253 609 1166 c 0,0,1
EndSplineSet
Validated: 1
EndChar

StartChar: divide
Encoding: 247 247 182
Width: 1124
GlyphClass: 2
Flags: W
LayerCount: 2
Fore
SplineSet
1052 751 m 1,0,-1
 1052 608 l 1,1,-1
 100 608 l 1,2,-1
 100 751 l 1,3,-1
 1052 751 l 1,0,-1
575 183 m 256,4,5
 519 183 519 183 480 222 c 128,-1,6
 441 261 441 261 441 317 c 256,7,8
 441 373 441 373 480 412 c 128,-1,9
 519 451 519 451 575 451 c 256,10,11
 631 451 631 451 670 412 c 128,-1,12
 709 373 709 373 709 317 c 256,13,14
 709 261 709 261 670 222 c 128,-1,15
 631 183 631 183 575 183 c 256,4,5
575 909 m 256,16,17
 519 909 519 909 480 948 c 128,-1,18
 441 987 441 987 441 1043 c 256,19,20
 441 1099 441 1099 480 1138 c 128,-1,21
 519 1177 519 1177 575 1177 c 256,22,23
 631 1177 631 1177 670 1138 c 128,-1,24
 709 1099 709 1099 709 1043 c 256,25,26
 709 987 709 987 670 948 c 128,-1,27
 631 909 631 909 575 909 c 256,16,17
EndSplineSet
Validated: 1
EndChar

StartChar: lozenge
Encoding: 9674 9674 183
Width: 1012
GlyphClass: 2
Flags: W
LayerCount: 2
Fore
SplineSet
567 0 m 1,0,-1
 485 0 l 1,1,-1
 28 719 l 1,2,-1
 485 1440 l 1,3,-1
 567 1440 l 1,4,-1
 1026 721 l 1,5,-1
 567 0 l 1,0,-1
528 1286 m 1,6,-1
 174 721 l 1,7,-1
 528 147 l 1,8,-1
 880 721 l 1,9,-1
 528 1286 l 1,6,-1
EndSplineSet
Validated: 1
EndChar

StartChar: fraction
Encoding: 8260 8260 186
Width: 342
GlyphClass: 2
Flags: W
LayerCount: 2
Fore
SplineSet
-242 0 m 1,0,-1
 -365 0 l 1,1,-1
 600 1341 l 1,2,-1
 720 1341 l 1,3,-1
 -242 0 l 1,0,-1
EndSplineSet
Validated: 1
EndChar

StartChar: Euro
Encoding: 8364 8364 187
Width: 1024
GlyphClass: 2
Flags: W
LayerCount: 2
Fore
SplineSet
7 594 m 1,0,-1
 117 594 l 1,1,2
 128 674 128 674 143 738 c 1,3,-1
 33 738 l 1,4,-1
 50 839 l 1,5,-1
 168 839 l 1,6,7
 247 1104 247 1104 393 1230 c 128,-1,8
 539 1356 539 1356 759 1356 c 0,9,10
 858 1356 858 1356 927 1348 c 128,-1,11
 996 1340 996 1340 1079 1323 c 1,12,-1
 1033 1038 l 1,13,-1
 944 1038 l 1,14,-1
 942 1188 l 1,15,16
 869 1253 869 1253 765 1253 c 0,17,18
 650 1253 650 1253 566 1144 c 128,-1,19
 482 1035 482 1035 434 839 c 1,20,-1
 718 839 l 1,21,-1
 701 738 l 1,22,-1
 414 738 l 1,23,24
 407 717 407 717 398.5 669.5 c 128,-1,25
 390 622 390 622 388 594 c 1,26,-1
 675 594 l 1,27,-1
 657 493 l 1,28,-1
 373 493 l 1,29,-1
 369 400 l 1,30,31
 369 239 369 239 423 161 c 128,-1,32
 477 83 477 83 567 83 c 0,33,34
 694 83 694 83 779 163 c 1,35,-1
 836 328 l 1,36,-1
 925 328 l 1,37,-1
 869 30 l 1,38,39
 697 -20 697 -20 524 -20 c 0,40,41
 319 -20 319 -20 212.5 97 c 128,-1,42
 106 214 106 214 106 442 c 2,43,-1
 106 468 l 1,44,-1
 107 493 l 1,45,-1
 -11 493 l 1,46,-1
 7 594 l 1,0,-1
EndSplineSet
Validated: 1
EndChar

StartChar: guilsinglleft
Encoding: 8249 8249 188
Width: 682
GlyphClass: 2
Flags: W
LayerCount: 2
Fore
SplineSet
507 851 m 1,0,-1
 607 851 l 1,1,-1
 346 462 l 1,2,-1
 470 74 l 1,3,-1
 370 74 l 1,4,-1
 112 429 l 1,5,-1
 124 495 l 1,6,-1
 507 851 l 1,0,-1
EndSplineSet
Validated: 1
EndChar

StartChar: guilsinglright
Encoding: 8250 8250 189
Width: 682
GlyphClass: 2
Flags: W
LayerCount: 2
Fore
SplineSet
129 74 m 1,0,-1
 29 74 l 1,1,-1
 289 463 l 1,2,-1
 166 852 l 1,3,-1
 266 852 l 1,4,-1
 523 496 l 1,5,-1
 511 430 l 1,6,-1
 129 74 l 1,0,-1
EndSplineSet
Validated: 1
EndChar

StartChar: daggerdbl
Encoding: 8225 8225 190
Width: 1024
GlyphClass: 2
Flags: W
LayerCount: 2
Fore
SplineSet
490 156 m 1,0,-1
 488 -240 l 1,1,-1
 250 -240 l 1,2,-1
 384 156 l 1,3,-1
 -33 92 l 1,4,-1
 9 330 l 1,5,-1
 403 262 l 1,6,-1
 347 412 l 1,7,-1
 471 590 l 1,8,-1
 410 770 l 1,9,-1
 519 920 l 1,10,-1
 101 854 l 1,11,-1
 143 1090 l 1,12,-1
 537 1026 l 1,13,-1
 543 1421 l 1,14,-1
 781 1421 l 1,15,-1
 643 1026 l 1,16,-1
 1061 1090 l 1,17,-1
 1019 854 l 1,18,-1
 625 920 l 1,19,-1
 684 770 l 1,20,-1
 557 590 l 1,21,-1
 621 412 l 1,22,-1
 509 262 l 1,23,-1
 927 330 l 1,24,-1
 885 92 l 1,25,-1
 490 156 l 1,0,-1
EndSplineSet
Validated: 1
EndChar

StartChar: bulletoperator
Encoding: 8729 8729 191
Width: 512
GlyphClass: 2
Flags: W
LayerCount: 2
Fore
SplineSet
270 511 m 0,0,1
 201 511 201 511 152.5 559 c 128,-1,2
 104 607 104 607 104 677 c 0,3,4
 104 746 104 746 152 794.5 c 128,-1,5
 200 843 200 843 270 843 c 0,6,7
 339 843 339 843 387.5 795 c 128,-1,8
 436 747 436 747 436 677 c 0,9,10
 436 608 436 608 388 559.5 c 128,-1,11
 340 511 340 511 270 511 c 0,0,1
EndSplineSet
Validated: 1
EndChar

StartChar: quotesinglbase
Encoding: 8218 8218 192
Width: 682
GlyphClass: 2
Flags: W
LayerCount: 2
Fore
SplineSet
422 106 m 0,0,1
 422 -51 422 -51 323 -159.5 c 128,-1,2
 224 -268 224 -268 35 -317 c 1,3,-1
 35 -225 l 1,4,5
 91 -210 91 -210 132 -179.5 c 128,-1,6
 173 -149 173 -149 195 -111 c 128,-1,7
 217 -73 217 -73 217 -39 c 0,8,9
 217 -17 217 -17 202.5 -0.5 c 128,-1,10
 188 16 188 16 147 42 c 0,11,12
 76 85 76 85 76 168 c 0,13,14
 76 233 76 233 121 267 c 128,-1,15
 166 301 166 301 235 301 c 0,16,17
 319 301 319 301 370.5 247 c 128,-1,18
 422 193 422 193 422 106 c 0,0,1
EndSplineSet
Validated: 1
EndChar

StartChar: quotedblbase
Encoding: 8222 8222 193
Width: 1024
GlyphClass: 2
Flags: W
LayerCount: 2
Fore
SplineSet
811 106 m 0,0,1
 811 -51 811 -51 712 -159.5 c 128,-1,2
 613 -268 613 -268 424 -317 c 1,3,-1
 424 -225 l 1,4,5
 480 -210 480 -210 521 -179.5 c 128,-1,6
 562 -149 562 -149 584 -111 c 128,-1,7
 606 -73 606 -73 606 -39 c 0,8,9
 606 -17 606 -17 591.5 -0.5 c 128,-1,10
 577 16 577 16 536 42 c 0,11,12
 465 85 465 85 465 168 c 0,13,14
 465 233 465 233 510 267 c 128,-1,15
 555 301 555 301 624 301 c 0,16,17
 708 301 708 301 759.5 247 c 128,-1,18
 811 193 811 193 811 106 c 0,0,1
391 106 m 0,19,20
 391 -51 391 -51 292 -159.5 c 128,-1,21
 193 -268 193 -268 4 -317 c 1,22,-1
 4 -225 l 1,23,24
 60 -210 60 -210 101 -179.5 c 128,-1,25
 142 -149 142 -149 164 -111 c 128,-1,26
 186 -73 186 -73 186 -39 c 0,27,28
 186 -17 186 -17 171.5 -0.5 c 128,-1,29
 157 16 157 16 116 42 c 0,30,31
 45 85 45 85 45 168 c 0,32,33
 45 233 45 233 90 267 c 128,-1,34
 135 301 135 301 204 301 c 0,35,36
 288 301 288 301 339.5 247 c 128,-1,37
 391 193 391 193 391 106 c 0,19,20
EndSplineSet
Validated: 1
EndChar

StartChar: perthousand
Encoding: 8240 8240 194
Width: 2048
GlyphClass: 2
Flags: W
LayerCount: 2
Fore
SplineSet
196 -20 m 1,0,-1
 46 -20 l 1,1,-1
 1238 1362 l 1,2,-1
 1389 1362 l 1,3,-1
 196 -20 l 1,0,-1
748 1119 m 0,4,5
 748 1073 748 1073 738 1015 c 0,6,7
 676 663 676 663 372 663 c 0,8,9
 119 663 119 663 119 908 c 0,10,11
 119 1115 119 1115 219 1238.5 c 128,-1,12
 319 1362 319 1362 491 1362 c 0,13,14
 617 1362 617 1362 682.5 1301 c 128,-1,15
 748 1240 748 1240 748 1119 c 0,4,5
310 884 m 0,16,17
 310 757 310 757 380 757 c 0,18,19
 429 757 429 757 469 810 c 128,-1,20
 509 863 509 863 531 955.5 c 128,-1,21
 553 1048 553 1048 553 1126 c 0,22,23
 553 1195 553 1195 536 1231.5 c 128,-1,24
 519 1268 519 1268 477 1268 c 0,25,26
 428 1268 428 1268 390.5 1214 c 128,-1,27
 353 1160 353 1160 331.5 1061 c 128,-1,28
 310 962 310 962 310 884 c 0,16,17
1310 429 m 0,29,30
 1310 222 1310 222 1207.5 97.5 c 128,-1,31
 1105 -27 1105 -27 934 -27 c 0,32,33
 681 -27 681 -27 681 218 c 0,34,35
 681 425 681 425 781 548.5 c 128,-1,36
 881 672 881 672 1053 672 c 0,37,38
 1179 672 1179 672 1244.5 611 c 128,-1,39
 1310 550 1310 550 1310 429 c 0,29,30
872 194 m 0,40,41
 872 67 872 67 942 67 c 0,42,43
 991 67 991 67 1031 120 c 128,-1,44
 1071 173 1071 173 1093 265.5 c 128,-1,45
 1115 358 1115 358 1115 436 c 0,46,47
 1115 505 1115 505 1098 541.5 c 128,-1,48
 1081 578 1081 578 1039 578 c 0,49,50
 990 578 990 578 952.5 524 c 128,-1,51
 915 470 915 470 893.5 371 c 128,-1,52
 872 272 872 272 872 194 c 0,40,41
1979 429 m 0,53,54
 1979 383 1979 383 1969 325 c 0,55,56
 1907 -27 1907 -27 1603 -27 c 0,57,58
 1350 -27 1350 -27 1350 218 c 0,59,60
 1350 425 1350 425 1450 548.5 c 128,-1,61
 1550 672 1550 672 1722 672 c 0,62,63
 1848 672 1848 672 1913.5 611 c 128,-1,64
 1979 550 1979 550 1979 429 c 0,53,54
1541 194 m 0,65,66
 1541 67 1541 67 1611 67 c 0,67,68
 1660 67 1660 67 1700 120 c 128,-1,69
 1740 173 1740 173 1762 265.5 c 128,-1,70
 1784 358 1784 358 1784 436 c 0,71,72
 1784 505 1784 505 1767 541.5 c 128,-1,73
 1750 578 1750 578 1708 578 c 0,74,75
 1659 578 1659 578 1621.5 524 c 128,-1,76
 1584 470 1584 470 1562.5 371 c 128,-1,77
 1541 272 1541 272 1541 194 c 0,65,66
EndSplineSet
Validated: 1
EndChar

StartChar: dotlessi
Encoding: 305 305 210
Width: 569
GlyphClass: 2
Flags: W
LayerCount: 2
Fore
SplineSet
332 90 m 1,0,-1
 451 66 l 1,1,-1
 440 0 l 1,2,-1
 47 0 l 1,3,-1
 197 850 l 1,4,-1
 106 874 l 1,5,-1
 117 940 l 1,6,-1
 482 940 l 1,7,-1
 332 90 l 1,0,-1
EndSplineSet
Validated: 1
EndChar

StartChar: circumflex
Encoding: 710 710 211
Width: 682
GlyphClass: 2
Flags: W
LayerCount: 2
Fore
SplineSet
113 1118 m 1,0,-1
 119 1151 l 1,1,-1
 388 1444 l 1,2,-1
 601 1444 l 1,3,-1
 767 1151 l 1,4,-1
 761 1118 l 1,5,-1
 685 1118 l 1,6,-1
 465 1280 l 1,7,-1
 189 1118 l 1,8,-1
 113 1118 l 1,0,-1
EndSplineSet
Validated: 1
EndChar

StartChar: tilde
Encoding: 732 732 212
Width: 682
GlyphClass: 2
Flags: W
LayerCount: 2
Fore
SplineSet
555 1090 m 0,0,1
 470 1090 470 1090 374 1178 c 0,2,3
 325 1223 325 1223 292 1223 c 0,4,5
 254 1223 254 1223 233 1197 c 128,-1,6
 212 1171 212 1171 193 1108 c 1,7,-1
 94 1108 l 1,8,9
 161 1395 161 1395 363 1395 c 0,10,11
 416 1395 416 1395 458 1371 c 128,-1,12
 500 1347 500 1347 546 1309 c 1,13,14
 598 1264 598 1264 627 1264 c 0,15,16
 664 1264 664 1264 685 1289.5 c 128,-1,17
 706 1315 706 1315 726 1376 c 1,18,-1
 825 1376 l 1,19,20
 787 1224 787 1224 720 1157 c 128,-1,21
 653 1090 653 1090 555 1090 c 0,0,1
EndSplineSet
Validated: 1
EndChar

StartChar: firsttonechinese
Encoding: 713 713 213
Width: 682
GlyphClass: 2
Flags: W
LayerCount: 2
Fore
SplineSet
129 1151 m 5,0,-1
 155 1301 l 5,1,-1
 783 1301 l 5,2,-1
 757 1151 l 5,3,-1
 129 1151 l 5,0,-1
EndSplineSet
Validated: 1
EndChar

StartChar: breve
Encoding: 728 728 214
Width: 682
GlyphClass: 2
Flags: W
LayerCount: 2
Fore
SplineSet
431 1118 m 0,0,1
 311 1118 311 1118 246 1180.5 c 128,-1,2
 181 1243 181 1243 181 1363 c 0,3,4
 181 1400 181 1400 187 1441 c 1,5,-1
 308 1441 l 1,6,7
 315 1310 315 1310 465 1310 c 256,8,9
 615 1310 615 1310 668 1441 c 1,10,-1
 789 1441 l 1,11,12
 758 1287 758 1287 664.5 1202.5 c 128,-1,13
 571 1118 571 1118 431 1118 c 0,0,1
EndSplineSet
Validated: 1
EndChar

StartChar: dotaccent
Encoding: 729 729 215
Width: 682
GlyphClass: 2
Flags: W
LayerCount: 2
Fore
SplineSet
307 1291 m 256,0,1
 307 1356 307 1356 352.5 1400 c 128,-1,2
 398 1444 398 1444 461 1444 c 0,3,4
 525 1444 525 1444 569.5 1399.5 c 128,-1,5
 614 1355 614 1355 614 1291 c 0,6,7
 614 1228 614 1228 570 1182.5 c 128,-1,8
 526 1137 526 1137 461 1137 c 0,9,10
 397 1137 397 1137 352 1181.5 c 128,-1,11
 307 1226 307 1226 307 1291 c 256,0,1
EndSplineSet
Validated: 1
EndChar

StartChar: ring
Encoding: 730 730 216
Width: 682
GlyphClass: 2
Flags: W
LayerCount: 2
Fore
SplineSet
461 1059 m 0,0,1
 374 1059 374 1059 312 1120.5 c 128,-1,2
 250 1182 250 1182 250 1272 c 256,3,4
 250 1362 250 1362 311.5 1422.5 c 128,-1,5
 373 1483 373 1483 461 1483 c 256,6,7
 549 1483 549 1483 610.5 1422.5 c 128,-1,8
 672 1362 672 1362 672 1272 c 0,9,10
 672 1183 672 1183 610.5 1121 c 128,-1,11
 549 1059 549 1059 461 1059 c 0,0,1
461 1371 m 0,12,13
 422 1371 422 1371 392.5 1341.5 c 128,-1,14
 363 1312 363 1312 363 1272 c 0,15,16
 363 1233 363 1233 392.5 1203.5 c 128,-1,17
 422 1174 422 1174 461 1174 c 256,18,19
 500 1174 500 1174 529.5 1203.5 c 128,-1,20
 559 1233 559 1233 559 1272 c 0,21,22
 559 1312 559 1312 529 1341.5 c 128,-1,23
 499 1371 499 1371 461 1371 c 0,12,13
EndSplineSet
Validated: 1
EndChar

StartChar: cedilla
Encoding: 184 184 217
Width: 682
GlyphClass: 2
Flags: W
LayerCount: 2
Fore
SplineSet
93 -432 m 0,0,1
 13 -432 13 -432 -56 -403 c 1,2,-1
 -19 -306 l 1,3,4
 36 -325 36 -325 84 -325 c 0,5,6
 131 -325 131 -325 161.5 -300 c 128,-1,7
 192 -275 192 -275 192 -233 c 0,8,9
 192 -155 192 -155 86 -148 c 1,10,-1
 172 47 l 1,11,-1
 263 47 l 1,12,-1
 220 -63 l 1,13,14
 300 -74 300 -74 344.5 -114.5 c 128,-1,15
 389 -155 389 -155 389 -216 c 0,16,17
 389 -315 389 -315 305 -373.5 c 128,-1,18
 221 -432 221 -432 93 -432 c 0,0,1
EndSplineSet
Validated: 1
EndChar

StartChar: hungarumlaut
Encoding: 733 733 218
Width: 682
GlyphClass: 2
Flags: W
LayerCount: 2
Fore
SplineSet
168 1118 m 1,0,-1
 174 1151 l 1,1,-1
 364 1444 l 1,2,-1
 615 1444 l 1,3,-1
 608 1407 l 1,4,-1
 265 1118 l 1,5,-1
 168 1118 l 1,0,-1
519 1118 m 1,6,-1
 525 1151 l 1,7,-1
 714 1444 l 1,8,-1
 966 1444 l 1,9,-1
 959 1407 l 1,10,-1
 615 1118 l 1,11,-1
 519 1118 l 1,6,-1
EndSplineSet
Validated: 1
EndChar

StartChar: ogonek
Encoding: 731 731 219
Width: 682
GlyphClass: 2
Flags: W
LayerCount: 2
Fore
SplineSet
257 -430 m 0,0,1
 148 -430 148 -430 90 -379 c 128,-1,2
 32 -328 32 -328 32 -229 c 0,3,4
 32 -162 32 -162 67.5 -93.5 c 128,-1,5
 103 -25 103 -25 160 14 c 1,6,-1
 292 14 l 1,7,8
 260 -35 260 -35 239 -94 c 128,-1,9
 218 -153 218 -153 218 -207 c 0,10,11
 218 -320 218 -320 322 -320 c 0,12,13
 374 -320 374 -320 432 -294 c 1,14,-1
 462 -377 l 1,15,16
 370 -430 370 -430 257 -430 c 0,0,1
EndSplineSet
Validated: 1
EndChar

StartChar: caron
Encoding: 711 711 220
Width: 682
GlyphClass: 2
Flags: W
LayerCount: 2
Fore
SplineSet
821 1444 m 1,0,-1
 815 1411 l 1,1,-1
 546 1118 l 1,2,-1
 333 1118 l 1,3,-1
 167 1411 l 1,4,-1
 173 1444 l 1,5,-1
 249 1444 l 1,6,-1
 469 1282 l 1,7,-1
 745 1444 l 1,8,-1
 821 1444 l 1,0,-1
EndSplineSet
Validated: 1
EndChar

StartChar: Lslash
Encoding: 321 321 221
Width: 1251
GlyphClass: 2
Flags: W
LayerCount: 2
Fore
SplineSet
594 811 m 1,0,-1
 856 951 l 1,1,-1
 833 817 l 1,2,-1
 571 680 l 1,3,-1
 470 106 l 1,4,-1
 583 106 l 2,5,6
 684 106 684 106 802.5 112.5 c 128,-1,7
 921 119 921 119 958 126 c 1,8,-1
 1075 405 l 1,9,-1
 1159 405 l 1,10,-1
 1070 0 l 1,11,-1
 -15 0 l 1,12,-1
 -3 73 l 1,13,-1
 174 100 l 1,14,-1
 245 502 l 1,15,-1
 61 402 l 1,16,-1
 85 538 l 1,17,-1
 268 636 l 1,18,-1
 375 1242 l 1,19,-1
 209 1268 l 1,20,-1
 222 1341 l 1,21,-1
 885 1341 l 1,22,-1
 872 1268 l 1,23,-1
 670 1242 l 1,24,-1
 594 811 l 1,0,-1
EndSplineSet
Validated: 1
EndChar

StartChar: lslash
Encoding: 322 322 222
Width: 569
GlyphClass: 2
Flags: W
LayerCount: 2
Fore
SplineSet
273 1331 m 1,0,-1
 181 1355 l 1,1,-1
 193 1421 l 1,2,-1
 558 1421 l 1,3,-1
 443 770 l 1,4,-1
 584 844 l 1,5,-1
 562 720 l 1,6,-1
 421 645 l 1,7,-1
 323 90 l 1,8,-1
 422 66 l 1,9,-1
 411 0 l 1,10,-1
 37 0 l 1,11,-1
 123 478 l 1,12,-1
 -12 407 l 1,13,-1
 10 533 l 1,14,-1
 145 603 l 1,15,-1
 273 1331 l 1,0,-1
EndSplineSet
Validated: 1
EndChar

StartChar: brokenbar
Encoding: 166 166 227
Width: 451
GlyphClass: 2
Flags: W
LayerCount: 2
Fore
SplineSet
182 801 m 1,0,-1
 182 1421 l 1,1,-1
 324 1421 l 1,2,-1
 324 801 l 1,3,-1
 182 801 l 1,0,-1
182 -442 m 1,4,-1
 182 180 l 1,5,-1
 324 180 l 1,6,-1
 324 -442 l 1,7,-1
 182 -442 l 1,4,-1
EndSplineSet
Validated: 1
EndChar

StartChar: Eth
Encoding: 208 208 228
Width: 1479
GlyphClass: 2
Flags: W
LayerCount: 2
Fore
SplineSet
1431 788 m 0,0,1
 1431 549 1431 549 1329.5 368.5 c 128,-1,2
 1228 188 1228 188 1038.5 92 c 128,-1,3
 849 -4 849 -4 599 -4 c 1,4,-1
 180 0 l 1,5,-1
 -15 0 l 1,6,-1
 -3 73 l 1,7,-1
 174 100 l 1,8,-1
 263 609 l 1,9,-1
 91 609 l 1,10,-1
 113 731 l 1,11,-1
 285 731 l 1,12,-1
 375 1242 l 1,13,-1
 208 1268 l 1,14,-1
 221 1341 l 1,15,-1
 742 1341 l 2,16,17
 1079 1341 1079 1341 1255 1197.5 c 128,-1,18
 1431 1054 1431 1054 1431 788 c 0,0,1
1120 774 m 0,19,20
 1120 1231 1120 1231 705 1231 c 2,21,-1
 668 1231 l 1,22,-1
 580 731 l 1,23,-1
 837 731 l 1,24,-1
 816 609 l 1,25,-1
 558 609 l 1,26,-1
 471 114 l 1,27,28
 556 106 556 106 595 106 c 0,29,30
 839 106 839 106 979.5 285 c 128,-1,31
 1120 464 1120 464 1120 774 c 0,19,20
EndSplineSet
Validated: 1
EndChar

StartChar: eth
Encoding: 240 240 229
Width: 1024
GlyphClass: 2
Flags: W
LayerCount: 2
Fore
SplineSet
524 1217 m 1,0,1
 446 1283 446 1283 357 1313 c 1,2,-1
 376 1421 l 1,3,4
 528 1385 528 1385 663 1294 c 1,5,-1
 977 1459 l 1,6,-1
 955 1335 l 1,7,-1
 744 1224 l 1,8,9
 956 1021 956 1021 956 687 c 0,10,11
 956 483 956 483 886.5 319.5 c 128,-1,12
 817 156 817 156 694 68 c 128,-1,13
 571 -20 571 -20 410 -20 c 0,14,15
 243 -20 243 -20 139 83 c 128,-1,16
 35 186 35 186 35 353 c 0,17,18
 35 518 35 518 101 643 c 128,-1,19
 167 768 167 768 289.5 835.5 c 128,-1,20
 412 903 412 903 571 903 c 0,21,22
 631 903 631 903 688 890 c 1,23,24
 679 1027 679 1027 592 1139 c 1,25,-1
 311 991 l 1,26,-1
 333 1117 l 1,27,-1
 524 1217 l 1,0,1
301 283 m 0,28,29
 301 181 301 181 337 130 c 128,-1,30
 373 79 373 79 432 79 c 0,31,32
 497 79 497 79 556.5 154 c 128,-1,33
 616 229 616 229 651 353.5 c 128,-1,34
 686 478 686 478 686 617 c 0,35,36
 686 708 686 708 653.5 756 c 128,-1,37
 621 804 621 804 558 804 c 0,38,39
 496 804 496 804 435.5 730 c 128,-1,40
 375 656 375 656 338 535.5 c 128,-1,41
 301 415 301 415 301 283 c 0,28,29
EndSplineSet
Validated: 1
EndChar

StartChar: Thorn
Encoding: 222 222 232
Width: 1251
GlyphClass: 2
Flags: W
LayerCount: 2
Fore
SplineSet
564 378 m 2,0,1
 909 378 909 378 909 715 c 0,2,3
 909 847 909 847 848.5 910 c 128,-1,4
 788 973 788 973 665 973 c 2,5,-1
 623 973 l 1,6,-1
 518 378 l 1,7,-1
 564 378 l 2,0,1
751 1083 m 2,8,9
 970 1083 970 1083 1086 992 c 128,-1,10
 1202 901 1202 901 1202 728 c 0,11,12
 1202 503 1202 503 1056.5 385.5 c 128,-1,13
 911 268 911 268 643 268 c 2,14,-1
 498 268 l 1,15,-1
 469 100 l 1,16,-1
 637 74 l 1,17,-1
 624 0 l 1,18,-1
 -15 0 l 1,19,-1
 -2 74 l 1,20,-1
 174 100 l 1,21,-1
 375 1241 l 1,22,-1
 208 1268 l 1,23,-1
 221 1341 l 1,24,-1
 860 1341 l 1,25,-1
 847 1268 l 1,26,-1
 670 1241 l 1,27,-1
 642 1083 l 1,28,-1
 751 1083 l 2,8,9
EndSplineSet
Validated: 1
EndChar

StartChar: thorn
Encoding: 254 254 233
Width: 1024
GlyphClass: 2
Flags: W
LayerCount: 2
Fore
SplineSet
956 631 m 0,0,1
 956 452 956 452 890.5 301.5 c 128,-1,2
 825 151 825 151 706.5 65.5 c 128,-1,3
 588 -20 588 -20 442 -20 c 0,4,5
 405 -20 405 -20 355 -10.5 c 128,-1,6
 305 -1 305 -1 273 13 c 1,7,8
 268 -45 268 -45 264.5 -70.5 c 128,-1,9
 261 -96 261 -96 221 -347 c 1,10,-1
 381 -371 l 1,11,-1
 369 -436 l 1,12,-1
 -167 -436 l 1,13,-1
 -155 -371 l 1,14,-1
 -51 -347 l 1,15,-1
 246 1336 l 1,16,-1
 147 1361 l 1,17,-1
 159 1421 l 1,18,-1
 529 1421 l 1,19,20
 481 1146 481 1146 454.5 996.5 c 128,-1,21
 428 847 428 847 409 791 c 1,22,23
 465 874 465 874 544.5 919.5 c 128,-1,24
 624 965 624 965 709 965 c 0,25,26
 822 965 822 965 889 876.5 c 128,-1,27
 956 788 956 788 956 631 c 0,0,1
693 587 m 0,28,29
 693 690 693 690 661 751.5 c 128,-1,30
 629 813 629 813 576 813 c 0,31,32
 543 813 543 813 490.5 772 c 128,-1,33
 438 731 438 731 398 674 c 1,34,-1
 301 127 l 1,35,36
 321 108 321 108 360 93.5 c 128,-1,37
 399 79 399 79 430 79 c 0,38,39
 502 79 502 79 562.5 148.5 c 128,-1,40
 623 218 623 218 658 338 c 128,-1,41
 693 458 693 458 693 587 c 0,28,29
EndSplineSet
Validated: 1
EndChar

StartChar: minus
Encoding: 8722 8722 234
Width: 1241
GlyphClass: 2
Flags: W
LayerCount: 2
Fore
SplineSet
1114 751 m 1,0,-1
 1114 608 l 1,1,-1
 162 608 l 1,2,-1
 162 751 l 1,3,-1
 1114 751 l 1,0,-1
EndSplineSet
Validated: 1
EndChar

StartChar: multiply
Encoding: 215 215 235
Width: 1167
GlyphClass: 2
Flags: W
LayerCount: 2
Fore
SplineSet
606 578 m 1,0,-1
 281 254 l 1,1,-1
 180 356 l 1,2,-1
 504 682 l 1,3,-1
 180 1004 l 1,4,-1
 284 1108 l 1,5,-1
 606 784 l 1,6,-1
 932 1108 l 1,7,-1
 1033 1006 l 1,8,-1
 709 682 l 1,9,-1
 1033 356 l 1,10,-1
 932 254 l 1,11,-1
 606 578 l 1,0,-1
EndSplineSet
Validated: 1
EndChar

StartChar: onesuperior
Encoding: 185 185 236
Width: 614
GlyphClass: 2
Flags: W
LayerCount: 2
Fore
SplineSet
406 616 m 1,0,-1
 544 602 l 1,1,-1
 532 535 l 1,2,-1
 75 535 l 1,3,-1
 87 602 l 1,4,-1
 228 616 l 1,5,-1
 329 1188 l 1,6,-1
 183 1147 l 1,7,-1
 194 1213 l 1,8,-1
 445 1347 l 1,9,-1
 535 1347 l 1,10,-1
 406 616 l 1,0,-1
EndSplineSet
Validated: 1
EndChar

StartChar: twosuperior
Encoding: 178 178 237
Width: 614
GlyphClass: 2
Flags: W
LayerCount: 2
Fore
SplineSet
550 535 m 1,0,-1
 40 535 l 1,1,-1
 60 649 l 1,2,3
 228 780 228 780 306.5 860 c 128,-1,4
 385 940 385 940 425 1014 c 128,-1,5
 465 1088 465 1088 465 1161 c 0,6,7
 465 1213 465 1213 442.5 1245.5 c 128,-1,8
 420 1278 420 1278 375 1278 c 0,9,10
 322 1278 322 1278 280 1247 c 1,11,-1
 234 1131 l 1,12,-1
 172 1131 l 1,13,-1
 205 1323 l 1,14,15
 323 1350 323 1350 404 1350 c 0,16,17
 522 1350 522 1350 585.5 1299 c 128,-1,18
 649 1248 649 1248 649 1161 c 0,19,20
 649 1087 649 1087 610 1020.5 c 128,-1,21
 571 954 571 954 498 888 c 128,-1,22
 425 822 425 822 212 677 c 1,23,-1
 575 677 l 1,24,-1
 550 535 l 1,0,-1
EndSplineSet
Validated: 1
EndChar

StartChar: threesuperior
Encoding: 179 179 238
Width: 614
GlyphClass: 2
Flags: W
LayerCount: 2
Fore
SplineSet
259 522 m 0,0,1
 147 522 147 522 41 549 c 1,2,-1
 68 752 l 1,3,-1
 133 752 l 1,4,-1
 142 620 l 1,5,6
 184 595 184 595 249 595 c 0,7,8
 428 595 428 595 428 784 c 0,9,10
 428 899 428 899 317 908 c 2,11,-1
 249 914 l 1,12,-1
 263 997 l 1,13,-1
 326 1001 l 1,14,15
 458 1008 458 1008 458 1174 c 0,16,17
 458 1223 458 1223 434 1249.5 c 128,-1,18
 410 1276 410 1276 367 1276 c 0,19,20
 315 1276 315 1276 271 1249 c 1,21,-1
 224 1130 l 1,22,-1
 162 1130 l 1,23,-1
 196 1323 l 1,24,25
 304 1350 304 1350 393 1350 c 0,26,27
 506 1350 506 1350 573 1303 c 128,-1,28
 640 1256 640 1256 640 1176 c 0,29,30
 640 991 640 991 438 956 c 1,31,32
 521 945 521 945 563.5 901.5 c 128,-1,33
 606 858 606 858 606 788 c 0,34,35
 606 669 606 669 513.5 595.5 c 128,-1,36
 421 522 421 522 259 522 c 0,0,1
EndSplineSet
Validated: 1
EndChar

StartChar: franc
Encoding: 8355 8355 242
Width: 1024
GlyphClass: 2
Flags: W
LayerCount: 2
Fore
SplineSet
31 384 m 1,0,-1
 189 384 l 1,1,-1
 340 1242 l 1,2,-1
 173 1268 l 1,3,-1
 186 1341 l 1,4,-1
 1129 1341 l 1,5,-1
 1065 980 l 1,6,-1
 971 980 l 1,7,-1
 981 1217 l 1,8,9
 885 1231 885 1231 754 1231 c 2,10,-1
 633 1231 l 1,11,-1
 536 682 l 1,12,-1
 811 682 l 1,13,-1
 867 822 l 1,14,-1
 956 822 l 1,15,-1
 887 430 l 1,16,-1
 798 430 l 1,17,-1
 792 572 l 1,18,-1
 517 572 l 1,19,-1
 484 384 l 1,20,-1
 714 384 l 1,21,-1
 696 282 l 1,22,-1
 466 282 l 1,23,-1
 434 100 l 1,24,-1
 612 73 l 1,25,-1
 599 0 l 1,26,-1
 -37 0 l 1,27,-1
 -24 73 l 1,28,-1
 139 100 l 1,29,-1
 171 282 l 1,30,-1
 13 282 l 1,31,-1
 31 384 l 1,0,-1
EndSplineSet
Validated: 1
EndChar

StartChar: dcroat
Encoding: 273 273 252
Width: 1024
GlyphClass: 2
Flags: W
LayerCount: 2
Fore
SplineSet
991 1099 m 1,0,-1
 812 85 l 1,1,-1
 911 60 l 1,2,-1
 899 0 l 1,3,-1
 567 0 l 1,4,-1
 560 144 l 1,5,6
 501 65 501 65 425 22.5 c 128,-1,7
 349 -20 349 -20 276 -20 c 0,8,9
 162 -20 162 -20 93 68 c 128,-1,10
 24 156 24 156 24 310 c 0,11,12
 24 487 24 487 88.5 638 c 128,-1,13
 153 789 153 789 269.5 876.5 c 128,-1,14
 386 964 386 964 528 964 c 0,15,16
 637 964 637 964 702 936 c 1,17,18
 708 1008 708 1008 722 1099 c 1,19,-1
 512 1099 l 1,20,-1
 530 1202 l 1,21,-1
 741 1202 l 1,22,-1
 763 1332 l 1,23,-1
 602 1356 l 1,24,-1
 614 1421 l 1,25,-1
 1049 1421 l 1,26,-1
 1010 1202 l 1,27,-1
 1111 1202 l 1,28,-1
 1093 1099 l 1,29,-1
 991 1099 l 1,0,-1
674 817 m 1,30,31
 654 837 654 837 612.5 851 c 128,-1,32
 571 865 571 865 540 865 c 0,33,34
 472 865 472 865 413.5 794 c 128,-1,35
 355 723 355 723 321 602 c 128,-1,36
 287 481 287 481 287 354 c 0,37,38
 287 251 287 251 316.5 189.5 c 128,-1,39
 346 128 346 128 395 128 c 0,40,41
 428 128 428 128 482 168.5 c 128,-1,42
 536 209 536 209 577 267 c 1,43,-1
 674 817 l 1,30,31
EndSplineSet
Validated: 1
EndChar

StartChar: macron
Encoding: 175 175 253
Width: 1024
GlyphClass: 2
Flags: W
LayerCount: 2
Fore
SplineSet
1196 1452 m 1,0,-1
 137 1452 l 1,1,-1
 137 1546 l 1,2,-1
 1196 1546 l 1,3,-1
 1196 1452 l 1,0,-1
EndSplineSet
Validated: 1
EndChar

StartChar: Gamma
Encoding: 915 915 296
Width: 1237
GlyphClass: 2
Flags: W
LayerCount: 2
Fore
SplineSet
643 0 m 1,0,-1
 -20 0 l 1,1,-1
 -7 73 l 1,2,-1
 169 99 l 1,3,-1
 370 1241 l 1,4,-1
 203 1268 l 1,5,-1
 217 1341 l 1,6,-1
 1246 1341 l 1,7,-1
 1191 936 l 1,8,-1
 1108 936 l 1,9,-1
 1089 1215 l 1,10,11
 1057 1222 1057 1222 955 1228.5 c 128,-1,12
 853 1235 853 1235 753 1235 c 2,13,-1
 664 1235 l 1,14,-1
 464 99 l 1,15,-1
 656 73 l 1,16,-1
 643 0 l 1,0,-1
EndSplineSet
Validated: 1
EndChar

StartChar: Theta
Encoding: 920 920 297
Width: 1563
GlyphClass: 2
Flags: W
LayerCount: 2
Fore
SplineSet
1202 843 m 0,0,1
 1202 1033 1202 1033 1118 1142 c 128,-1,2
 1034 1251 1034 1251 882 1251 c 0,3,4
 747 1251 747 1251 634 1152.5 c 128,-1,5
 521 1054 521 1054 448 865 c 128,-1,6
 375 676 375 676 375 485 c 0,7,8
 375 297 375 297 457 190 c 128,-1,9
 539 83 539 83 688 83 c 0,10,11
 826 83 826 83 940 181 c 128,-1,12
 1054 279 1054 279 1128 466.5 c 128,-1,13
 1202 654 1202 654 1202 843 c 0,0,1
673 -20 m 0,14,15
 406 -20 406 -20 240 131 c 128,-1,16
 74 282 74 282 74 524 c 0,17,18
 74 768 74 768 180 960.5 c 128,-1,19
 286 1153 286 1153 474 1254.5 c 128,-1,20
 662 1356 662 1356 904 1356 c 0,21,22
 1079 1356 1079 1356 1216 1287.5 c 128,-1,23
 1353 1219 1353 1219 1428 1094.5 c 128,-1,24
 1503 970 1503 970 1503 812 c 0,25,26
 1503 571 1503 571 1396 375 c 128,-1,27
 1289 179 1289 179 1104 79.5 c 128,-1,28
 919 -20 919 -20 673 -20 c 0,14,15
955 780 m 1,29,-1
 1001 882 l 1,30,-1
 1069 882 l 1,31,-1
 989 470 l 1,32,-1
 921 470 l 1,33,-1
 915 570 l 1,34,-1
 622 570 l 1,35,-1
 576 470 l 1,36,-1
 508 470 l 1,37,-1
 588 882 l 1,38,-1
 656 882 l 1,39,-1
 662 780 l 1,40,-1
 955 780 l 1,29,-1
EndSplineSet
Validated: 1
EndChar

StartChar: Phi
Encoding: 934 934 298
Width: 1616
GlyphClass: 2
Flags: W
LayerCount: 2
Fore
SplineSet
989 320 m 2,0,1
 1137 320 1137 320 1220 427.5 c 128,-1,2
 1303 535 1303 535 1303 727 c 0,3,4
 1303 872 1303 872 1236.5 955.5 c 128,-1,5
 1170 1039 1170 1039 1058 1039 c 2,6,-1
 1026 1039 l 1,7,-1
 911 320 l 1,8,-1
 989 320 l 2,0,1
656 1039 m 2,9,10
 508 1039 508 1039 425 931.5 c 128,-1,11
 342 824 342 824 342 632 c 0,12,13
 342 486 342 486 409 403 c 128,-1,14
 476 320 476 320 587 320 c 2,15,-1
 628 320 l 1,16,-1
 754 1039 l 1,17,-1
 656 1039 l 2,9,10
610 222 m 1,18,-1
 539 222 l 2,19,20
 322 222 322 222 196 332 c 128,-1,21
 70 442 70 442 70 635 c 0,22,23
 70 870 70 870 221 1003.5 c 128,-1,24
 372 1137 372 1137 644 1137 c 2,25,-1
 773 1137 l 1,26,-1
 790 1242 l 1,27,-1
 624 1268 l 1,28,-1
 637 1341 l 1,29,-1
 1253 1341 l 1,30,-1
 1240 1268 l 1,31,-1
 1062 1242 l 1,32,-1
 1045 1137 l 1,33,-1
 1106 1137 l 2,34,35
 1326 1137 1326 1137 1454.5 1025.5 c 128,-1,36
 1583 914 1583 914 1583 726 c 0,37,38
 1583 491 1583 491 1428.5 356.5 c 128,-1,39
 1274 222 1274 222 1001 222 c 2,40,-1
 882 222 l 1,41,-1
 862 100 l 1,42,-1
 1027 73 l 1,43,-1
 1015 0 l 1,44,-1
 399 0 l 1,45,-1
 411 73 l 1,46,-1
 590 100 l 1,47,-1
 610 222 l 1,18,-1
EndSplineSet
Validated: 1
EndChar

StartChar: alpha
Encoding: 945 945 299
Width: 1133
GlyphClass: 2
Flags: W
LayerCount: 2
Fore
SplineSet
1017 65 m 1,0,-1
 1004 0 l 1,1,-1
 721 0 l 1,2,3
 690 87 690 87 678 204 c 1,4,5
 605 89 605 89 527 34 c 128,-1,6
 449 -21 449 -21 351 -21 c 0,7,8
 202 -21 202 -21 114.5 78 c 128,-1,9
 27 177 27 177 27 347 c 0,10,11
 27 528 27 528 93 669 c 128,-1,12
 159 810 159 810 277.5 888 c 128,-1,13
 396 966 396 966 537 966 c 0,14,15
 752 966 752 966 800 709 c 1,16,-1
 892 940 l 1,17,-1
 1159 940 l 1,18,-1
 1151 900 l 1,19,20
 1114 860 1114 860 1030.5 739.5 c 128,-1,21
 947 619 947 619 858 475 c 1,22,23
 873 332 873 332 894.5 235 c 128,-1,24
 916 138 916 138 960 80 c 1,25,-1
 1017 65 l 1,0,-1
673 542 m 2,26,27
 673 698 673 698 636 782 c 128,-1,28
 599 866 599 866 536 866 c 0,29,30
 471 866 471 866 416.5 791 c 128,-1,31
 362 716 362 716 327.5 581.5 c 128,-1,32
 293 447 293 447 293 316 c 0,33,34
 293 203 293 203 319.5 150.5 c 128,-1,35
 346 98 346 98 387 98 c 0,36,37
 458 98 458 98 527 172.5 c 128,-1,38
 596 247 596 247 672 416 c 1,39,-1
 673 482 l 1,40,-1
 673 542 l 2,26,27
EndSplineSet
Validated: 1
EndChar

StartChar: delta
Encoding: 948 948 300
Width: 1049
GlyphClass: 2
Flags: W
LayerCount: 2
Fore
SplineSet
406 -20 m 0,0,1
 231 -20 231 -20 131.5 80 c 128,-1,2
 32 180 32 180 32 353 c 0,3,4
 32 536 32 536 147 669.5 c 128,-1,5
 262 803 262 803 490 870 c 1,6,7
 344 1026 344 1026 344 1169 c 0,8,9
 344 1293 344 1293 446.5 1362 c 128,-1,10
 549 1431 549 1431 739 1431 c 0,11,12
 851 1431 851 1431 989 1393 c 1,13,-1
 951 1170 l 1,14,-1
 884 1170 l 1,15,-1
 861 1284 l 1,16,17
 841 1307 841 1307 804.5 1319 c 128,-1,18
 768 1331 768 1331 727 1331 c 0,19,20
 667 1331 667 1331 629.5 1295 c 128,-1,21
 592 1259 592 1259 592 1185 c 0,22,23
 592 1132 592 1132 627.5 1073 c 128,-1,24
 663 1014 663 1014 777 901 c 1,25,26
 867 806 867 806 910.5 707.5 c 128,-1,27
 954 609 954 609 954 494 c 0,28,29
 954 354 954 354 883.5 233 c 128,-1,30
 813 112 813 112 689.5 46 c 128,-1,31
 566 -20 566 -20 406 -20 c 0,0,1
429 79 m 0,32,33
 504 79 504 79 560.5 130 c 128,-1,34
 617 181 617 181 650 284 c 128,-1,35
 683 387 683 387 683 503 c 0,36,37
 683 665 683 665 558 786 c 1,38,39
 433 735 433 735 365 602.5 c 128,-1,40
 297 470 297 470 297 308 c 0,41,42
 297 196 297 196 331 137.5 c 128,-1,43
 365 79 365 79 429 79 c 0,32,33
EndSplineSet
Validated: 1
EndChar

StartChar: epsilon
Encoding: 949 949 301
Width: 840
GlyphClass: 2
Flags: W
LayerCount: 2
Fore
SplineSet
550 965 m 0,0,1
 619 965 619 965 698.5 955 c 128,-1,2
 778 945 778 945 825 929 c 1,3,-1
 783 713 l 1,4,-1
 715 713 l 1,5,-1
 692 828 l 1,6,7
 675 843 675 843 639 855 c 128,-1,8
 603 867 603 867 564 867 c 0,9,10
 492 867 492 867 447 821.5 c 128,-1,11
 402 776 402 776 402 695 c 0,12,13
 402 647 402 647 425.5 605.5 c 128,-1,14
 449 564 449 564 482 551 c 1,15,16
 492 553 492 553 504 555.5 c 128,-1,17
 516 558 516 558 549.5 563.5 c 128,-1,18
 583 569 583 569 599 569 c 2,19,-1
 674 569 l 1,20,-1
 654 446 l 1,21,-1
 582 446 l 2,22,23
 556 446 556 446 445 459 c 1,24,25
 290 410 290 410 290 254 c 0,26,27
 290 180 290 180 328.5 142 c 128,-1,28
 367 104 367 104 435 104 c 0,29,30
 575 104 575 104 705 200 c 1,31,-1
 752 132 l 1,32,33
 656 50 656 50 561 15 c 128,-1,34
 466 -20 466 -20 363 -20 c 0,35,36
 199 -20 199 -20 111.5 48 c 128,-1,37
 24 116 24 116 24 239 c 0,38,39
 24 343 24 343 95.5 415 c 128,-1,40
 167 487 167 487 287 506 c 1,41,-1
 289 513 l 1,42,43
 221 539 221 539 182.5 592.5 c 128,-1,44
 144 646 144 646 144 711 c 0,45,46
 144 830 144 830 253 897.5 c 128,-1,47
 362 965 362 965 550 965 c 0,0,1
EndSplineSet
Validated: 1
EndChar

StartChar: sigma
Encoding: 963 963 302
Width: 1104
GlyphClass: 2
Flags: W
LayerCount: 2
Fore
SplineSet
466 79 m 0,0,1
 573 79 573 79 646.5 229.5 c 128,-1,2
 720 380 720 380 720 575 c 0,3,4
 720 740 720 740 672 836 c 1,5,6
 571 836 571 836 491.5 777.5 c 128,-1,7
 412 719 412 719 368 612 c 128,-1,8
 324 505 324 505 324 359 c 0,9,10
 324 231 324 231 362 155 c 128,-1,11
 400 79 400 79 466 79 c 0,0,1
856 836 m 1,12,-1
 855 830 l 1,13,14
 961 689 961 689 961 521 c 0,15,16
 961 366 961 366 894.5 240.5 c 128,-1,17
 828 115 828 115 709 47.5 c 128,-1,18
 590 -20 590 -20 441 -20 c 0,19,20
 263 -20 263 -20 161 88.5 c 128,-1,21
 59 197 59 197 59 389 c 0,22,23
 59 646 59 646 211 793 c 128,-1,24
 363 940 363 940 632 940 c 2,25,-1
 989 940 l 1,26,-1
 1075 1076 l 1,27,-1
 1152 1076 l 1,28,-1
 1091 836 l 1,29,-1
 856 836 l 1,12,-1
EndSplineSet
Validated: 1
EndChar

StartChar: tau
Encoding: 964 964 303
Width: 909
GlyphClass: 2
Flags: W
LayerCount: 2
Fore
SplineSet
455 -20 m 0,0,1
 263 -20 263 -20 263 156 c 0,2,3
 263 183 263 183 270 227 c 2,4,-1
 377 836 l 1,5,-1
 200 836 l 1,6,-1
 115 703 l 1,7,-1
 42 703 l 1,8,-1
 101 940 l 1,9,-1
 961 940 l 1,10,-1
 943 836 l 1,11,-1
 647 836 l 1,12,-1
 541 235 l 1,13,-1
 536 183 l 1,14,15
 536 145 536 145 553 124.5 c 128,-1,16
 570 104 570 104 600 104 c 0,17,18
 645 104 645 104 699 139 c 1,19,-1
 732 85 l 1,20,21
 678 37 678 37 603.5 8.5 c 128,-1,22
 529 -20 529 -20 455 -20 c 0,0,1
EndSplineSet
Validated: 1
EndChar

StartChar: phi
Encoding: 966 966 304
Width: 1198
GlyphClass: 2
Flags: W
LayerCount: 2
Fore
SplineSet
833 966 m 0,0,1
 976 966 976 966 1051.5 878 c 128,-1,2
 1127 790 1127 790 1127 630 c 0,3,4
 1127 325 1127 325 983 162 c 128,-1,5
 839 -1 839 -1 554 -17 c 1,6,-1
 480 -436 l 1,7,-1
 344 -436 l 1,8,-1
 418 -16 l 1,9,10
 235 -2 235 -2 134 99.5 c 128,-1,11
 33 201 33 201 33 375 c 0,12,13
 33 528 33 528 83 652.5 c 128,-1,14
 133 777 133 777 234 856 c 128,-1,15
 335 935 335 935 476 954 c 1,16,-1
 498 872 l 1,17,18
 421 838 421 838 377 767 c 128,-1,19
 333 696 333 696 308 565.5 c 128,-1,20
 283 435 283 435 283 349 c 0,21,22
 283 224 283 224 323 157.5 c 128,-1,23
 363 91 363 91 433 78 c 1,24,-1
 539 670 l 2,25,26
 567 826 567 826 639 896 c 128,-1,27
 711 966 711 966 833 966 c 0,0,1
798 861 m 0,28,29
 747 861 747 861 719.5 813 c 128,-1,30
 692 765 692 765 675 670 c 2,31,-1
 569 78 l 1,32,33
 680 87 680 87 747.5 163.5 c 128,-1,34
 815 240 815 240 847.5 391 c 128,-1,35
 880 542 880 542 880 683 c 0,36,37
 880 861 880 861 798 861 c 0,28,29
EndSplineSet
Validated: 1
EndChar

StartChar: nsuperior
Encoding: 8319 8319 307
Width: 712
GlyphClass: 2
Flags: W
LayerCount: 2
Fore
SplineSet
513 970 m 0,0,1
 513 1028 513 1028 461 1028 c 0,2,3
 425 1028 425 1028 379.5 985.5 c 128,-1,4
 334 943 334 943 313 892 c 1,5,-1
 249 535 l 1,6,-1
 75 535 l 1,7,-1
 163 1045 l 1,8,-1
 110 1060 l 1,9,-1
 118 1099 l 1,10,-1
 333 1099 l 1,11,-1
 328 994 l 1,12,13
 424 1114 424 1114 559 1114 c 0,14,15
 616 1114 616 1114 653 1084 c 128,-1,16
 690 1054 690 1054 690 988 c 0,17,18
 690 978 690 978 686.5 953 c 128,-1,19
 683 928 683 928 623 589 c 1,20,-1
 693 575 l 1,21,-1
 685 535 l 1,22,-1
 438 535 l 1,23,-1
 500 877 l 2,24,25
 513 945 513 945 513 970 c 0,0,1
EndSplineSet
Validated: 1
EndChar

StartChar: peseta
Encoding: 8359 8359 308
Width: 1984
GlyphClass: 2
Flags: W
LayerCount: 2
Fore
SplineSet
1689 710 m 0,0,1
 1792 710 1792 710 1914 681 c 1,2,-1
 1878 476 l 1,3,-1
 1812 476 l 1,4,-1
 1794 556 l 1,5,6
 1781 582 1781 582 1749 599 c 128,-1,7
 1717 616 1717 616 1682 616 c 0,8,9
 1634 616 1634 616 1603.5 593.5 c 128,-1,10
 1573 571 1573 571 1573 531 c 0,11,12
 1573 480 1573 480 1665 446 c 1,13,14
 1775 403 1775 403 1813 375.5 c 128,-1,15
 1851 348 1851 348 1871.5 311.5 c 128,-1,16
 1892 275 1892 275 1892 229 c 0,17,18
 1892 105 1892 105 1803 42.5 c 128,-1,19
 1714 -20 1714 -20 1547 -20 c 0,20,21
 1480 -20 1480 -20 1409 -5.5 c 128,-1,22
 1338 9 1338 9 1299 30 c 1,23,24
 1219 -20 1219 -20 1104 -20 c 0,25,26
 1003 -20 1003 -20 952 19 c 128,-1,27
 901 58 901 58 901 143 c 0,28,29
 901 170 901 170 908 217 c 1,30,-1
 973 586 l 1,31,-1
 872 586 l 1,32,-1
 879 625 l 1,33,34
 746 526 746 526 526 526 c 2,35,-1
 414 526 l 1,36,-1
 339 100 l 1,37,-1
 457 73 l 1,38,-1
 444 0 l 1,39,-1
 -53 0 l 1,40,-1
 -40 73 l 1,41,-1
 53 100 l 1,42,-1
 254 1242 l 1,43,-1
 157 1268 l 1,44,-1
 169 1341 l 1,45,-1
 584 1341 l 2,46,47
 826 1341 826 1341 941.5 1263 c 128,-1,48
 1057 1185 1057 1185 1057 1019 c 0,49,50
 1057 924 1057 924 1022 828 c 128,-1,51
 987 732 987 732 924 663 c 1,52,-1
 1011 674 l 1,53,-1
 1170 893 l 1,54,-1
 1276 893 l 1,55,-1
 1239 680 l 1,56,-1
 1377 680 l 1,57,-1
 1360 586 l 1,58,-1
 1222 586 l 1,59,-1
 1157 215 l 2,60,61
 1151 177 1151 177 1151 153 c 0,62,63
 1151 112 1151 112 1165 98 c 128,-1,64
 1179 84 1179 84 1202 84 c 0,65,66
 1246 84 1246 84 1300 99 c 1,67,-1
 1325 237 l 1,68,-1
 1391 237 l 1,69,-1
 1410 160 l 1,70,71
 1433 114 1433 114 1466.5 93.5 c 128,-1,72
 1500 73 1500 73 1551 73 c 0,73,74
 1607 73 1607 73 1642 97 c 128,-1,75
 1677 121 1677 121 1677 170 c 0,76,77
 1677 191 1677 191 1665 206.5 c 128,-1,78
 1653 222 1653 222 1631.5 234.5 c 128,-1,79
 1610 247 1610 247 1537 274 c 1,80,81
 1363 335 1363 335 1363 471 c 0,82,83
 1363 584 1363 584 1446 647 c 128,-1,84
 1529 710 1529 710 1689 710 c 0,0,1
433 636 m 1,85,-1
 464 636 l 2,86,87
 617 636 617 636 692.5 724 c 128,-1,88
 768 812 768 812 768 1003 c 0,89,90
 768 1110 768 1110 718.5 1170.5 c 128,-1,91
 669 1231 669 1231 574 1231 c 2,92,-1
 538 1231 l 1,93,-1
 433 636 l 1,85,-1
EndSplineSet
Validated: 1
EndChar

StartChar: arrowleft
Encoding: 8592 8592 309
Width: 2048
GlyphClass: 2
Flags: W
LayerCount: 2
Fore
SplineSet
641 297 m 1,0,1
 698 230 698 230 760 100 c 1,2,-1
 688 100 l 1,3,4
 561 249 561 249 418 322 c 1,5,-1
 418 358 l 1,6,7
 561 431 561 431 688 580 c 1,8,-1
 760 580 l 1,9,10
 698 450 698 450 641 383 c 1,11,-1
 1630 383 l 1,12,-1
 1630 297 l 1,13,-1
 641 297 l 1,0,1
EndSplineSet
Validated: 1
EndChar

StartChar: arrowup
Encoding: 8593 8593 310
Width: 1024
GlyphClass: 2
Flags: W
LayerCount: 2
Fore
SplineSet
469 928 m 1,0,1
 402 871 402 871 272 809 c 1,2,-1
 272 881 l 1,3,4
 421 1008 421 1008 494 1151 c 1,5,-1
 530 1151 l 1,6,7
 603 1008 603 1008 752 881 c 1,8,-1
 752 809 l 1,9,10
 622 871 622 871 555 928 c 1,11,-1
 555 -61 l 1,12,-1
 469 -61 l 1,13,-1
 469 928 l 1,0,1
EndSplineSet
Validated: 1
EndChar

StartChar: arrowright
Encoding: 8594 8594 311
Width: 2048
GlyphClass: 2
Flags: W
LayerCount: 2
Fore
SplineSet
1407 383 m 1,0,1
 1350 450 1350 450 1288 580 c 1,2,-1
 1360 580 l 1,3,4
 1487 431 1487 431 1630 358 c 1,5,-1
 1630 322 l 1,6,7
 1487 249 1487 249 1360 100 c 1,8,-1
 1288 100 l 1,9,10
 1350 230 1350 230 1407 297 c 1,11,-1
 418 297 l 1,12,-1
 418 383 l 1,13,-1
 1407 383 l 1,0,1
EndSplineSet
Validated: 1
EndChar

StartChar: arrowdown
Encoding: 8595 8595 312
Width: 1024
GlyphClass: 2
Flags: W
LayerCount: 2
Fore
SplineSet
555 162 m 1,0,1
 622 219 622 219 752 281 c 1,2,-1
 752 209 l 1,3,4
 603 82 603 82 530 -61 c 1,5,-1
 494 -61 l 1,6,7
 421 82 421 82 272 209 c 1,8,-1
 272 281 l 1,9,10
 402 219 402 219 469 162 c 1,11,-1
 469 1151 l 1,12,-1
 555 1151 l 1,13,-1
 555 162 l 1,0,1
EndSplineSet
Validated: 1
EndChar

StartChar: arrowboth
Encoding: 8596 8596 313
Width: 2048
GlyphClass: 2
Flags: W
LayerCount: 2
Fore
SplineSet
641 297 m 1,0,1
 698 230 698 230 760 100 c 1,2,-1
 688 100 l 1,3,4
 561 249 561 249 418 322 c 1,5,-1
 418 358 l 1,6,7
 561 431 561 431 688 580 c 1,8,-1
 760 580 l 1,9,10
 698 450 698 450 641 383 c 1,11,-1
 1407 383 l 1,12,13
 1350 450 1350 450 1288 580 c 1,14,-1
 1360 580 l 1,15,16
 1487 431 1487 431 1630 358 c 1,17,-1
 1630 322 l 1,18,19
 1487 249 1487 249 1360 100 c 1,20,-1
 1288 100 l 1,21,22
 1350 230 1350 230 1407 297 c 1,23,-1
 641 297 l 1,0,1
EndSplineSet
Validated: 1
EndChar

StartChar: arrowupdn
Encoding: 8597 8597 314
Width: 1024
GlyphClass: 2
Flags: W
LayerCount: 2
Fore
SplineSet
469 928 m 1,0,1
 402 871 402 871 272 809 c 1,2,-1
 272 881 l 1,3,4
 421 1008 421 1008 494 1151 c 1,5,-1
 530 1151 l 1,6,7
 603 1008 603 1008 752 881 c 1,8,-1
 752 809 l 1,9,10
 622 871 622 871 555 928 c 1,11,-1
 555 162 l 1,12,13
 622 219 622 219 752 281 c 1,14,-1
 752 209 l 1,15,16
 603 82 603 82 530 -61 c 1,17,-1
 494 -61 l 1,18,19
 421 82 421 82 272 209 c 1,20,-1
 272 281 l 1,21,22
 402 219 402 219 469 162 c 1,23,-1
 469 928 l 1,0,1
EndSplineSet
Validated: 1
EndChar

StartChar: arrowupdnbse
Encoding: 8616 8616 315
Width: 1024
GlyphClass: 2
Flags: W
LayerCount: 2
Fore
SplineSet
272 -104 m 1,0,-1
 752 -104 l 1,1,-1
 752 -184 l 1,2,-1
 272 -184 l 1,3,-1
 272 -104 l 1,0,-1
469 928 m 1,4,5
 402 871 402 871 272 809 c 1,6,-1
 272 881 l 1,7,8
 421 1008 421 1008 494 1151 c 1,9,-1
 530 1151 l 1,10,11
 603 1008 603 1008 752 881 c 1,12,-1
 752 809 l 1,13,14
 622 871 622 871 555 928 c 1,15,-1
 555 162 l 1,16,17
 622 219 622 219 752 281 c 1,18,-1
 752 209 l 1,19,20
 603 82 603 82 530 -61 c 1,21,-1
 494 -61 l 1,22,23
 421 82 421 82 272 209 c 1,24,-1
 272 281 l 1,25,26
 402 219 402 219 469 162 c 1,27,-1
 469 928 l 1,4,5
EndSplineSet
Validated: 1
EndChar

StartChar: orthogonal
Encoding: 8735 8735 316
Width: 2005
GlyphClass: 2
Flags: W
LayerCount: 2
Fore
SplineSet
408 1223 m 1,0,-1
 502 1223 l 1,1,-1
 502 94 l 1,2,-1
 1632 94 l 1,3,-1
 1632 0 l 1,4,-1
 408 0 l 1,5,-1
 408 1223 l 1,0,-1
EndSplineSet
Validated: 1
EndChar

StartChar: intersection
Encoding: 8745 8745 317
Width: 1472
GlyphClass: 2
Flags: W
LayerCount: 2
Fore
SplineSet
278 -2 m 1,0,-1
 278 510 l 2,1,2
 278 660 278 660 336 779.5 c 128,-1,3
 394 899 394 899 498.5 965.5 c 128,-1,4
 603 1032 603 1032 733 1032 c 0,5,6
 864 1032 864 1032 969.5 966 c 128,-1,7
 1075 900 1075 900 1134.5 779 c 128,-1,8
 1194 658 1194 658 1194 510 c 2,9,-1
 1194 -2 l 1,10,-1
 1091 -2 l 1,11,-1
 1091 512 l 2,12,13
 1091 702 1091 702 993 816 c 128,-1,14
 895 930 895 930 735 930 c 0,15,16
 573 930 573 930 477 817 c 128,-1,17
 381 704 381 704 381 510 c 2,18,-1
 381 -2 l 1,19,-1
 278 -2 l 1,0,-1
EndSplineSet
Validated: 1
EndChar

StartChar: equivalence
Encoding: 8801 8801 318
Width: 1167
GlyphClass: 2
Flags: W
LayerCount: 2
Fore
SplineSet
1054 406 m 5,0,-1
 1054 263 l 5,1,-1
 102 263 l 5,2,-1
 102 406 l 5,3,-1
 1054 406 l 5,0,-1
1054 1096 m 5,4,-1
 1054 953 l 5,5,-1
 102 953 l 5,6,-1
 102 1096 l 5,7,-1
 1054 1096 l 5,4,-1
1054 751 m 5,8,-1
 1054 608 l 5,9,-1
 102 608 l 5,10,-1
 102 751 l 5,11,-1
 1054 751 l 5,8,-1
EndSplineSet
Validated: 1
EndChar

StartChar: house
Encoding: 8962 8962 319
Width: 1229
GlyphClass: 2
Flags: W
LayerCount: 2
Fore
SplineSet
153 0 m 1,0,-1
 153 635 l 1,1,-1
 614 1153 l 1,2,-1
 1075 635 l 1,3,-1
 1075 0 l 1,4,-1
 153 0 l 1,0,-1
233 82 m 1,5,-1
 995 82 l 1,6,-1
 995 600 l 1,7,-1
 614 1026 l 1,8,-1
 233 600 l 1,9,-1
 233 82 l 1,5,-1
EndSplineSet
Validated: 1
EndChar

StartChar: revlogicalnot
Encoding: 8976 8976 320
Width: 1167
GlyphClass: 2
Flags: W
LayerCount: 2
Fore
SplineSet
1055 752 m 1,0,-1
 1055 608 l 1,1,-1
 244 608 l 1,2,-1
 244 203 l 1,3,-1
 102 203 l 1,4,-1
 102 752 l 1,5,-1
 1055 752 l 1,0,-1
EndSplineSet
Validated: 1
EndChar

StartChar: integraltp
Encoding: 8992 8992 321
Width: 1237
GlyphClass: 2
Flags: W
LayerCount: 2
Fore
SplineSet
693 -614 m 1,0,-1
 546 -614 l 1,1,-1
 546 1264 l 2,2,3
 546 1460 546 1460 630 1583 c 128,-1,4
 714 1706 714 1706 840 1706 c 0,5,6
 903 1706 903 1706 940.5 1674.5 c 128,-1,7
 978 1643 978 1643 978 1595 c 0,8,9
 978 1555 978 1555 952.5 1529 c 128,-1,10
 927 1503 927 1503 890 1503 c 0,11,12
 860 1503 860 1503 847 1513 c 1,13,14
 831 1521 831 1521 793 1563 c 1,15,16
 760 1602 760 1602 744 1602 c 0,17,18
 708 1602 708 1602 699 1563 c 1,19,20
 693 1528 693 1528 693 1423 c 2,21,-1
 693 -614 l 1,0,-1
EndSplineSet
Validated: 1
EndChar

StartChar: integralbt
Encoding: 8993 8993 322
Width: 1237
GlyphClass: 2
Flags: W
LayerCount: 2
Fore
SplineSet
546 1706 m 1,0,-1
 693 1706 l 1,1,-1
 693 -174 l 2,2,3
 693 -369 693 -369 611.5 -491.5 c 128,-1,4
 530 -614 530 -614 398 -614 c 0,5,6
 339 -614 339 -614 300 -583.5 c 128,-1,7
 261 -553 261 -553 261 -506 c 0,8,9
 261 -467 261 -467 286 -440.5 c 128,-1,10
 311 -414 311 -414 347 -414 c 0,11,12
 380 -414 380 -414 406 -430 c 1,13,14
 416 -434 416 -434 447 -475 c 1,15,16
 478 -512 478 -512 494 -512 c 0,17,18
 523 -512 523 -512 534.5 -486.5 c 128,-1,19
 546 -461 546 -461 546 -334 c 2,20,-1
 546 1706 l 1,0,-1
EndSplineSet
Validated: 1
EndChar

StartChar: uni2500
Encoding: 9472 9472 323
Width: 1451
GlyphClass: 2
Flags: W
LayerCount: 2
Fore
SplineSet
-10 549 m 1,0,-1
 -10 694 l 1,1,-1
 1461 694 l 1,2,-1
 1461 549 l 1,3,-1
 -10 549 l 1,0,-1
EndSplineSet
Validated: 1
EndChar

StartChar: uni2502
Encoding: 9474 9474 324
Width: 1261
GlyphClass: 2
Flags: W
LayerCount: 2
Fore
SplineSet
448 1864 m 1,0,-1
 593 1864 l 1,1,-1
 593 -621 l 1,2,-1
 448 -621 l 1,3,-1
 448 1864 l 1,0,-1
EndSplineSet
Validated: 1
EndChar

StartChar: uni250C
Encoding: 9484 9484 325
Width: 1451
GlyphClass: 2
Flags: W
LayerCount: 2
Fore
SplineSet
653 694 m 1,0,-1
 1461 694 l 1,1,-1
 1461 549 l 1,2,-1
 798 549 l 1,3,-1
 798 -621 l 1,4,-1
 653 -621 l 1,5,-1
 653 694 l 1,0,-1
EndSplineSet
Validated: 1
EndChar

StartChar: uni2510
Encoding: 9488 9488 326
Width: 1451
GlyphClass: 2
Flags: W
LayerCount: 2
Fore
SplineSet
-10 549 m 1,0,-1
 -10 694 l 1,1,-1
 798 694 l 1,2,-1
 798 -621 l 1,3,-1
 653 -621 l 1,4,-1
 653 549 l 1,5,-1
 -10 549 l 1,0,-1
EndSplineSet
Validated: 1
EndChar

StartChar: uni2514
Encoding: 9492 9492 327
Width: 1451
GlyphClass: 2
Flags: W
LayerCount: 2
Fore
SplineSet
653 1864 m 1,0,-1
 798 1864 l 1,1,-1
 798 694 l 1,2,-1
 1461 694 l 1,3,-1
 1461 549 l 1,4,-1
 653 549 l 1,5,-1
 653 1864 l 1,0,-1
EndSplineSet
Validated: 1
EndChar

StartChar: uni2518
Encoding: 9496 9496 328
Width: 1451
GlyphClass: 2
Flags: W
LayerCount: 2
Fore
SplineSet
-10 549 m 1,0,-1
 -10 694 l 1,1,-1
 653 694 l 1,2,-1
 653 1864 l 1,3,-1
 798 1864 l 1,4,-1
 798 549 l 1,5,-1
 -10 549 l 1,0,-1
EndSplineSet
Validated: 1
EndChar

StartChar: uni251C
Encoding: 9500 9500 329
Width: 1451
GlyphClass: 2
Flags: W
LayerCount: 2
Fore
SplineSet
653 1864 m 1,0,-1
 798 1864 l 1,1,-1
 798 694 l 1,2,-1
 1461 694 l 1,3,-1
 1461 549 l 1,4,-1
 798 549 l 1,5,-1
 798 -621 l 1,6,-1
 653 -621 l 1,7,-1
 653 1864 l 1,0,-1
EndSplineSet
Validated: 1
EndChar

StartChar: uni2524
Encoding: 9508 9508 330
Width: 1451
GlyphClass: 2
Flags: W
LayerCount: 2
Fore
SplineSet
-10 549 m 1,0,-1
 -10 694 l 1,1,-1
 653 694 l 1,2,-1
 653 1864 l 1,3,-1
 798 1864 l 1,4,-1
 798 -621 l 1,5,-1
 653 -621 l 1,6,-1
 653 549 l 1,7,-1
 -10 549 l 1,0,-1
EndSplineSet
Validated: 1
EndChar

StartChar: uni252C
Encoding: 9516 9516 331
Width: 1451
GlyphClass: 2
Flags: W
LayerCount: 2
Fore
SplineSet
-10 549 m 1,0,-1
 -10 694 l 1,1,-1
 1461 694 l 1,2,-1
 1461 549 l 1,3,-1
 798 549 l 1,4,-1
 798 -621 l 1,5,-1
 653 -621 l 1,6,-1
 653 549 l 1,7,-1
 -10 549 l 1,0,-1
EndSplineSet
Validated: 1
EndChar

StartChar: uni2534
Encoding: 9524 9524 332
Width: 1451
GlyphClass: 2
Flags: W
LayerCount: 2
Fore
SplineSet
-10 549 m 1,0,-1
 -10 694 l 1,1,-1
 653 694 l 1,2,-1
 653 1864 l 1,3,-1
 798 1864 l 1,4,-1
 798 694 l 1,5,-1
 1461 694 l 1,6,-1
 1461 549 l 1,7,-1
 -10 549 l 1,0,-1
EndSplineSet
Validated: 1
EndChar

StartChar: uni253C
Encoding: 9532 9532 333
Width: 1451
GlyphClass: 2
Flags: W
LayerCount: 2
Fore
SplineSet
-10 549 m 1,0,-1
 -10 694 l 1,1,-1
 653 694 l 1,2,-1
 653 1864 l 1,3,-1
 798 1864 l 1,4,-1
 798 694 l 1,5,-1
 1461 694 l 1,6,-1
 1461 549 l 1,7,-1
 798 549 l 1,8,-1
 798 -621 l 1,9,-1
 653 -621 l 1,10,-1
 653 549 l 1,11,-1
 -10 549 l 1,0,-1
EndSplineSet
Validated: 1
EndChar

StartChar: uni2550
Encoding: 9552 9552 334
Width: 1451
GlyphClass: 2
Flags: W
LayerCount: 2
Fore
SplineSet
-10 729 m 1,0,-1
 -10 874 l 1,1,-1
 1461 874 l 1,2,-1
 1461 729 l 1,3,-1
 -10 729 l 1,0,-1
-10 369 m 1,4,-1
 -10 514 l 1,5,-1
 1461 514 l 1,6,-1
 1461 369 l 1,7,-1
 -10 369 l 1,4,-1
EndSplineSet
Validated: 1
EndChar

StartChar: uni2551
Encoding: 9553 9553 335
Width: 1451
GlyphClass: 2
Flags: W
LayerCount: 2
Fore
SplineSet
473 1864 m 1,0,-1
 618 1864 l 1,1,-1
 618 -621 l 1,2,-1
 473 -621 l 1,3,-1
 473 1864 l 1,0,-1
833 1864 m 1,4,-1
 978 1864 l 1,5,-1
 978 -621 l 1,6,-1
 833 -621 l 1,7,-1
 833 1864 l 1,4,-1
EndSplineSet
Validated: 1
EndChar

StartChar: uni2552
Encoding: 9554 9554 336
Width: 1451
GlyphClass: 2
Flags: W
LayerCount: 2
Fore
SplineSet
653 874 m 1,0,-1
 1461 874 l 1,1,-1
 1461 729 l 1,2,-1
 798 729 l 1,3,-1
 798 514 l 1,4,-1
 1461 514 l 1,5,-1
 1461 369 l 1,6,-1
 798 369 l 1,7,-1
 798 -621 l 1,8,-1
 653 -621 l 1,9,-1
 653 874 l 1,0,-1
EndSplineSet
Validated: 1
EndChar

StartChar: uni2553
Encoding: 9555 9555 337
Width: 1451
GlyphClass: 2
Flags: W
LayerCount: 2
Fore
SplineSet
1461 694 m 1,0,-1
 1461 549 l 1,1,-1
 978 549 l 1,2,-1
 978 -621 l 1,3,-1
 833 -621 l 1,4,-1
 833 549 l 1,5,-1
 618 549 l 1,6,-1
 618 -621 l 1,7,-1
 473 -621 l 1,8,-1
 473 694 l 1,9,-1
 1461 694 l 1,0,-1
EndSplineSet
Validated: 1
EndChar

StartChar: uni2554
Encoding: 9556 9556 338
Width: 1451
GlyphClass: 2
Flags: W
LayerCount: 2
Fore
SplineSet
473 874 m 1,0,-1
 1461 874 l 1,1,-1
 1461 729 l 1,2,-1
 618 729 l 1,3,-1
 618 -621 l 1,4,-1
 473 -621 l 1,5,-1
 473 874 l 1,0,-1
833 514 m 1,6,-1
 1461 514 l 1,7,-1
 1461 369 l 1,8,-1
 978 369 l 1,9,-1
 978 -621 l 1,10,-1
 833 -621 l 1,11,-1
 833 514 l 1,6,-1
EndSplineSet
Validated: 1
EndChar

StartChar: uni2555
Encoding: 9557 9557 339
Width: 1451
GlyphClass: 2
Flags: W
LayerCount: 2
Fore
SplineSet
-10 369 m 1,0,-1
 -10 514 l 1,1,-1
 653 514 l 1,2,-1
 653 729 l 1,3,-1
 -10 729 l 1,4,-1
 -10 874 l 1,5,-1
 798 874 l 1,6,-1
 798 -621 l 1,7,-1
 653 -621 l 1,8,-1
 653 369 l 1,9,-1
 -10 369 l 1,0,-1
EndSplineSet
Validated: 1
EndChar

StartChar: uni2556
Encoding: 9558 9558 340
Width: 1451
GlyphClass: 2
Flags: W
LayerCount: 2
Fore
SplineSet
-10 549 m 1,0,-1
 -10 694 l 1,1,-1
 978 694 l 1,2,-1
 978 -621 l 1,3,-1
 833 -621 l 1,4,-1
 833 549 l 1,5,-1
 618 549 l 1,6,-1
 618 -621 l 1,7,-1
 473 -621 l 1,8,-1
 473 549 l 1,9,-1
 -10 549 l 1,0,-1
EndSplineSet
Validated: 1
EndChar

StartChar: uni2557
Encoding: 9559 9559 341
Width: 1451
GlyphClass: 2
Flags: W
LayerCount: 2
Fore
SplineSet
978 874 m 1,0,-1
 978 -621 l 1,1,-1
 833 -621 l 1,2,-1
 833 729 l 1,3,-1
 -10 729 l 1,4,-1
 -10 874 l 1,5,-1
 978 874 l 1,0,-1
618 -621 m 1,6,-1
 473 -621 l 1,7,-1
 473 369 l 1,8,-1
 -10 369 l 1,9,-1
 -10 514 l 1,10,-1
 618 514 l 1,11,-1
 618 -621 l 1,6,-1
EndSplineSet
Validated: 1
EndChar

StartChar: uni2558
Encoding: 9560 9560 342
Width: 1451
GlyphClass: 2
Flags: W
LayerCount: 2
Fore
SplineSet
653 1864 m 1,0,-1
 798 1864 l 1,1,-1
 798 874 l 1,2,-1
 1461 874 l 1,3,-1
 1461 729 l 1,4,-1
 798 729 l 1,5,-1
 798 514 l 1,6,-1
 1461 514 l 1,7,-1
 1461 369 l 1,8,-1
 653 369 l 1,9,-1
 653 1864 l 1,0,-1
EndSplineSet
Validated: 1
EndChar

StartChar: uni2559
Encoding: 9561 9561 343
Width: 1451
GlyphClass: 2
Flags: W
LayerCount: 2
Fore
SplineSet
833 1864 m 1,0,-1
 978 1864 l 1,1,-1
 978 694 l 1,2,-1
 1461 694 l 1,3,-1
 1461 549 l 1,4,-1
 473 549 l 1,5,-1
 473 1864 l 1,6,-1
 618 1864 l 1,7,-1
 618 694 l 1,8,-1
 833 694 l 1,9,-1
 833 1864 l 1,0,-1
EndSplineSet
Validated: 1
EndChar

StartChar: uni255A
Encoding: 9562 9562 344
Width: 1451
GlyphClass: 2
Flags: W
LayerCount: 2
Fore
SplineSet
473 1864 m 1,0,-1
 618 1864 l 1,1,-1
 618 514 l 1,2,-1
 1461 514 l 1,3,-1
 1461 369 l 1,4,-1
 473 369 l 1,5,-1
 473 1864 l 1,0,-1
833 1864 m 1,6,-1
 978 1864 l 1,7,-1
 978 874 l 1,8,-1
 1461 874 l 1,9,-1
 1461 729 l 1,10,-1
 833 729 l 1,11,-1
 833 1864 l 1,6,-1
EndSplineSet
Validated: 1
EndChar

StartChar: uni255B
Encoding: 9563 9563 345
Width: 1451
GlyphClass: 2
Flags: W
LayerCount: 2
Fore
SplineSet
-10 369 m 1,0,-1
 -10 514 l 1,1,-1
 653 514 l 1,2,-1
 653 729 l 1,3,-1
 -10 729 l 1,4,-1
 -10 874 l 1,5,-1
 653 874 l 1,6,-1
 653 1864 l 1,7,-1
 798 1864 l 1,8,-1
 798 369 l 1,9,-1
 -10 369 l 1,0,-1
EndSplineSet
Validated: 1
EndChar

StartChar: uni255C
Encoding: 9564 9564 346
Width: 1451
GlyphClass: 2
Flags: W
LayerCount: 2
Fore
SplineSet
978 549 m 1,0,-1
 -10 549 l 1,1,-1
 -10 694 l 1,2,-1
 473 694 l 1,3,-1
 473 1864 l 1,4,-1
 618 1864 l 1,5,-1
 618 694 l 1,6,-1
 833 694 l 1,7,-1
 833 1864 l 1,8,-1
 978 1864 l 1,9,-1
 978 549 l 1,0,-1
EndSplineSet
Validated: 1
EndChar

StartChar: uni255D
Encoding: 9565 9565 347
Width: 1451
GlyphClass: 2
Flags: W
LayerCount: 2
Fore
SplineSet
978 369 m 1,0,-1
 -10 369 l 1,1,-1
 -10 514 l 1,2,-1
 833 514 l 1,3,-1
 833 1864 l 1,4,-1
 978 1864 l 1,5,-1
 978 369 l 1,0,-1
473 1864 m 1,6,-1
 618 1864 l 1,7,-1
 618 729 l 1,8,-1
 -10 729 l 1,9,-1
 -10 874 l 1,10,-1
 473 874 l 1,11,-1
 473 1864 l 1,6,-1
EndSplineSet
Validated: 1
EndChar

StartChar: uni255E
Encoding: 9566 9566 348
Width: 1451
GlyphClass: 2
Flags: W
LayerCount: 2
Fore
SplineSet
653 1864 m 1,0,-1
 798 1864 l 1,1,-1
 798 874 l 1,2,-1
 1461 874 l 1,3,-1
 1461 729 l 1,4,-1
 798 729 l 1,5,-1
 798 514 l 1,6,-1
 1461 514 l 1,7,-1
 1461 369 l 1,8,-1
 798 369 l 1,9,-1
 798 -621 l 1,10,-1
 653 -621 l 1,11,-1
 653 1864 l 1,0,-1
EndSplineSet
Validated: 1
EndChar

StartChar: uni255F
Encoding: 9567 9567 349
Width: 1451
GlyphClass: 2
Flags: W
LayerCount: 2
Fore
SplineSet
833 1864 m 1,0,-1
 978 1864 l 1,1,-1
 978 694 l 1,2,-1
 1461 694 l 1,3,-1
 1461 549 l 1,4,-1
 978 549 l 1,5,-1
 978 -621 l 1,6,-1
 833 -621 l 1,7,-1
 833 1864 l 1,0,-1
473 1864 m 1,8,-1
 618 1864 l 1,9,-1
 618 -621 l 1,10,-1
 473 -621 l 1,11,-1
 473 1864 l 1,8,-1
EndSplineSet
Validated: 1
EndChar

StartChar: uni2560
Encoding: 9568 9568 350
Width: 1451
GlyphClass: 2
Flags: W
LayerCount: 2
Fore
SplineSet
618 -621 m 1,0,-1
 473 -621 l 1,1,-1
 473 1864 l 1,2,-1
 618 1864 l 1,3,-1
 618 -621 l 1,0,-1
833 514 m 1,4,-1
 1461 514 l 1,5,-1
 1461 369 l 1,6,-1
 978 369 l 1,7,-1
 978 -621 l 1,8,-1
 833 -621 l 1,9,-1
 833 514 l 1,4,-1
833 1864 m 1,10,-1
 978 1864 l 1,11,-1
 978 874 l 1,12,-1
 1461 874 l 1,13,-1
 1461 729 l 1,14,-1
 833 729 l 1,15,-1
 833 1864 l 1,10,-1
EndSplineSet
Validated: 1
EndChar

StartChar: uni2561
Encoding: 9569 9569 351
Width: 1451
GlyphClass: 2
Flags: W
LayerCount: 2
Fore
SplineSet
-10 369 m 1,0,-1
 -10 514 l 1,1,-1
 653 514 l 1,2,-1
 653 729 l 1,3,-1
 -10 729 l 1,4,-1
 -10 874 l 1,5,-1
 653 874 l 1,6,-1
 653 1864 l 1,7,-1
 798 1864 l 1,8,-1
 798 -621 l 1,9,-1
 653 -621 l 1,10,-1
 653 369 l 1,11,-1
 -10 369 l 1,0,-1
EndSplineSet
Validated: 1
EndChar

StartChar: uni2562
Encoding: 9570 9570 352
Width: 1451
GlyphClass: 2
Flags: W
LayerCount: 2
Fore
SplineSet
-10 549 m 1,0,-1
 -10 694 l 1,1,-1
 473 694 l 1,2,-1
 473 1864 l 1,3,-1
 618 1864 l 1,4,-1
 618 -621 l 1,5,-1
 473 -621 l 1,6,-1
 473 549 l 1,7,-1
 -10 549 l 1,0,-1
833 1864 m 1,8,-1
 978 1864 l 1,9,-1
 978 -621 l 1,10,-1
 833 -621 l 1,11,-1
 833 1864 l 1,8,-1
EndSplineSet
Validated: 1
EndChar

StartChar: uni2563
Encoding: 9571 9571 353
Width: 1451
GlyphClass: 2
Flags: W
LayerCount: 2
Fore
SplineSet
833 1864 m 1,0,-1
 978 1864 l 1,1,-1
 978 -621 l 1,2,-1
 833 -621 l 1,3,-1
 833 1864 l 1,0,-1
473 1864 m 1,4,-1
 618 1864 l 1,5,-1
 618 729 l 1,6,-1
 -10 729 l 1,7,-1
 -10 874 l 1,8,-1
 473 874 l 1,9,-1
 473 1864 l 1,4,-1
618 -621 m 1,10,-1
 473 -621 l 1,11,-1
 473 369 l 1,12,-1
 -10 369 l 1,13,-1
 -10 514 l 1,14,-1
 618 514 l 1,15,-1
 618 -621 l 1,10,-1
EndSplineSet
Validated: 1
EndChar

StartChar: uni2564
Encoding: 9572 9572 354
Width: 1451
GlyphClass: 2
Flags: W
LayerCount: 2
Fore
SplineSet
-10 369 m 1,0,-1
 -10 514 l 1,1,-1
 1461 514 l 1,2,-1
 1461 369 l 1,3,-1
 798 369 l 1,4,-1
 798 -621 l 1,5,-1
 653 -621 l 1,6,-1
 653 369 l 1,7,-1
 -10 369 l 1,0,-1
-10 729 m 1,8,-1
 -10 874 l 1,9,-1
 1461 874 l 1,10,-1
 1461 729 l 1,11,-1
 -10 729 l 1,8,-1
EndSplineSet
Validated: 1
EndChar

StartChar: uni2565
Encoding: 9573 9573 355
Width: 1451
GlyphClass: 2
Flags: W
LayerCount: 2
Fore
SplineSet
-10 549 m 1,0,-1
 -10 694 l 1,1,-1
 1461 694 l 1,2,-1
 1461 549 l 1,3,-1
 978 549 l 1,4,-1
 978 -621 l 1,5,-1
 833 -621 l 1,6,-1
 833 549 l 1,7,-1
 618 549 l 1,8,-1
 618 -621 l 1,9,-1
 473 -621 l 1,10,-1
 473 549 l 1,11,-1
 -10 549 l 1,0,-1
EndSplineSet
Validated: 1
EndChar

StartChar: uni2566
Encoding: 9574 9574 356
Width: 1451
GlyphClass: 2
Flags: W
LayerCount: 2
Fore
SplineSet
618 -621 m 1,0,-1
 473 -621 l 1,1,-1
 473 369 l 1,2,-1
 -10 369 l 1,3,-1
 -10 514 l 1,4,-1
 618 514 l 1,5,-1
 618 -621 l 1,0,-1
833 514 m 1,6,-1
 1461 514 l 1,7,-1
 1461 369 l 1,8,-1
 978 369 l 1,9,-1
 978 -621 l 1,10,-1
 833 -621 l 1,11,-1
 833 514 l 1,6,-1
1461 874 m 1,12,-1
 1461 729 l 1,13,-1
 -10 729 l 1,14,-1
 -10 874 l 1,15,-1
 1461 874 l 1,12,-1
EndSplineSet
Validated: 1
EndChar

StartChar: uni2567
Encoding: 9575 9575 357
Width: 1451
GlyphClass: 2
Flags: W
LayerCount: 2
Fore
SplineSet
-10 729 m 1,0,-1
 -10 874 l 1,1,-1
 653 874 l 1,2,-1
 653 1864 l 1,3,-1
 798 1864 l 1,4,-1
 798 874 l 1,5,-1
 1461 874 l 1,6,-1
 1461 729 l 1,7,-1
 -10 729 l 1,0,-1
-10 369 m 1,8,-1
 -10 514 l 1,9,-1
 1461 514 l 1,10,-1
 1461 369 l 1,11,-1
 -10 369 l 1,8,-1
EndSplineSet
Validated: 1
EndChar

StartChar: uni2568
Encoding: 9576 9576 358
Width: 1451
GlyphClass: 2
Flags: W
LayerCount: 2
Fore
SplineSet
-10 549 m 1,0,-1
 -10 694 l 1,1,-1
 473 694 l 1,2,-1
 473 1864 l 1,3,-1
 618 1864 l 1,4,-1
 618 694 l 1,5,-1
 833 694 l 1,6,-1
 833 1864 l 1,7,-1
 978 1864 l 1,8,-1
 978 694 l 1,9,-1
 1461 694 l 1,10,-1
 1461 549 l 1,11,-1
 -10 549 l 1,0,-1
EndSplineSet
Validated: 1
EndChar

StartChar: uni2569
Encoding: 9577 9577 359
Width: 1451
GlyphClass: 2
Flags: W
LayerCount: 2
Fore
SplineSet
833 1864 m 1,0,-1
 978 1864 l 1,1,-1
 978 874 l 1,2,-1
 1461 874 l 1,3,-1
 1461 729 l 1,4,-1
 833 729 l 1,5,-1
 833 1864 l 1,0,-1
473 1864 m 1,6,-1
 618 1864 l 1,7,-1
 618 729 l 1,8,-1
 -10 729 l 1,9,-1
 -10 874 l 1,10,-1
 473 874 l 1,11,-1
 473 1864 l 1,6,-1
-10 369 m 1,12,-1
 -10 514 l 1,13,-1
 1461 514 l 1,14,-1
 1461 369 l 1,15,-1
 -10 369 l 1,12,-1
EndSplineSet
Validated: 1
EndChar

StartChar: uni256A
Encoding: 9578 9578 360
Width: 1451
GlyphClass: 2
Flags: W
LayerCount: 2
Fore
SplineSet
-10 369 m 1,0,-1
 -10 514 l 1,1,-1
 653 514 l 1,2,-1
 653 729 l 1,3,-1
 -10 729 l 1,4,-1
 -10 874 l 1,5,-1
 653 874 l 1,6,-1
 653 1864 l 1,7,-1
 798 1864 l 1,8,-1
 798 874 l 1,9,-1
 1461 874 l 1,10,-1
 1461 729 l 1,11,-1
 798 729 l 1,12,-1
 798 514 l 1,13,-1
 1461 514 l 1,14,-1
 1461 369 l 1,15,-1
 798 369 l 1,16,-1
 798 -621 l 1,17,-1
 653 -621 l 1,18,-1
 653 369 l 1,19,-1
 -10 369 l 1,0,-1
EndSplineSet
Validated: 1
EndChar

StartChar: uni256B
Encoding: 9579 9579 361
Width: 1451
GlyphClass: 2
Flags: W
LayerCount: 2
Fore
SplineSet
833 1864 m 1,0,-1
 978 1864 l 1,1,-1
 978 694 l 1,2,-1
 1461 694 l 1,3,-1
 1461 549 l 1,4,-1
 978 549 l 1,5,-1
 978 -621 l 1,6,-1
 833 -621 l 1,7,-1
 833 549 l 1,8,-1
 618 549 l 1,9,-1
 618 -621 l 1,10,-1
 473 -621 l 1,11,-1
 473 549 l 1,12,-1
 -10 549 l 1,13,-1
 -10 694 l 1,14,-1
 473 694 l 1,15,-1
 473 1864 l 1,16,-1
 618 1864 l 1,17,-1
 618 694 l 1,18,-1
 833 694 l 1,19,-1
 833 1864 l 1,0,-1
EndSplineSet
Validated: 1
EndChar

StartChar: uni256C
Encoding: 9580 9580 362
Width: 1451
GlyphClass: 2
Flags: W
LayerCount: 2
Fore
SplineSet
833 1864 m 1,0,-1
 978 1864 l 1,1,-1
 978 874 l 1,2,-1
 1461 874 l 1,3,-1
 1461 729 l 1,4,-1
 833 729 l 1,5,-1
 833 1864 l 1,0,-1
618 -621 m 1,6,-1
 473 -621 l 1,7,-1
 473 369 l 1,8,-1
 -10 369 l 1,9,-1
 -10 514 l 1,10,-1
 618 514 l 1,11,-1
 618 -621 l 1,6,-1
833 514 m 1,12,-1
 1461 514 l 1,13,-1
 1461 369 l 1,14,-1
 978 369 l 1,15,-1
 978 -621 l 1,16,-1
 833 -621 l 1,17,-1
 833 514 l 1,12,-1
473 1864 m 1,18,-1
 618 1864 l 1,19,-1
 618 729 l 1,20,-1
 -10 729 l 1,21,-1
 -10 874 l 1,22,-1
 473 874 l 1,23,-1
 473 1864 l 1,18,-1
EndSplineSet
Validated: 1
EndChar

StartChar: upblock
Encoding: 9600 9600 363
Width: 1451
GlyphClass: 2
Flags: W
LayerCount: 2
Fore
SplineSet
1451 621 m 1,0,-1
 0 621 l 1,1,-1
 0 1864 l 1,2,-1
 1451 1864 l 1,3,-1
 1451 621 l 1,0,-1
EndSplineSet
Validated: 1
EndChar

StartChar: dnblock
Encoding: 9604 9604 364
Width: 1451
GlyphClass: 2
Flags: W
LayerCount: 2
Fore
SplineSet
1451 -621 m 1,0,-1
 0 -621 l 1,1,-1
 0 621 l 1,2,-1
 1451 621 l 1,3,-1
 1451 -621 l 1,0,-1
EndSplineSet
Validated: 1
EndChar

StartChar: block
Encoding: 9608 9608 365
Width: 1451
GlyphClass: 2
Flags: W
LayerCount: 2
Fore
SplineSet
1451 -621 m 1,0,-1
 0 -621 l 1,1,-1
 0 1864 l 1,2,-1
 1451 1864 l 1,3,-1
 1451 -621 l 1,0,-1
EndSplineSet
Validated: 1
EndChar

StartChar: lfblock
Encoding: 9612 9612 366
Width: 1451
GlyphClass: 2
Flags: W
LayerCount: 2
Fore
SplineSet
726 -621 m 1,0,-1
 0 -621 l 1,1,-1
 0 1864 l 1,2,-1
 726 1864 l 1,3,-1
 726 -621 l 1,0,-1
EndSplineSet
Validated: 1
EndChar

StartChar: rtblock
Encoding: 9616 9616 367
Width: 1451
GlyphClass: 2
Flags: W
LayerCount: 2
Fore
SplineSet
1451 -621 m 1,0,-1
 725 -621 l 1,1,-1
 725 1864 l 1,2,-1
 1451 1864 l 1,3,-1
 1451 -621 l 1,0,-1
EndSplineSet
Validated: 1
EndChar

StartChar: ltshade
Encoding: 9617 9617 368
Width: 1451
GlyphClass: 2
Flags: W
LayerCount: 2
Fore
SplineSet
103 1314 m 1,0,-1
 207 1314 l 1,1,-1
 207 1216 l 1,2,-1
 103 1216 l 1,3,-1
 103 1314 l 1,0,-1
517 1314 m 1,4,-1
 621 1314 l 1,5,-1
 621 1216 l 1,6,-1
 517 1216 l 1,7,-1
 517 1314 l 1,4,-1
933 1314 m 1,8,-1
 1036 1314 l 1,9,-1
 1036 1216 l 1,10,-1
 933 1216 l 1,11,-1
 933 1314 l 1,8,-1
310 1119 m 1,12,-1
 414 1119 l 1,13,-1
 414 1023 l 1,14,-1
 310 1023 l 1,15,-1
 310 1119 l 1,12,-1
725 1119 m 1,16,-1
 829 1119 l 1,17,-1
 829 1023 l 1,18,-1
 725 1023 l 1,19,-1
 725 1119 l 1,16,-1
1140 1119 m 1,20,-1
 1244 1119 l 1,21,-1
 1244 1023 l 1,22,-1
 1140 1023 l 1,23,-1
 1140 1119 l 1,20,-1
933 927 m 1,24,-1
 1036 927 l 1,25,-1
 1036 831 l 1,26,-1
 933 831 l 1,27,-1
 933 927 l 1,24,-1
517 927 m 1,28,-1
 621 927 l 1,29,-1
 621 831 l 1,30,-1
 517 831 l 1,31,-1
 517 927 l 1,28,-1
103 927 m 1,32,-1
 207 927 l 1,33,-1
 207 831 l 1,34,-1
 103 831 l 1,35,-1
 103 927 l 1,32,-1
1140 732 m 1,36,-1
 1244 732 l 1,37,-1
 1244 636 l 1,38,-1
 1140 636 l 1,39,-1
 1140 732 l 1,36,-1
725 732 m 1,40,-1
 829 732 l 1,41,-1
 829 636 l 1,42,-1
 725 636 l 1,43,-1
 725 732 l 1,40,-1
310 732 m 1,44,-1
 414 732 l 1,45,-1
 414 636 l 1,46,-1
 310 636 l 1,47,-1
 310 732 l 1,44,-1
103 540 m 1,48,-1
 207 540 l 1,49,-1
 207 444 l 1,50,-1
 103 444 l 1,51,-1
 103 540 l 1,48,-1
517 540 m 1,52,-1
 621 540 l 1,53,-1
 621 444 l 1,54,-1
 517 444 l 1,55,-1
 517 540 l 1,52,-1
933 540 m 1,56,-1
 1036 540 l 1,57,-1
 1036 444 l 1,58,-1
 933 444 l 1,59,-1
 933 540 l 1,56,-1
1140 345 m 1,60,-1
 1244 345 l 1,61,-1
 1244 249 l 1,62,-1
 1140 249 l 1,63,-1
 1140 345 l 1,60,-1
725 345 m 1,64,-1
 829 345 l 1,65,-1
 829 249 l 1,66,-1
 725 249 l 1,67,-1
 725 345 l 1,64,-1
310 345 m 1,68,-1
 414 345 l 1,69,-1
 414 249 l 1,70,-1
 310 249 l 1,71,-1
 310 345 l 1,68,-1
103 153 m 1,72,-1
 207 153 l 1,73,-1
 207 56 l 1,74,-1
 103 56 l 1,75,-1
 103 153 l 1,72,-1
517 153 m 1,76,-1
 621 153 l 1,77,-1
 621 56 l 1,78,-1
 517 56 l 1,79,-1
 517 153 l 1,76,-1
933 153 m 1,80,-1
 1036 153 l 1,81,-1
 1036 56 l 1,82,-1
 933 56 l 1,83,-1
 933 153 l 1,80,-1
310 -42 m 1,84,-1
 414 -42 l 1,85,-1
 414 -136 l 1,86,-1
 310 -136 l 1,87,-1
 310 -42 l 1,84,-1
725 -42 m 1,88,-1
 829 -42 l 1,89,-1
 829 -136 l 1,90,-1
 725 -136 l 1,91,-1
 725 -42 l 1,88,-1
1140 -42 m 1,92,-1
 1244 -42 l 1,93,-1
 1244 -136 l 1,94,-1
 1140 -136 l 1,95,-1
 1140 -42 l 1,92,-1
933 -234 m 1,96,-1
 1036 -234 l 1,97,-1
 1036 -331 l 1,98,-1
 933 -331 l 1,99,-1
 933 -234 l 1,96,-1
517 -234 m 1,100,-1
 621 -234 l 1,101,-1
 621 -331 l 1,102,-1
 517 -331 l 1,103,-1
 517 -234 l 1,100,-1
103 -234 m 1,104,-1
 207 -234 l 1,105,-1
 207 -331 l 1,106,-1
 103 -331 l 1,107,-1
 103 -234 l 1,104,-1
310 -427 m 1,108,-1
 414 -427 l 1,109,-1
 414 -523 l 1,110,-1
 310 -523 l 1,111,-1
 310 -427 l 1,108,-1
725 -427 m 1,112,-1
 829 -427 l 1,113,-1
 829 -523 l 1,114,-1
 725 -523 l 1,115,-1
 725 -427 l 1,112,-1
1140 -427 m 1,116,-1
 1244 -427 l 1,117,-1
 1244 -523 l 1,118,-1
 1140 -523 l 1,119,-1
 1140 -427 l 1,116,-1
310 1506 m 1,120,-1
 414 1506 l 1,121,-1
 414 1408 l 1,122,-1
 310 1408 l 1,123,-1
 310 1506 l 1,120,-1
725 1506 m 1,124,-1
 829 1506 l 1,125,-1
 829 1408 l 1,126,-1
 725 1408 l 1,127,-1
 725 1506 l 1,124,-1
1140 1506 m 1,128,-1
 1244 1506 l 1,129,-1
 1244 1408 l 1,130,-1
 1140 1408 l 1,131,-1
 1140 1506 l 1,128,-1
103 1699 m 1,132,-1
 207 1699 l 1,133,-1
 207 1603 l 1,134,-1
 103 1603 l 1,135,-1
 103 1699 l 1,132,-1
517 1699 m 1,136,-1
 621 1699 l 1,137,-1
 621 1603 l 1,138,-1
 517 1603 l 1,139,-1
 517 1699 l 1,136,-1
933 1699 m 1,140,-1
 1036 1699 l 1,141,-1
 1036 1603 l 1,142,-1
 933 1603 l 1,143,-1
 933 1699 l 1,140,-1
1347 1314 m 1,144,-1
 1451 1314 l 1,145,-1
 1451 1216 l 1,146,-1
 1347 1216 l 1,147,-1
 1347 1314 l 1,144,-1
1347 927 m 1,148,-1
 1451 927 l 1,149,-1
 1451 831 l 1,150,-1
 1347 831 l 1,151,-1
 1347 927 l 1,148,-1
1347 540 m 1,152,-1
 1451 540 l 1,153,-1
 1451 444 l 1,154,-1
 1347 444 l 1,155,-1
 1347 540 l 1,152,-1
1347 153 m 1,156,-1
 1451 153 l 1,157,-1
 1451 56 l 1,158,-1
 1347 56 l 1,159,-1
 1347 153 l 1,156,-1
1347 -234 m 1,160,-1
 1451 -234 l 1,161,-1
 1451 -331 l 1,162,-1
 1347 -331 l 1,163,-1
 1347 -234 l 1,160,-1
1347 1699 m 1,164,-1
 1451 1699 l 1,165,-1
 1451 1603 l 1,166,-1
 1347 1603 l 1,167,-1
 1347 1699 l 1,164,-1
EndSplineSet
Validated: 1
EndChar

StartChar: shade
Encoding: 9618 9618 369
Width: 1451
GlyphClass: 2
Flags: W
LayerCount: 2
Fore
SplineSet
103 1314 m 1,0,-1
 207 1314 l 1,1,-1
 207 1216 l 1,2,-1
 103 1216 l 1,3,-1
 103 1314 l 1,0,-1
310 1314 m 1,4,-1
 414 1314 l 1,5,-1
 414 1216 l 1,6,-1
 310 1216 l 1,7,-1
 310 1314 l 1,4,-1
517 1314 m 1,8,-1
 621 1314 l 1,9,-1
 621 1216 l 1,10,-1
 517 1216 l 1,11,-1
 517 1314 l 1,8,-1
725 1314 m 1,12,-1
 829 1314 l 1,13,-1
 829 1216 l 1,14,-1
 725 1216 l 1,15,-1
 725 1314 l 1,12,-1
933 1314 m 1,16,-1
 1037 1314 l 1,17,-1
 1037 1216 l 1,18,-1
 933 1216 l 1,19,-1
 933 1314 l 1,16,-1
1140 1314 m 1,20,-1
 1244 1314 l 1,21,-1
 1244 1216 l 1,22,-1
 1140 1216 l 1,23,-1
 1140 1314 l 1,20,-1
0 1119 m 1,24,-1
 103 1119 l 1,25,-1
 103 1023 l 1,26,-1
 0 1023 l 1,27,-1
 0 1119 l 1,24,-1
207 1119 m 1,28,-1
 310 1119 l 1,29,-1
 310 1023 l 1,30,-1
 207 1023 l 1,31,-1
 207 1119 l 1,28,-1
414 1119 m 1,32,-1
 517 1119 l 1,33,-1
 517 1023 l 1,34,-1
 414 1023 l 1,35,-1
 414 1119 l 1,32,-1
621 1119 m 1,36,-1
 725 1119 l 1,37,-1
 725 1023 l 1,38,-1
 621 1023 l 1,39,-1
 621 1119 l 1,36,-1
829 1119 m 1,40,-1
 933 1119 l 1,41,-1
 933 1023 l 1,42,-1
 829 1023 l 1,43,-1
 829 1119 l 1,40,-1
1037 1119 m 1,44,-1
 1140 1119 l 1,45,-1
 1140 1023 l 1,46,-1
 1037 1023 l 1,47,-1
 1037 1119 l 1,44,-1
103 927 m 1,48,-1
 207 927 l 1,49,-1
 207 831 l 1,50,-1
 103 831 l 1,51,-1
 103 927 l 1,48,-1
310 927 m 1,52,-1
 414 927 l 1,53,-1
 414 831 l 1,54,-1
 310 831 l 1,55,-1
 310 927 l 1,52,-1
517 927 m 1,56,-1
 621 927 l 1,57,-1
 621 831 l 1,58,-1
 517 831 l 1,59,-1
 517 927 l 1,56,-1
725 927 m 1,60,-1
 829 927 l 1,61,-1
 829 831 l 1,62,-1
 725 831 l 1,63,-1
 725 927 l 1,60,-1
933 927 m 1,64,-1
 1037 927 l 1,65,-1
 1037 831 l 1,66,-1
 933 831 l 1,67,-1
 933 927 l 1,64,-1
1140 927 m 1,68,-1
 1244 927 l 1,69,-1
 1244 831 l 1,70,-1
 1140 831 l 1,71,-1
 1140 927 l 1,68,-1
0 732 m 1,72,-1
 103 732 l 1,73,-1
 103 636 l 1,74,-1
 0 636 l 1,75,-1
 0 732 l 1,72,-1
207 732 m 1,76,-1
 310 732 l 1,77,-1
 310 636 l 1,78,-1
 207 636 l 1,79,-1
 207 732 l 1,76,-1
414 732 m 1,80,-1
 517 732 l 1,81,-1
 517 636 l 1,82,-1
 414 636 l 1,83,-1
 414 732 l 1,80,-1
621 732 m 1,84,-1
 725 732 l 1,85,-1
 725 636 l 1,86,-1
 621 636 l 1,87,-1
 621 732 l 1,84,-1
829 732 m 1,88,-1
 933 732 l 1,89,-1
 933 636 l 1,90,-1
 829 636 l 1,91,-1
 829 732 l 1,88,-1
1037 732 m 1,92,-1
 1140 732 l 1,93,-1
 1140 636 l 1,94,-1
 1037 636 l 1,95,-1
 1037 732 l 1,92,-1
103 540 m 1,96,-1
 207 540 l 1,97,-1
 207 444 l 1,98,-1
 103 444 l 1,99,-1
 103 540 l 1,96,-1
310 540 m 1,100,-1
 414 540 l 1,101,-1
 414 444 l 1,102,-1
 310 444 l 1,103,-1
 310 540 l 1,100,-1
517 540 m 1,104,-1
 621 540 l 1,105,-1
 621 444 l 1,106,-1
 517 444 l 1,107,-1
 517 540 l 1,104,-1
725 540 m 1,108,-1
 829 540 l 1,109,-1
 829 444 l 1,110,-1
 725 444 l 1,111,-1
 725 540 l 1,108,-1
933 540 m 1,112,-1
 1037 540 l 1,113,-1
 1037 444 l 1,114,-1
 933 444 l 1,115,-1
 933 540 l 1,112,-1
1140 540 m 1,116,-1
 1244 540 l 1,117,-1
 1244 444 l 1,118,-1
 1140 444 l 1,119,-1
 1140 540 l 1,116,-1
0 345 m 1,120,-1
 103 345 l 1,121,-1
 103 249 l 1,122,-1
 0 249 l 1,123,-1
 0 345 l 1,120,-1
414 345 m 1,124,-1
 517 345 l 1,125,-1
 517 249 l 1,126,-1
 414 249 l 1,127,-1
 414 345 l 1,124,-1
621 345 m 1,128,-1
 725 345 l 1,129,-1
 725 249 l 1,130,-1
 621 249 l 1,131,-1
 621 345 l 1,128,-1
829 345 m 1,132,-1
 933 345 l 1,133,-1
 933 249 l 1,134,-1
 829 249 l 1,135,-1
 829 345 l 1,132,-1
1037 345 m 1,136,-1
 1140 345 l 1,137,-1
 1140 249 l 1,138,-1
 1037 249 l 1,139,-1
 1037 345 l 1,136,-1
207 345 m 1,140,-1
 310 345 l 1,141,-1
 310 249 l 1,142,-1
 207 249 l 1,143,-1
 207 345 l 1,140,-1
1140 153 m 1,144,-1
 1244 153 l 1,145,-1
 1244 56 l 1,146,-1
 1140 56 l 1,147,-1
 1140 153 l 1,144,-1
933 153 m 1,148,-1
 1037 153 l 1,149,-1
 1037 56 l 1,150,-1
 933 56 l 1,151,-1
 933 153 l 1,148,-1
725 153 m 1,152,-1
 829 153 l 1,153,-1
 829 56 l 1,154,-1
 725 56 l 1,155,-1
 725 153 l 1,152,-1
517 153 m 1,156,-1
 621 153 l 1,157,-1
 621 56 l 1,158,-1
 517 56 l 1,159,-1
 517 153 l 1,156,-1
310 153 m 1,160,-1
 414 153 l 1,161,-1
 414 56 l 1,162,-1
 310 56 l 1,163,-1
 310 153 l 1,160,-1
103 153 m 1,164,-1
 207 153 l 1,165,-1
 207 56 l 1,166,-1
 103 56 l 1,167,-1
 103 153 l 1,164,-1
0 -42 m 1,168,-1
 103 -42 l 1,169,-1
 103 -136 l 1,170,-1
 0 -136 l 1,171,-1
 0 -42 l 1,168,-1
207 -42 m 1,172,-1
 310 -42 l 1,173,-1
 310 -136 l 1,174,-1
 207 -136 l 1,175,-1
 207 -42 l 1,172,-1
414 -42 m 1,176,-1
 517 -42 l 1,177,-1
 517 -136 l 1,178,-1
 414 -136 l 1,179,-1
 414 -42 l 1,176,-1
621 -42 m 1,180,-1
 725 -42 l 1,181,-1
 725 -136 l 1,182,-1
 621 -136 l 1,183,-1
 621 -42 l 1,180,-1
829 -42 m 1,184,-1
 933 -42 l 1,185,-1
 933 -136 l 1,186,-1
 829 -136 l 1,187,-1
 829 -42 l 1,184,-1
1037 -42 m 1,188,-1
 1140 -42 l 1,189,-1
 1140 -136 l 1,190,-1
 1037 -136 l 1,191,-1
 1037 -42 l 1,188,-1
1140 -234 m 1,192,-1
 1244 -234 l 1,193,-1
 1244 -331 l 1,194,-1
 1140 -331 l 1,195,-1
 1140 -234 l 1,192,-1
933 -234 m 1,196,-1
 1037 -234 l 1,197,-1
 1037 -331 l 1,198,-1
 933 -331 l 1,199,-1
 933 -234 l 1,196,-1
725 -234 m 1,200,-1
 829 -234 l 1,201,-1
 829 -331 l 1,202,-1
 725 -331 l 1,203,-1
 725 -234 l 1,200,-1
517 -234 m 1,204,-1
 621 -234 l 1,205,-1
 621 -331 l 1,206,-1
 517 -331 l 1,207,-1
 517 -234 l 1,204,-1
310 -234 m 1,208,-1
 414 -234 l 1,209,-1
 414 -331 l 1,210,-1
 310 -331 l 1,211,-1
 310 -234 l 1,208,-1
103 -234 m 1,212,-1
 207 -234 l 1,213,-1
 207 -331 l 1,214,-1
 103 -331 l 1,215,-1
 103 -234 l 1,212,-1
0 -427 m 1,216,-1
 103 -427 l 1,217,-1
 103 -523 l 1,218,-1
 0 -523 l 1,219,-1
 0 -427 l 1,216,-1
207 -427 m 1,220,-1
 310 -427 l 1,221,-1
 310 -523 l 1,222,-1
 207 -523 l 1,223,-1
 207 -427 l 1,220,-1
414 -427 m 1,224,-1
 517 -427 l 1,225,-1
 517 -523 l 1,226,-1
 414 -523 l 1,227,-1
 414 -427 l 1,224,-1
621 -427 m 1,228,-1
 725 -427 l 1,229,-1
 725 -523 l 1,230,-1
 621 -523 l 1,231,-1
 621 -427 l 1,228,-1
829 -427 m 1,232,-1
 933 -427 l 1,233,-1
 933 -523 l 1,234,-1
 829 -523 l 1,235,-1
 829 -427 l 1,232,-1
1037 -427 m 1,236,-1
 1140 -427 l 1,237,-1
 1140 -523 l 1,238,-1
 1037 -523 l 1,239,-1
 1037 -427 l 1,236,-1
0 1506 m 1,240,-1
 103 1506 l 1,241,-1
 103 1408 l 1,242,-1
 0 1408 l 1,243,-1
 0 1506 l 1,240,-1
207 1506 m 1,244,-1
 310 1506 l 1,245,-1
 310 1408 l 1,246,-1
 207 1408 l 1,247,-1
 207 1506 l 1,244,-1
414 1506 m 1,248,-1
 517 1506 l 1,249,-1
 517 1408 l 1,250,-1
 414 1408 l 1,251,-1
 414 1506 l 1,248,-1
621 1506 m 1,252,-1
 725 1506 l 1,253,-1
 725 1408 l 1,254,-1
 621 1408 l 1,255,-1
 621 1506 l 1,252,-1
829 1506 m 1,256,-1
 933 1506 l 1,257,-1
 933 1408 l 1,258,-1
 829 1408 l 1,259,-1
 829 1506 l 1,256,-1
1037 1506 m 1,260,-1
 1140 1506 l 1,261,-1
 1140 1408 l 1,262,-1
 1037 1408 l 1,263,-1
 1037 1506 l 1,260,-1
103 1699 m 1,264,-1
 207 1699 l 1,265,-1
 207 1603 l 1,266,-1
 103 1603 l 1,267,-1
 103 1699 l 1,264,-1
310 1699 m 1,268,-1
 414 1699 l 1,269,-1
 414 1603 l 1,270,-1
 310 1603 l 1,271,-1
 310 1699 l 1,268,-1
517 1699 m 1,272,-1
 621 1699 l 1,273,-1
 621 1603 l 1,274,-1
 517 1603 l 1,275,-1
 517 1699 l 1,272,-1
725 1699 m 1,276,-1
 829 1699 l 1,277,-1
 829 1603 l 1,278,-1
 725 1603 l 1,279,-1
 725 1699 l 1,276,-1
933 1699 m 1,280,-1
 1037 1699 l 1,281,-1
 1037 1603 l 1,282,-1
 933 1603 l 1,283,-1
 933 1699 l 1,280,-1
1140 1699 m 1,284,-1
 1244 1699 l 1,285,-1
 1244 1603 l 1,286,-1
 1140 1603 l 1,287,-1
 1140 1699 l 1,284,-1
1347 1314 m 1,288,-1
 1451 1314 l 1,289,-1
 1451 1216 l 1,290,-1
 1347 1216 l 1,291,-1
 1347 1314 l 1,288,-1
1244 1119 m 1,292,-1
 1347 1119 l 1,293,-1
 1347 1023 l 1,294,-1
 1244 1023 l 1,295,-1
 1244 1119 l 1,292,-1
1347 927 m 1,296,-1
 1451 927 l 1,297,-1
 1451 831 l 1,298,-1
 1347 831 l 1,299,-1
 1347 927 l 1,296,-1
1244 732 m 1,300,-1
 1347 732 l 1,301,-1
 1347 636 l 1,302,-1
 1244 636 l 1,303,-1
 1244 732 l 1,300,-1
1347 540 m 1,304,-1
 1451 540 l 1,305,-1
 1451 444 l 1,306,-1
 1347 444 l 1,307,-1
 1347 540 l 1,304,-1
1244 345 m 1,308,-1
 1347 345 l 1,309,-1
 1347 249 l 1,310,-1
 1244 249 l 1,311,-1
 1244 345 l 1,308,-1
1347 153 m 1,312,-1
 1451 153 l 1,313,-1
 1451 56 l 1,314,-1
 1347 56 l 1,315,-1
 1347 153 l 1,312,-1
1244 -42 m 1,316,-1
 1347 -42 l 1,317,-1
 1347 -136 l 1,318,-1
 1244 -136 l 1,319,-1
 1244 -42 l 1,316,-1
1347 -234 m 1,320,-1
 1451 -234 l 1,321,-1
 1451 -331 l 1,322,-1
 1347 -331 l 1,323,-1
 1347 -234 l 1,320,-1
1244 -427 m 1,324,-1
 1347 -427 l 1,325,-1
 1347 -523 l 1,326,-1
 1244 -523 l 1,327,-1
 1244 -427 l 1,324,-1
1244 1506 m 1,328,-1
 1347 1506 l 1,329,-1
 1347 1408 l 1,330,-1
 1244 1408 l 1,331,-1
 1244 1506 l 1,328,-1
1347 1699 m 1,332,-1
 1451 1699 l 1,333,-1
 1451 1603 l 1,334,-1
 1347 1603 l 1,335,-1
 1347 1699 l 1,332,-1
EndSplineSet
Validated: 1
EndChar

StartChar: dkshade
Encoding: 9619 9619 370
Width: 1493
GlyphClass: 2
Flags: W
LayerCount: 2
Fore
SplineSet
1493 -621 m 1,0,-1
 0 -621 l 1,1,-1
 0 -331 l 1,2,-1
 106 -331 l 1,3,-1
 106 -234 l 1,4,-1
 0 -234 l 1,5,-1
 0 56 l 1,6,-1
 106 56 l 1,7,-1
 106 153 l 1,8,-1
 0 153 l 1,9,-1
 0 444 l 1,10,-1
 106 444 l 1,11,-1
 106 540 l 1,12,-1
 0 540 l 1,13,-1
 0 829 l 1,14,-1
 106 829 l 1,15,-1
 106 927 l 1,16,-1
 0 927 l 1,17,-1
 0 1216 l 1,18,-1
 106 1216 l 1,19,-1
 106 1314 l 1,20,-1
 0 1314 l 1,21,-1
 0 1603 l 1,22,-1
 106 1603 l 1,23,-1
 106 1699 l 1,24,-1
 213 1699 l 1,25,-1
 213 1603 l 1,26,-1
 319 1603 l 1,27,-1
 319 1699 l 1,28,-1
 426 1699 l 1,29,-1
 426 1603 l 1,30,-1
 532 1603 l 1,31,-1
 532 1699 l 1,32,-1
 639 1699 l 1,33,-1
 639 1603 l 1,34,-1
 746 1603 l 1,35,-1
 746 1699 l 1,36,-1
 853 1699 l 1,37,-1
 853 1603 l 1,38,-1
 960 1603 l 1,39,-1
 960 1699 l 1,40,-1
 1067 1699 l 1,41,-1
 1067 1603 l 1,42,-1
 1173 1603 l 1,43,-1
 1173 1699 l 1,44,-1
 1280 1699 l 1,45,-1
 1280 1603 l 1,46,-1
 1386 1603 l 1,47,-1
 1386 1699 l 1,48,-1
 1493 1699 l 1,49,-1
 1493 1506 l 1,50,-1
 1386 1506 l 1,51,-1
 1386 1408 l 1,52,-1
 1493 1408 l 1,53,-1
 1493 1119 l 1,54,-1
 1386 1119 l 1,55,-1
 1386 1023 l 1,56,-1
 1493 1023 l 1,57,-1
 1493 732 l 1,58,-1
 1386 732 l 1,59,-1
 1386 636 l 1,60,-1
 1493 636 l 1,61,-1
 1493 345 l 1,62,-1
 1386 345 l 1,63,-1
 1386 249 l 1,64,-1
 1493 249 l 1,65,-1
 1493 -42 l 1,66,-1
 1386 -42 l 1,67,-1
 1386 -136 l 1,68,-1
 1493 -136 l 1,69,-1
 1493 -427 l 1,70,-1
 1386 -427 l 1,71,-1
 1386 -523 l 1,72,-1
 1493 -523 l 1,73,-1
 1493 -621 l 1,0,-1
106 1119 m 1,74,-1
 106 1023 l 1,75,-1
 213 1023 l 1,76,-1
 213 1119 l 1,77,-1
 106 1119 l 1,74,-1
319 1119 m 1,78,-1
 319 1023 l 1,79,-1
 426 1023 l 1,80,-1
 426 1119 l 1,81,-1
 319 1119 l 1,78,-1
532 1119 m 1,82,-1
 532 1023 l 1,83,-1
 639 1023 l 1,84,-1
 639 1119 l 1,85,-1
 532 1119 l 1,82,-1
746 1119 m 1,86,-1
 746 1023 l 1,87,-1
 853 1023 l 1,88,-1
 853 1119 l 1,89,-1
 746 1119 l 1,86,-1
960 927 m 1,90,-1
 853 927 l 1,91,-1
 853 829 l 1,92,-1
 960 829 l 1,93,-1
 960 927 l 1,90,-1
746 927 m 1,94,-1
 639 927 l 1,95,-1
 639 829 l 1,96,-1
 746 829 l 1,97,-1
 746 927 l 1,94,-1
532 927 m 1,98,-1
 426 927 l 1,99,-1
 426 829 l 1,100,-1
 532 829 l 1,101,-1
 532 927 l 1,98,-1
319 927 m 1,102,-1
 213 927 l 1,103,-1
 213 829 l 1,104,-1
 319 829 l 1,105,-1
 319 927 l 1,102,-1
106 732 m 1,106,-1
 106 636 l 1,107,-1
 213 636 l 1,108,-1
 213 732 l 1,109,-1
 106 732 l 1,106,-1
319 732 m 1,110,-1
 319 636 l 1,111,-1
 426 636 l 1,112,-1
 426 732 l 1,113,-1
 319 732 l 1,110,-1
532 732 m 1,114,-1
 532 636 l 1,115,-1
 639 636 l 1,116,-1
 639 732 l 1,117,-1
 532 732 l 1,114,-1
746 732 m 1,118,-1
 746 636 l 1,119,-1
 853 636 l 1,120,-1
 853 732 l 1,121,-1
 746 732 l 1,118,-1
319 540 m 1,122,-1
 213 540 l 1,123,-1
 213 444 l 1,124,-1
 319 444 l 1,125,-1
 319 540 l 1,122,-1
426 540 m 1,126,-1
 426 444 l 1,127,-1
 532 444 l 1,128,-1
 532 540 l 1,129,-1
 426 540 l 1,126,-1
639 540 m 1,130,-1
 639 444 l 1,131,-1
 746 444 l 1,132,-1
 746 540 l 1,133,-1
 639 540 l 1,130,-1
853 540 m 1,134,-1
 853 444 l 1,135,-1
 960 444 l 1,136,-1
 960 540 l 1,137,-1
 853 540 l 1,134,-1
106 345 m 1,138,-1
 106 249 l 1,139,-1
 213 249 l 1,140,-1
 213 345 l 1,141,-1
 106 345 l 1,138,-1
532 345 m 1,142,-1
 532 249 l 1,143,-1
 639 249 l 1,144,-1
 639 345 l 1,145,-1
 532 345 l 1,142,-1
426 249 m 1,146,-1
 426 345 l 1,147,-1
 319 345 l 1,148,-1
 319 249 l 1,149,-1
 426 249 l 1,146,-1
746 345 m 1,150,-1
 746 249 l 1,151,-1
 853 249 l 1,152,-1
 853 345 l 1,153,-1
 746 345 l 1,150,-1
960 56 m 1,154,-1
 960 153 l 1,155,-1
 853 153 l 1,156,-1
 853 56 l 1,157,-1
 960 56 l 1,154,-1
746 56 m 1,158,-1
 746 153 l 1,159,-1
 639 153 l 1,160,-1
 639 56 l 1,161,-1
 746 56 l 1,158,-1
532 56 m 1,162,-1
 532 153 l 1,163,-1
 426 153 l 1,164,-1
 426 56 l 1,165,-1
 532 56 l 1,162,-1
319 56 m 1,166,-1
 319 153 l 1,167,-1
 213 153 l 1,168,-1
 213 56 l 1,169,-1
 319 56 l 1,166,-1
106 -42 m 1,170,-1
 106 -136 l 1,171,-1
 213 -136 l 1,172,-1
 213 -42 l 1,173,-1
 106 -42 l 1,170,-1
319 -42 m 1,174,-1
 319 -136 l 1,175,-1
 426 -136 l 1,176,-1
 426 -42 l 1,177,-1
 319 -42 l 1,174,-1
532 -42 m 1,178,-1
 532 -136 l 1,179,-1
 639 -136 l 1,180,-1
 639 -42 l 1,181,-1
 532 -42 l 1,178,-1
746 -42 m 1,182,-1
 746 -136 l 1,183,-1
 853 -136 l 1,184,-1
 853 -42 l 1,185,-1
 746 -42 l 1,182,-1
960 -331 m 1,186,-1
 960 -234 l 1,187,-1
 853 -234 l 1,188,-1
 853 -331 l 1,189,-1
 960 -331 l 1,186,-1
746 -331 m 1,190,-1
 746 -234 l 1,191,-1
 639 -234 l 1,192,-1
 639 -331 l 1,193,-1
 746 -331 l 1,190,-1
532 -331 m 1,194,-1
 532 -234 l 1,195,-1
 426 -234 l 1,196,-1
 426 -331 l 1,197,-1
 532 -331 l 1,194,-1
319 -331 m 1,198,-1
 319 -234 l 1,199,-1
 213 -234 l 1,200,-1
 213 -331 l 1,201,-1
 319 -331 l 1,198,-1
106 -427 m 1,202,-1
 106 -523 l 1,203,-1
 213 -523 l 1,204,-1
 213 -427 l 1,205,-1
 106 -427 l 1,202,-1
319 -427 m 1,206,-1
 319 -523 l 1,207,-1
 426 -523 l 1,208,-1
 426 -427 l 1,209,-1
 319 -427 l 1,206,-1
532 -427 m 1,210,-1
 532 -523 l 1,211,-1
 639 -523 l 1,212,-1
 639 -427 l 1,213,-1
 532 -427 l 1,210,-1
746 -427 m 1,214,-1
 746 -523 l 1,215,-1
 853 -523 l 1,216,-1
 853 -427 l 1,217,-1
 746 -427 l 1,214,-1
960 1314 m 1,218,-1
 853 1314 l 1,219,-1
 853 1216 l 1,220,-1
 960 1216 l 1,221,-1
 960 1314 l 1,218,-1
746 1314 m 1,222,-1
 639 1314 l 1,223,-1
 639 1216 l 1,224,-1
 746 1216 l 1,225,-1
 746 1314 l 1,222,-1
532 1314 m 1,226,-1
 426 1314 l 1,227,-1
 426 1216 l 1,228,-1
 532 1216 l 1,229,-1
 532 1314 l 1,226,-1
319 1314 m 1,230,-1
 213 1314 l 1,231,-1
 213 1216 l 1,232,-1
 319 1216 l 1,233,-1
 319 1314 l 1,230,-1
853 1506 m 1,234,-1
 746 1506 l 1,235,-1
 746 1408 l 1,236,-1
 853 1408 l 1,237,-1
 853 1506 l 1,234,-1
639 1506 m 1,238,-1
 532 1506 l 1,239,-1
 532 1408 l 1,240,-1
 639 1408 l 1,241,-1
 639 1506 l 1,238,-1
426 1506 m 1,242,-1
 319 1506 l 1,243,-1
 319 1408 l 1,244,-1
 426 1408 l 1,245,-1
 426 1506 l 1,242,-1
213 1506 m 1,246,-1
 106 1506 l 1,247,-1
 106 1408 l 1,248,-1
 213 1408 l 1,249,-1
 213 1506 l 1,246,-1
960 1119 m 1,250,-1
 960 1023 l 1,251,-1
 1067 1023 l 1,252,-1
 1067 1119 l 1,253,-1
 960 1119 l 1,250,-1
1173 1119 m 1,254,-1
 1173 1023 l 1,255,-1
 1280 1023 l 1,256,-1
 1280 1119 l 1,257,-1
 1173 1119 l 1,254,-1
1386 927 m 1,258,-1
 1280 927 l 1,259,-1
 1280 829 l 1,260,-1
 1386 829 l 1,261,-1
 1386 927 l 1,258,-1
1173 927 m 1,262,-1
 1067 927 l 1,263,-1
 1067 829 l 1,264,-1
 1173 829 l 1,265,-1
 1173 927 l 1,262,-1
960 732 m 1,266,-1
 960 636 l 1,267,-1
 1067 636 l 1,268,-1
 1067 732 l 1,269,-1
 960 732 l 1,266,-1
1173 732 m 1,270,-1
 1173 636 l 1,271,-1
 1280 636 l 1,272,-1
 1280 732 l 1,273,-1
 1173 732 l 1,270,-1
1173 540 m 1,274,-1
 1067 540 l 1,275,-1
 1067 444 l 1,276,-1
 1173 444 l 1,277,-1
 1173 540 l 1,274,-1
1280 540 m 1,278,-1
 1280 444 l 1,279,-1
 1386 444 l 1,280,-1
 1386 540 l 1,281,-1
 1280 540 l 1,278,-1
960 345 m 1,282,-1
 960 249 l 1,283,-1
 1067 249 l 1,284,-1
 1067 345 l 1,285,-1
 960 345 l 1,282,-1
1280 249 m 1,286,-1
 1280 345 l 1,287,-1
 1173 345 l 1,288,-1
 1173 249 l 1,289,-1
 1280 249 l 1,286,-1
1386 56 m 1,290,-1
 1386 153 l 1,291,-1
 1280 153 l 1,292,-1
 1280 56 l 1,293,-1
 1386 56 l 1,290,-1
1173 56 m 1,294,-1
 1173 153 l 1,295,-1
 1067 153 l 1,296,-1
 1067 56 l 1,297,-1
 1173 56 l 1,294,-1
960 -42 m 1,298,-1
 960 -136 l 1,299,-1
 1067 -136 l 1,300,-1
 1067 -42 l 1,301,-1
 960 -42 l 1,298,-1
1173 -42 m 1,302,-1
 1173 -136 l 1,303,-1
 1280 -136 l 1,304,-1
 1280 -42 l 1,305,-1
 1173 -42 l 1,302,-1
1386 -331 m 1,306,-1
 1386 -234 l 1,307,-1
 1280 -234 l 1,308,-1
 1280 -331 l 1,309,-1
 1386 -331 l 1,306,-1
1173 -331 m 1,310,-1
 1173 -234 l 1,311,-1
 1067 -234 l 1,312,-1
 1067 -331 l 1,313,-1
 1173 -331 l 1,310,-1
960 -427 m 1,314,-1
 960 -523 l 1,315,-1
 1067 -523 l 1,316,-1
 1067 -427 l 1,317,-1
 960 -427 l 1,314,-1
1173 -427 m 1,318,-1
 1173 -523 l 1,319,-1
 1280 -523 l 1,320,-1
 1280 -427 l 1,321,-1
 1173 -427 l 1,318,-1
1386 1314 m 1,322,-1
 1280 1314 l 1,323,-1
 1280 1216 l 1,324,-1
 1386 1216 l 1,325,-1
 1386 1314 l 1,322,-1
1173 1314 m 1,326,-1
 1067 1314 l 1,327,-1
 1067 1216 l 1,328,-1
 1173 1216 l 1,329,-1
 1173 1314 l 1,326,-1
1280 1506 m 1,330,-1
 1173 1506 l 1,331,-1
 1173 1408 l 1,332,-1
 1280 1408 l 1,333,-1
 1280 1506 l 1,330,-1
1067 1506 m 1,334,-1
 960 1506 l 1,335,-1
 960 1408 l 1,336,-1
 1067 1408 l 1,337,-1
 1067 1506 l 1,334,-1
EndSplineSet
Validated: 1
EndChar

StartChar: filledbox
Encoding: 9632 9632 371
Width: 1237
GlyphClass: 2
Flags: W
LayerCount: 2
Fore
SplineSet
123 1108 m 1,0,-1
 1114 1108 l 1,1,-1
 1114 117 l 1,2,-1
 123 117 l 1,3,-1
 123 1108 l 1,0,-1
EndSplineSet
Validated: 1
EndChar

StartChar: filledrect
Encoding: 9644 9644 372
Width: 2048
GlyphClass: 2
Flags: W
LayerCount: 2
Fore
SplineSet
0 616 m 1,0,-1
 2048 616 l 1,1,-1
 2048 0 l 1,2,-1
 0 0 l 1,3,-1
 0 616 l 1,0,-1
EndSplineSet
Validated: 1
EndChar

StartChar: triagup
Encoding: 9650 9650 373
Width: 2027
GlyphClass: 2
Flags: W
LayerCount: 2
Fore
SplineSet
414 0 m 1,0,-1
 1014 1198 l 1,1,-1
 1612 0 l 1,2,-1
 414 0 l 1,0,-1
EndSplineSet
Validated: 1
EndChar

StartChar: triagrt
Encoding: 9658 9658 374
Width: 2027
GlyphClass: 2
Flags: W
LayerCount: 2
Fore
SplineSet
401 1196 m 1,0,-1
 1626 586 l 1,1,-1
 401 -27 l 1,2,-1
 401 1196 l 1,0,-1
EndSplineSet
Validated: 1
EndChar

StartChar: triagdn
Encoding: 9660 9660 375
Width: 2027
GlyphClass: 2
Flags: W
LayerCount: 2
Fore
SplineSet
1612 1171 m 1,0,-1
 1014 -27 l 1,1,-1
 414 1171 l 1,2,-1
 1612 1171 l 1,0,-1
EndSplineSet
Validated: 1
EndChar

StartChar: triaglf
Encoding: 9668 9668 376
Width: 2027
GlyphClass: 2
Flags: W
LayerCount: 2
Fore
SplineSet
1626 1196 m 1,0,-1
 1626 -27 l 1,1,-1
 401 586 l 1,2,-1
 1626 1196 l 1,0,-1
EndSplineSet
Validated: 1
EndChar

StartChar: circle
Encoding: 9675 9675 377
Width: 1237
GlyphClass: 2
Flags: W
LayerCount: 2
Fore
SplineSet
167 612 m 256,0,1
 167 734 167 734 227 839 c 128,-1,2
 287 944 287 944 391.5 1004.5 c 128,-1,3
 496 1065 496 1065 617 1065 c 0,4,5
 739 1065 739 1065 844 1004.5 c 128,-1,6
 949 944 949 944 1009.5 838.5 c 128,-1,7
 1070 733 1070 733 1070 612 c 256,8,9
 1070 491 1070 491 1009.5 386.5 c 128,-1,10
 949 282 949 282 844.5 222 c 128,-1,11
 740 162 740 162 617 162 c 0,12,13
 495 162 495 162 391 222 c 128,-1,14
 287 282 287 282 227 386 c 128,-1,15
 167 490 167 490 167 612 c 256,0,1
253 612 m 0,16,17
 253 514 253 514 302 429.5 c 128,-1,18
 351 345 351 345 434.5 296.5 c 128,-1,19
 518 248 518 248 617 248 c 0,20,21
 715 248 715 248 799.5 296 c 128,-1,22
 884 344 884 344 934 429 c 128,-1,23
 984 514 984 514 984 612 c 256,24,25
 984 710 984 710 935 795.5 c 128,-1,26
 886 881 886 881 800.5 930 c 128,-1,27
 715 979 715 979 617 979 c 0,28,29
 520 979 520 979 435.5 930 c 128,-1,30
 351 881 351 881 302 796.5 c 128,-1,31
 253 712 253 712 253 612 c 0,16,17
EndSplineSet
Validated: 1
EndChar

StartChar: invbullet
Encoding: 9688 9688 378
Width: 1237
GlyphClass: 2
Flags: W
LayerCount: 2
Fore
SplineSet
41 0 m 1,0,-1
 41 1155 l 1,1,-1
 1196 1155 l 1,2,-1
 1196 0 l 1,3,-1
 41 0 l 1,0,-1
176 577 m 256,4,5
 176 459 176 459 235 357 c 128,-1,6
 294 255 294 255 395.5 196 c 128,-1,7
 497 137 497 137 616 137 c 0,8,9
 734 137 734 137 836.5 196 c 128,-1,10
 939 255 939 255 998 357.5 c 128,-1,11
 1057 460 1057 460 1057 577 c 0,12,13
 1057 695 1057 695 998 797.5 c 128,-1,14
 939 900 939 900 837 959 c 128,-1,15
 735 1018 735 1018 616 1018 c 0,16,17
 498 1018 498 1018 395.5 958.5 c 128,-1,18
 293 899 293 899 234.5 797 c 128,-1,19
 176 695 176 695 176 577 c 256,4,5
EndSplineSet
Validated: 1
EndChar

StartChar: invcircle
Encoding: 9689 9689 379
Width: 1237
GlyphClass: 2
Flags: W
LayerCount: 2
Fore
SplineSet
41 0 m 1,0,-1
 41 1155 l 1,1,-1
 1196 1155 l 1,2,-1
 1196 0 l 1,3,-1
 41 0 l 1,0,-1
253 577 m 256,4,5
 253 674 253 674 302 759 c 128,-1,6
 351 844 351 844 436 893 c 128,-1,7
 521 942 521 942 618 942 c 256,8,9
 715 942 715 942 800 893 c 128,-1,10
 885 844 885 844 934 759 c 128,-1,11
 983 674 983 674 983 577 c 256,12,13
 983 480 983 480 934 395 c 128,-1,14
 885 310 885 310 800 261 c 128,-1,15
 715 212 715 212 618 212 c 256,16,17
 521 212 521 212 436 261 c 128,-1,18
 351 310 351 310 302 395 c 128,-1,19
 253 480 253 480 253 577 c 256,4,5
176 577 m 256,20,21
 176 459 176 459 235 357 c 128,-1,22
 294 255 294 255 395.5 196 c 128,-1,23
 497 137 497 137 616 137 c 0,24,25
 734 137 734 137 836.5 196 c 128,-1,26
 939 255 939 255 998 357.5 c 128,-1,27
 1057 460 1057 460 1057 577 c 0,28,29
 1057 695 1057 695 998 797.5 c 128,-1,30
 939 900 939 900 837 959 c 128,-1,31
 735 1018 735 1018 616 1018 c 0,32,33
 498 1018 498 1018 395.5 958.5 c 128,-1,34
 293 899 293 899 234.5 797 c 128,-1,35
 176 695 176 695 176 577 c 256,20,21
EndSplineSet
Validated: 1
EndChar

